<svg width="406" height="270" viewBox="0 0 406 270" fill="none" xmlns="http://www.w3.org/2000/svg">
<path d="M251.628 39.6035L257.816 55.3985L253.972 55.3823L250.886 45.6731L251.628 39.6035Z" fill="#E0E0E0"/>
<path d="M230.5 25.0137L228.372 55.2753L250.334 55.7289L252.803 25.0137H230.5Z" fill="#EBEBEB"/>
<path d="M232.697 27.4539L230.922 52.6341L247.248 53.4009L249.533 27.3027L232.697 27.4539Z" fill="#FAFAFA"/>
<path d="M236.276 31.0117L234.955 48.7129H243.957L245.549 31.0117H236.276Z" fill="#E0E0E0"/>
<path d="M208.841 55.4629V40.3105H219.96V55.4521L208.841 55.4629Z" fill="#EBEBEB"/>
<path d="M215.164 40.3111C215.164 40.3111 217.843 20.7523 217.091 20.7793C216.339 20.8063 214.455 38.5993 214.455 38.5993C214.455 38.5993 214.368 23.8681 213.67 23.9437C212.971 24.0193 213.67 39.5551 213.67 39.5551C213.67 39.5551 212.457 26.9515 211.808 27.2539C211.158 27.5563 212.084 40.3111 212.084 40.3111H215.164Z" fill="#E0E0E0"/>
<path d="M213.139 40.3103C213.139 40.3103 214.07 30.5633 214.368 31.2275C214.666 31.8917 214.368 37.0325 214.368 37.0325C214.368 37.0325 216.939 24.4343 217.616 24.8663C218.293 25.2983 214.98 38.5391 214.98 38.5391C214.98 38.5391 217.491 30.9791 218.044 31.7729C218.596 32.5667 215.992 39.6623 215.992 39.6623C215.992 39.6623 218.699 34.6457 218.872 35.3423C219.045 36.0389 217.584 40.3319 217.584 40.3319L213.139 40.3103Z" fill="#EBEBEB"/>
<path d="M211.553 40.3709C211.553 40.3709 205.598 28.7285 206.345 29.0903C207.092 29.4521 210.882 36.9689 210.882 36.9689C210.882 36.9689 208.365 29.7005 208.917 29.4899C209.469 29.2793 212.23 37.6439 212.23 37.6439L212.847 40.3709H211.553Z" fill="#F5F5F5"/>
<path d="M213.989 40.3377L214.265 55.4847H208.982L208.879 40.2891L213.989 40.3377Z" fill="#E0E0E0"/>
<path d="M208.852 41.6503L213.973 41.7367L219.96 41.6503L220.149 40.2031H208.706L208.852 41.6503Z" fill="#E0E0E0"/>
<path d="M275.441 55.043H197.581V59.0444H275.441V55.043Z" fill="#E0E0E0"/>
<path d="M75.5485 122.18L76.6691 248.529H26.4983V123.902L75.5485 122.18Z" fill="#F5F5F5"/>
<path d="M48.5197 123.131L48.9636 248.53H26.4983V123.903L48.5197 123.131Z" fill="#E0E0E0"/>
<path d="M73.9733 123.74V141.447H50.2087V124.577L73.9733 123.74Z" fill="#E0E0E0"/>
<path d="M65.7774 128.613V131.226H58.5073V128.375L65.7774 128.613Z" fill="#F5F5F5"/>
<path d="M65.7775 133.43H58.2692V134.499H65.7775V133.43Z" fill="#F5F5F5"/>
<path d="M73.9733 185.799V203.511H50.2087V186.636L73.9733 185.799Z" fill="#E0E0E0"/>
<path d="M65.7774 190.675V193.289H58.5073V190.438L65.7774 190.675Z" fill="#F5F5F5"/>
<path d="M65.7775 195.486H58.2692V196.556H65.7775V195.486Z" fill="#F5F5F5"/>
<path d="M73.9733 143.705V161.417H50.2087V144.542L73.9733 143.705Z" fill="#E0E0E0"/>
<path d="M65.7774 148.575V151.194H58.5073V148.338L65.7774 148.575Z" fill="#F5F5F5"/>
<path d="M65.7775 153.393H58.2692V154.462H65.7775V153.393Z" fill="#F5F5F5"/>
<path d="M73.9733 205.762V223.468H50.2087V206.599L73.9733 205.762Z" fill="#E0E0E0"/>
<path d="M65.7774 210.632V213.246H58.5073V210.395L65.7774 210.632Z" fill="#F5F5F5"/>
<path d="M65.7775 215.449H58.2692V216.518H65.7775V215.449Z" fill="#F5F5F5"/>
<path d="M74.2277 225.721V243.433H50.4631V226.558L74.2277 225.721Z" fill="#E0E0E0"/>
<path d="M66.0318 230.591V233.21H58.7617V230.354L66.0318 230.591Z" fill="#F5F5F5"/>
<path d="M66.0319 235.408H58.5236V236.477H66.0319V235.408Z" fill="#F5F5F5"/>
<path d="M74.2817 164.91H50.5172V182.622H74.2817V164.91Z" fill="#E0E0E0"/>
<path d="M65.929 172.891V175.348H59.0919V172.67L65.929 172.891Z" fill="#F5F5F5"/>
<path d="M65.929 177.418H58.87V178.422H65.929V177.418Z" fill="#F5F5F5"/>
<path d="M222.022 233.113V248.552H244.656H269.616V233.113H222.022Z" fill="#F5F5F5"/>
<path d="M220.025 228.799V233.113H271.278V228.799H244.656H220.025Z" fill="#E0E0E0"/>
<path d="M245.652 248.552H269.616V233.113H271.278V228.799H244.656V232.714L245.652 248.552Z" fill="#E0E0E0"/>
<path d="M238.333 235.602H228.681V237.924H238.333V235.602Z" fill="#E0E0E0"/>
<path d="M239.827 240.83H227.436V245.739H239.827V240.83Z" fill="white"/>
<path d="M283.512 213.359V228.798H306.14H331.101V213.359H283.512Z" fill="#F5F5F5"/>
<path d="M281.515 209.045V213.36H332.763V209.045H306.14H281.515Z" fill="#E0E0E0"/>
<path d="M307.142 228.798H331.101V213.36H332.763V209.045H306.14V212.96L307.142 228.798Z" fill="#E0E0E0"/>
<path d="M299.817 215.85H290.166V218.172H299.817V215.85Z" fill="#E0E0E0"/>
<path d="M301.317 221.076H288.926V225.985H301.317V221.076Z" fill="white"/>
<path d="M281.228 233.113V248.552H303.861H328.822V233.113H281.228Z" fill="#F5F5F5"/>
<path d="M279.236 228.799V233.113H330.484V228.799H303.861H279.236Z" fill="#E0E0E0"/>
<path d="M304.863 248.552H328.822V233.113H330.484V228.799H303.861V232.714L304.863 248.552Z" fill="#E0E0E0"/>
<path d="M297.538 235.602H287.886V237.924H297.538V235.602Z" fill="#E0E0E0"/>
<path d="M299.038 240.83H286.647V245.739H299.038V240.83Z" fill="white"/>
<path d="M328.151 122.115L327.03 248.459H377.196V123.838L328.151 122.115Z" fill="#F5F5F5"/>
<path d="M355.18 123.066L354.736 248.46H377.196V123.839L355.18 123.066Z" fill="#E0E0E0"/>
<path d="M329.726 123.676V141.382H353.491V124.513L329.726 123.676Z" fill="#E0E0E0"/>
<path d="M337.922 128.546V131.16H345.192V128.309L337.922 128.546Z" fill="#F5F5F5"/>
<path d="M345.43 133.363H337.922V134.432H345.43V133.363Z" fill="#F5F5F5"/>
<path d="M329.726 185.732V203.444H353.491V186.569L329.726 185.732Z" fill="#E0E0E0"/>
<path d="M337.922 190.609V193.222H345.192V190.371L337.922 190.609Z" fill="#F5F5F5"/>
<path d="M345.43 195.42H337.922V196.489H345.43V195.42Z" fill="#F5F5F5"/>
<path d="M329.726 143.641V161.353H353.491V144.478L329.726 143.641Z" fill="#E0E0E0"/>
<path d="M337.922 148.511V151.13H345.192V148.273L337.922 148.511Z" fill="#F5F5F5"/>
<path d="M345.43 153.328H337.922V154.397H345.43V153.328Z" fill="#F5F5F5"/>
<path d="M329.726 205.697V223.404H353.491V206.534L329.726 205.697Z" fill="#E0E0E0"/>
<path d="M337.922 210.568V213.181H345.192V210.33L337.922 210.568Z" fill="#F5F5F5"/>
<path d="M345.43 215.385H337.922V216.454H345.43V215.385Z" fill="#F5F5F5"/>
<path d="M329.472 225.656V243.368H353.236V226.493L329.472 225.656Z" fill="#E0E0E0"/>
<path d="M337.662 230.527V233.146H344.938V230.289L337.662 230.527Z" fill="#F5F5F5"/>
<path d="M345.17 235.344H337.662V236.413H345.17V235.344Z" fill="#F5F5F5"/>
<path d="M353.182 164.846H329.417V182.558H353.182V164.846Z" fill="#E0E0E0"/>
<path d="M337.771 172.826V175.283H344.608V172.6L337.771 172.826Z" fill="#F5F5F5"/>
<path d="M344.829 177.352H337.771V178.356H344.829V177.352Z" fill="#F5F5F5"/>
<path d="M377.537 248.535C377.537 248.611 297.257 248.676 198.253 248.676C99.2481 248.676 18.9467 248.611 18.9467 248.535C18.9467 248.46 99.2102 248.4 198.253 248.4C297.295 248.4 377.537 248.454 377.537 248.535Z" fill="#3C5E67"/>
<path d="M125.741 103.356L129.563 168.367C129.628 169.483 130.117 170.531 130.931 171.299C131.745 172.067 132.822 172.496 133.942 172.498L251.249 172.854C251.827 172.857 252.399 172.745 252.934 172.526C253.468 172.308 253.954 171.986 254.364 171.58C254.774 171.173 255.099 170.691 255.322 170.159C255.544 169.627 255.66 169.057 255.661 168.48L255.818 117.861C255.819 117.282 255.706 116.709 255.485 116.174C255.263 115.639 254.938 115.153 254.527 114.744C254.117 114.335 253.629 114.011 253.092 113.79C252.556 113.57 251.981 113.458 251.401 113.46L179.257 113.703C178.68 113.705 178.108 113.594 177.574 113.375C177.04 113.156 176.554 112.835 176.145 112.428L163.645 100.073C162.823 99.262 161.716 98.8045 160.56 98.7988L130.147 98.707C129.547 98.706 128.952 98.8276 128.4 99.0642C127.848 99.3008 127.351 99.6474 126.938 100.083C126.525 100.518 126.206 101.033 126 101.596C125.795 102.159 125.706 102.758 125.741 103.356Z" fill="#FFA800"/>
<path opacity="0.3" d="M125.741 103.356L129.563 168.367C129.628 169.483 130.117 170.531 130.931 171.299C131.745 172.067 132.822 172.496 133.942 172.498L251.249 172.854C251.827 172.857 252.399 172.745 252.934 172.526C253.468 172.308 253.954 171.986 254.364 171.58C254.774 171.173 255.099 170.691 255.322 170.159C255.544 169.627 255.66 169.057 255.661 168.48L255.818 117.861C255.819 117.282 255.706 116.709 255.485 116.174C255.263 115.639 254.938 115.153 254.527 114.744C254.117 114.335 253.629 114.011 253.092 113.79C252.556 113.57 251.981 113.458 251.401 113.46L179.257 113.703C178.68 113.705 178.108 113.594 177.574 113.375C177.04 113.156 176.554 112.835 176.145 112.428L163.645 100.073C162.823 99.262 161.716 98.8045 160.56 98.7988L130.147 98.707C129.547 98.706 128.952 98.8276 128.4 99.0642C127.848 99.3008 127.351 99.6474 126.938 100.083C126.525 100.518 126.206 101.033 126 101.596C125.795 102.159 125.706 102.758 125.741 103.356Z" fill="#1A1A1A"/>
<path d="M165.651 74.2737L127.076 124.785L167.558 155.548L206.133 105.037L165.651 74.2737Z" fill="white"/>
<path d="M165.648 74.2676L165.469 74.516L164.928 75.2234C164.452 75.8552 163.753 76.7732 162.849 77.9774L154.984 88.3346L127.175 124.855L127.148 124.682L167.64 155.43L167.44 155.457L206.031 104.961L206.059 105.123L176.724 82.7564L168.539 76.4978L166.373 74.8454L165.648 74.2676L166.384 74.8076L168.55 76.4276L176.735 82.6214L206.205 104.934L206.297 105.004L206.226 105.102L167.673 155.629L167.586 155.743L167.472 155.656L127.002 124.876L126.905 124.801L126.981 124.698L154.94 88.1888L162.844 77.891L164.933 75.191L165.475 74.4998L165.648 74.2676Z" fill="#3C5E67"/>
<path d="M166.817 78.0152L130.952 124.979L166.34 151.871L202.205 104.907L166.817 78.0152Z" fill="#3C5E67"/>
<path d="M166.341 152.421L156.868 119.303L178.391 119.6L176.296 107.115L202.204 105.457L166.341 152.421Z" fill="#FFA800"/>
<path d="M163.038 110.522C165.588 110.175 167.374 107.831 167.026 105.287C166.678 102.743 164.328 100.962 161.778 101.309C159.227 101.656 157.442 104 157.79 106.544C158.138 109.088 160.487 110.869 163.038 110.522Z" fill="#FFA800"/>
<path d="M174.221 73.7193L171.304 144.318L259.829 147.958L262.746 77.3587L174.221 73.7193Z" fill="white"/>
<path d="M262.725 77.3448H262.303L261.069 77.3016L256.267 77.118L238.154 76.4106L174.196 73.8456L174.326 73.7268C173.465 94.7382 172.474 118.828 171.429 144.321L171.294 144.175L259.84 147.826L259.721 147.939C260.625 126.663 261.372 109.027 261.886 96.7092C262.157 90.5424 262.368 85.704 262.509 82.41C262.585 80.763 262.639 79.4994 262.677 78.63C262.715 77.7606 262.742 77.334 262.742 77.334C262.742 77.334 262.742 77.7606 262.704 78.6084C262.666 79.4562 262.622 80.7144 262.563 82.3506C262.433 85.6446 262.244 90.4506 262.022 96.6282C261.529 108.967 260.82 126.631 259.965 147.928V148.042H259.84L171.283 144.451H171.143V144.31C172.198 118.817 173.2 94.7274 174.071 73.716V73.5918H174.196L238.23 76.2918L256.311 77.0694L261.085 77.28L262.309 77.334L262.725 77.3448Z" fill="#3C5E67"/>
<path d="M177.086 78.2872L174.536 140L256.841 143.384L259.39 81.6709L177.086 78.2872Z" fill="#FFA800"/>
<path d="M174.526 139.99L204.851 102.811L221.671 127.543L234.278 115.209L256.83 143.37L174.526 139.99Z" fill="#3C5E67"/>
<path d="M230.258 100.304C231.041 96.8177 228.844 93.3578 225.349 92.576C221.854 91.7941 218.385 93.9865 217.602 97.4727C216.818 100.959 219.016 104.419 222.511 105.201C226.005 105.983 229.474 103.79 230.258 100.304Z" fill="#3C5E67"/>
<path d="M267.013 107.693L147.097 124.163L159.796 211.773L278.727 195.06L267.013 107.693Z" fill="#EBEBEB"/>
<path d="M267.473 96.7637L148.943 121.269L167.543 207.825L285.072 183.142L267.473 96.7637Z" fill="#E0E0E0"/>
<path d="M257.003 87.0488L142.82 127.128L172.837 210.433L286.013 170.311L257.003 87.0488Z" fill="white"/>
<path d="M257.004 87.0488C257.317 87.9452 268.485 119.854 286.122 170.274L286.16 170.382L286.051 170.419L172.913 210.563L172.777 210.612L172.734 210.477L172.512 209.872C161.832 180.21 151.703 152.092 142.739 127.171L142.696 127.047L142.815 127.009L257.036 87.0488L142.863 127.246L142.939 127.084L172.75 209.775L172.972 210.385L172.788 210.298L285.976 170.203L285.905 170.349C268.399 119.881 257.317 87.9452 257.004 87.0488Z" fill="#3C5E67"/>
<path d="M260.224 166.952C260.002 167.033 254.519 152.826 247.974 135.222C241.429 117.618 236.292 103.281 236.514 103.2C236.736 103.119 242.214 117.321 248.764 134.93C255.315 152.539 260.441 166.86 260.224 166.952Z" fill="#3C5E67"/>
<path d="M250.469 171.397C250.253 171.478 244.764 157.271 238.219 139.672C231.674 122.074 226.543 107.726 226.759 107.645C226.976 107.564 232.465 121.771 239.015 139.375C245.565 156.979 250.691 171.316 250.469 171.397Z" fill="#3C5E67"/>
<path d="M220.193 184.05C219.976 184.131 214.487 169.923 207.942 152.319C201.398 134.715 196.266 120.378 196.482 120.297C196.699 120.216 202.188 134.418 208.733 152.028C215.278 169.637 220.409 183.969 220.193 184.05Z" fill="#3C5E67"/>
<path d="M229.845 180.171C229.623 180.252 224.139 166.044 217.594 148.44C211.05 130.836 205.912 116.499 206.134 116.418C206.356 116.337 211.835 130.539 218.385 148.149C224.935 165.758 230.067 180.09 229.845 180.171Z" fill="#3C5E67"/>
<path d="M239.491 176.294C239.275 176.375 233.791 162.167 227.241 144.569C220.691 126.97 215.564 112.622 215.781 112.541C215.998 112.46 221.487 126.668 228.037 144.272C234.587 161.876 239.713 176.213 239.491 176.294Z" fill="#3C5E67"/>
<path d="M209.014 187.257C208.798 187.338 203.309 173.13 196.764 155.526C190.219 137.922 185.087 123.585 185.304 123.504C185.52 123.423 191.01 137.625 197.56 155.235C204.11 172.844 209.236 187.176 209.014 187.257Z" fill="#3C5E67"/>
<path d="M198.323 191.162C198.106 191.243 192.623 177.035 186.073 159.437C179.522 141.838 174.396 127.496 174.613 127.442C174.829 127.388 180.318 141.568 186.868 159.172C193.419 176.776 198.545 191.086 198.323 191.162Z" fill="#3C5E67"/>
<path d="M187.637 195.075C187.415 195.156 181.931 180.949 175.381 163.35C168.831 145.751 163.705 131.404 163.927 131.323C164.149 131.242 169.627 145.449 176.177 163.053C182.727 180.657 187.843 194.994 187.637 195.075Z" fill="#3C5E67"/>
<path d="M123.343 138.942L132.887 218.641C132.968 219.325 133.298 219.955 133.814 220.414C134.329 220.872 134.995 221.127 135.685 221.13L260.593 221.508C261.305 221.512 261.993 221.247 262.518 220.766C263.043 220.286 263.366 219.625 263.424 218.916L269.958 139.266C269.989 138.878 269.939 138.487 269.812 138.119C269.685 137.75 269.483 137.412 269.219 137.125C268.955 136.838 268.634 136.609 268.277 136.451C267.919 136.294 267.533 136.212 267.143 136.21L126.163 135.783C125.762 135.782 125.366 135.866 125 136.029C124.634 136.192 124.306 136.43 124.04 136.729C123.773 137.028 123.573 137.379 123.453 137.761C123.333 138.143 123.295 138.545 123.343 138.942Z" fill="#FFA800"/>
<path d="M111.304 246.061L111.255 241.633L102.929 241.676V248.156L103.47 248.188C105.766 248.302 115.158 248.61 116.69 248.14C118.384 247.611 111.304 246.061 111.304 246.061Z" fill="#FFA800"/>
<path d="M102.821 247.967H102.962H103.373L104.889 248.026C106.166 248.064 107.931 248.096 109.88 248.091C111.829 248.086 113.599 248.037 114.876 247.988L116.387 247.918L116.798 247.891H116.939C116.892 247.885 116.845 247.885 116.798 247.891H116.387L114.871 247.924C113.593 247.956 111.829 247.994 109.88 247.999C107.931 248.005 106.166 247.999 104.889 247.967L103.373 247.94H102.832L102.821 247.967Z" fill="#3C5E67"/>
<path d="M114.032 248.145C114.095 247.894 114.188 247.651 114.308 247.422C114.466 247.209 114.647 247.015 114.849 246.844C114.587 246.94 114.371 247.133 114.248 247.384C114.082 247.601 114.005 247.873 114.032 248.145Z" fill="#3C5E67"/>
<path d="M111.569 246.914C111.596 246.914 111.71 246.784 111.829 246.595C111.916 246.486 111.977 246.359 112.007 246.223C112.007 246.223 111.867 246.347 111.747 246.541C111.628 246.736 111.547 246.898 111.569 246.914Z" fill="#3C5E67"/>
<path d="M110.892 246.563C110.892 246.563 111.044 246.493 111.185 246.363C111.325 246.234 111.428 246.115 111.412 246.093C111.396 246.072 111.26 246.158 111.12 246.288C110.979 246.417 110.876 246.541 110.892 246.563Z" fill="#3C5E67"/>
<path d="M110.464 245.781C110.604 245.828 110.751 245.846 110.898 245.835C111.046 245.851 111.195 245.834 111.336 245.786C111.196 245.735 111.046 245.716 110.898 245.732C110.751 245.717 110.604 245.733 110.464 245.781Z" fill="#3C5E67"/>
<path d="M110.318 245.229C110.461 245.322 110.63 245.369 110.8 245.364C110.971 245.391 111.145 245.368 111.304 245.3C111.141 245.269 110.976 245.258 110.811 245.267C110.648 245.238 110.483 245.225 110.318 245.229Z" fill="#3C5E67"/>
<path d="M111.85 246.186C112.029 246.223 112.213 246.223 112.392 246.186C112.587 246.163 112.779 246.122 112.965 246.062C113.078 246.029 113.187 245.983 113.29 245.927C113.351 245.887 113.397 245.828 113.42 245.759C113.429 245.719 113.425 245.678 113.411 245.64C113.397 245.601 113.372 245.568 113.339 245.543C113.134 245.446 112.902 245.422 112.681 245.475C112.46 245.528 112.264 245.655 112.126 245.835C112.044 245.942 111.985 246.065 111.953 246.197C111.94 246.243 111.94 246.291 111.953 246.337C112.003 246.172 112.084 246.018 112.191 245.883C112.311 245.743 112.469 245.64 112.646 245.586C112.75 245.55 112.86 245.534 112.969 245.54C113.079 245.547 113.186 245.575 113.285 245.624C113.371 245.689 113.339 245.786 113.242 245.84C113.149 245.897 113.048 245.94 112.944 245.97C112.769 246.036 112.587 246.085 112.403 246.116C112.056 246.17 111.85 246.17 111.85 246.186Z" fill="#3C5E67"/>
<path d="M111.986 246.239C112.053 246.129 112.074 245.997 112.045 245.872C112.031 245.732 111.981 245.598 111.899 245.483C111.854 245.404 111.789 245.338 111.712 245.291C111.634 245.244 111.546 245.217 111.455 245.213C111.401 245.225 111.354 245.256 111.323 245.301C111.292 245.346 111.279 245.402 111.287 245.456C111.3 245.541 111.332 245.622 111.379 245.693C111.451 245.811 111.536 245.92 111.634 246.017C111.717 246.114 111.823 246.188 111.942 246.233C111.942 246.233 111.834 246.136 111.688 245.969C111.6 245.872 111.524 245.765 111.461 245.65C111.39 245.537 111.336 245.337 111.461 245.31C111.585 245.283 111.731 245.429 111.812 245.537C111.889 245.639 111.94 245.757 111.964 245.882C111.984 246 111.991 246.12 111.986 246.239Z" fill="#3C5E67"/>
<path d="M102.978 245.7C102.978 245.7 103.216 245.7 103.595 245.7C104.082 245.756 104.543 245.947 104.926 246.251C105.309 246.556 105.598 246.962 105.76 247.423C105.89 247.779 105.901 248.017 105.923 248.011C105.931 247.956 105.931 247.899 105.923 247.844C105.91 247.693 105.88 247.544 105.831 247.401C105.68 246.914 105.385 246.483 104.986 246.165C104.582 245.851 104.095 245.664 103.584 245.625C103.433 245.607 103.281 245.607 103.129 245.625C103.076 245.642 103.024 245.668 102.978 245.7Z" fill="#3C5E67"/>
<path d="M103.828 242.238C103.771 242.805 103.75 243.375 103.763 243.945C103.737 244.514 103.749 245.084 103.801 245.651C103.853 245.084 103.873 244.514 103.86 243.945C103.883 243.376 103.872 242.806 103.828 242.238Z" fill="#3C5E67"/>
<path d="M107 247.266C107.398 247.352 107.805 247.39 108.213 247.379C108.621 247.399 109.031 247.364 109.431 247.277C109.431 247.244 108.889 247.277 108.213 247.277C107.536 247.277 107 247.234 107 247.266Z" fill="#3C5E67"/>
<path d="M105.365 247.266C105.365 247.266 105.414 247.385 105.468 247.509C105.522 247.633 105.555 247.741 105.582 247.741C105.609 247.741 105.625 247.606 105.582 247.466C105.538 247.325 105.387 247.25 105.365 247.266Z" fill="#3C5E67"/>
<path d="M104.748 246.511C104.748 246.511 104.786 246.613 104.873 246.7C104.959 246.786 105.04 246.84 105.062 246.824C105.084 246.808 105.03 246.716 104.943 246.629C104.856 246.543 104.77 246.489 104.748 246.511Z" fill="#3C5E67"/>
<path d="M103.871 246.165C103.871 246.192 103.985 246.192 104.109 246.235C104.234 246.278 104.32 246.338 104.342 246.322C104.364 246.305 104.293 246.187 104.142 246.138C103.99 246.089 103.86 246.138 103.871 246.165Z" fill="#3C5E67"/>
<path d="M103.243 246.003C103.243 246.03 103.281 246.073 103.351 246.1C103.422 246.127 103.481 246.1 103.492 246.1C103.503 246.1 103.454 246.03 103.384 246.003C103.314 245.976 103.254 245.976 103.243 246.003Z" fill="#3C5E67"/>
<path d="M62.8542 239.674L65.209 235.894L58.1717 231.461L54.6747 236.942L55.0915 237.244C56.9645 238.573 64.7056 243.881 66.2484 244.308C67.9807 244.783 62.8542 239.674 62.8542 239.674Z" fill="#FFA800"/>
<path d="M54.6747 236.715L54.7884 236.807L55.124 237.044L56.3636 237.908C57.4463 238.626 58.8917 239.604 60.5373 240.646C62.183 241.688 63.6933 242.601 64.7976 243.243L66.1076 243.999L66.4703 244.199C66.5515 244.242 66.5948 244.264 66.6003 244.259L66.4812 244.178L66.1293 243.967L64.8355 243.184C63.7528 242.525 62.2371 241.602 60.5915 240.56C58.9458 239.517 57.468 238.556 56.4069 237.86L55.1456 237.023L54.7992 236.801L54.6747 236.715Z" fill="#3C5E67"/>
<path d="M64.0289 242.893C64.2196 242.718 64.4283 242.564 64.6515 242.434C64.8911 242.334 65.1419 242.263 65.3985 242.223C65.1294 242.164 64.848 242.207 64.6082 242.342C64.3517 242.445 64.1444 242.642 64.0289 242.893Z" fill="#3C5E67"/>
<path d="M62.6214 240.533C62.6214 240.56 62.8109 240.5 63.0112 240.403C63.2115 240.306 63.3739 240.209 63.3631 240.182C63.2233 240.195 63.0883 240.239 62.9679 240.311C62.7947 240.408 62.6106 240.506 62.6214 240.533Z" fill="#3C5E67"/>
<path d="M62.2533 239.874C62.2533 239.901 62.4157 239.874 62.6052 239.874C62.7946 239.874 62.9462 239.793 62.9408 239.766C62.9354 239.739 62.7784 239.766 62.5889 239.766C62.3995 239.766 62.2533 239.847 62.2533 239.874Z" fill="#3C5E67"/>
<path d="M62.3021 238.982C62.3021 238.982 62.4375 239.128 62.6378 239.263C62.838 239.398 63.0167 239.479 63.0329 239.452C63.0492 239.425 62.8976 239.306 62.6973 239.177C62.5808 239.085 62.4461 239.019 62.3021 238.982Z" fill="#3C5E67"/>
<path d="M62.4753 238.438C62.4753 238.438 62.5836 238.648 62.811 238.816C62.9379 238.93 63.0963 239.003 63.2657 239.026C63.2657 238.999 63.087 238.897 62.8705 238.735C62.7466 238.626 62.6144 238.526 62.4753 238.438Z" fill="#3C5E67"/>
<path d="M63.2494 240.068C63.38 240.19 63.5324 240.287 63.6987 240.354C63.8727 240.436 64.0539 240.501 64.24 240.548C64.3527 240.583 64.4689 240.605 64.5865 240.613C64.6597 240.616 64.7312 240.591 64.7868 240.543C64.8143 240.514 64.833 240.478 64.8406 240.439C64.8483 240.399 64.8446 240.359 64.8301 240.322C64.7122 240.128 64.5307 239.981 64.3164 239.907C64.1022 239.832 63.8685 239.833 63.6554 239.911C63.5286 239.958 63.4126 240.029 63.3143 240.122C63.2494 240.187 63.2223 240.23 63.2277 240.235C63.3615 240.125 63.5135 240.039 63.677 239.981C63.8535 239.928 64.0419 239.928 64.2184 239.981C64.3298 240.004 64.4353 240.049 64.5285 240.114C64.6216 240.179 64.7003 240.263 64.7597 240.359C64.7976 240.457 64.7164 240.521 64.6027 240.521C64.4947 240.514 64.3877 240.496 64.2833 240.467C64.0988 240.423 63.9178 240.366 63.742 240.295C63.428 240.165 63.2548 240.057 63.2494 240.068Z" fill="#3C5E67"/>
<path d="M63.336 240.166C63.336 240.166 63.4767 240.101 63.585 239.885C63.6481 239.76 63.6779 239.62 63.6716 239.48C63.6751 239.389 63.6555 239.299 63.6149 239.218C63.5742 239.137 63.5136 239.067 63.4388 239.016C63.3871 238.996 63.3298 238.998 63.2792 239.02C63.2286 239.042 63.1887 239.083 63.1682 239.134C63.1324 239.212 63.1157 239.297 63.1195 239.383C63.1138 239.521 63.1266 239.659 63.1573 239.793C63.1775 239.918 63.2276 240.037 63.3035 240.139C63.3035 240.139 63.2602 239.998 63.2277 239.777C63.2134 239.648 63.2134 239.517 63.2277 239.388C63.2277 239.253 63.2927 239.053 63.4172 239.107C63.5417 239.161 63.5796 239.35 63.5958 239.485C63.6003 239.612 63.5801 239.739 63.5363 239.858C63.4786 239.966 63.4116 240.069 63.336 240.166Z" fill="#3C5E67"/>
<path d="M56.0443 234.9C56.0443 234.9 56.2554 235.008 56.5478 235.246C56.9315 235.555 57.2219 235.965 57.3868 236.429C57.5459 236.893 57.5721 237.392 57.4626 237.87C57.376 238.243 57.2623 238.448 57.2786 238.459C57.3134 238.416 57.3425 238.369 57.3652 238.319C57.4361 238.183 57.4924 238.04 57.533 237.892C57.6642 237.399 57.6473 236.879 57.4843 236.396C57.3125 235.915 57.004 235.495 56.5965 235.187C56.473 235.096 56.3406 235.018 56.2013 234.954C56.1524 234.928 56.0993 234.909 56.0443 234.9Z" fill="#3C5E67"/>
<path d="M58.6264 232.432C58.2713 232.877 57.9441 233.344 57.6466 233.83C57.3196 234.297 57.0231 234.784 56.7588 235.288C57.1117 234.84 57.4371 234.371 57.7332 233.884C58.0561 233.416 58.3542 232.931 58.6264 232.432Z" fill="#3C5E67"/>
<path d="M58.5831 238.366C58.8666 238.659 59.189 238.911 59.5413 239.117C59.8751 239.353 60.2392 239.544 60.624 239.684C60.624 239.657 60.1584 239.398 59.5954 239.03C59.0324 238.663 58.5994 238.345 58.5831 238.366Z" fill="#3C5E67"/>
<path d="M57.2028 237.497C57.2028 237.497 57.2028 237.616 57.1595 237.751C57.1161 237.886 57.1053 237.994 57.1595 238.01C57.2136 238.026 57.2677 237.918 57.2894 237.767C57.311 237.616 57.2298 237.486 57.2028 237.497Z" fill="#3C5E67"/>
<path d="M57.0945 236.52C57.0945 236.52 57.0945 236.622 57.0945 236.746C57.0945 236.871 57.1594 236.957 57.1865 236.952C57.2136 236.946 57.219 236.844 57.1865 236.725C57.154 236.606 57.1215 236.52 57.0945 236.52Z" fill="#3C5E67"/>
<path d="M56.5369 235.758C56.5369 235.785 56.6235 235.844 56.7047 235.947C56.7859 236.049 56.8238 236.146 56.8508 236.146C56.8779 236.146 56.8833 236.006 56.7805 235.882C56.6776 235.758 56.5477 235.731 56.5369 235.758Z" fill="#3C5E67"/>
<path d="M56.0984 235.289C56.0984 235.289 56.0984 235.365 56.1363 235.424C56.1742 235.484 56.2337 235.516 56.2554 235.5C56.277 235.484 56.2554 235.424 56.2175 235.365C56.1796 235.306 56.12 235.268 56.0984 235.289Z" fill="#3C5E67"/>
<path d="M95.0852 153.733C95.0852 153.733 102.123 200.524 101.116 202.781C100.109 205.038 67.1254 241.202 67.1254 241.202L54.9833 233.172C54.9833 233.172 83.7714 196.992 83.5549 196.144C83.3383 195.296 72.647 149.969 72.647 149.969L95.0852 153.733Z" fill="#FFA800"/>
<path d="M68.6357 149.332L68.208 151.065C66.957 156.183 67.7326 161.586 70.3734 166.148L89.5041 199.26C90.8637 201.604 91.8533 204.143 92.4381 206.788L101.099 245.02H114.432C114.432 245.814 110.984 213.522 109.252 202.797C107.953 194.697 97.099 169.604 91.8427 157.745L95.0907 153.749L89.4283 152.82L68.6357 149.332Z" fill="#FFA800"/>
<path d="M92.2432 157.643C92.3623 157.81 92.4605 157.991 92.5355 158.183C92.7087 158.528 92.9469 159.036 93.2338 159.668C93.8076 160.926 94.5601 162.686 95.3288 164.652C96.0975 166.617 96.7308 168.432 97.1639 169.739C97.375 170.397 97.5428 170.932 97.6511 171.305C97.7204 171.495 97.7676 171.692 97.7918 171.893C97.687 171.725 97.6051 171.543 97.5482 171.353C97.3912 170.932 97.1964 170.419 96.9744 169.814C96.498 168.518 95.8322 166.731 95.0635 164.765C94.2948 162.8 93.5748 161.034 93.0498 159.754C92.8116 159.16 92.6059 158.674 92.4326 158.237C92.341 158.049 92.2772 157.849 92.2432 157.643Z" fill="#3C5E67"/>
<path d="M93.8131 213.139C93.7728 213.017 93.7438 212.893 93.7265 212.766C93.6778 212.491 93.6128 212.134 93.537 211.686C93.4937 211.448 93.4504 211.189 93.4017 210.908C93.353 210.628 93.2718 210.32 93.196 209.99C93.0498 209.337 92.8983 208.586 92.6547 207.771C92.541 207.361 92.4273 206.934 92.3028 206.491L91.8643 205.114C91.5828 204.164 91.1876 203.176 90.7816 202.123C89.9588 200.038 88.9573 197.803 87.7935 195.481C85.754 191.561 83.5079 187.753 81.0647 184.07C80.139 182.677 79.3866 181.538 78.8398 180.722C78.5908 180.344 78.3959 180.042 78.2389 179.81C78.1647 179.706 78.0995 179.596 78.0441 179.48C78.1358 179.57 78.2175 179.67 78.2877 179.777L78.9319 180.658C79.4732 181.43 80.2798 182.553 81.2325 183.962C83.7269 187.621 86.0009 191.424 88.0425 195.351C89.2118 197.668 90.2078 199.93 91.0252 202.025C91.3988 203.105 91.7885 204.083 92.0646 205.044L92.4868 206.426C92.6005 206.88 92.7142 207.307 92.8225 207.722C93.0498 208.543 93.1852 209.299 93.3205 209.958C93.3855 210.289 93.445 210.597 93.4991 210.881C93.5424 211.168 93.5749 211.421 93.6128 211.664C93.6669 212.113 93.7157 212.474 93.7536 212.744C93.7876 212.873 93.8076 213.006 93.8131 213.139Z" fill="#3C5E67"/>
<path d="M68.9118 239.268C68.7249 239.228 68.5433 239.166 68.3704 239.085C67.8762 238.891 67.3936 238.669 66.9251 238.42C65.3851 237.582 63.9119 236.627 62.5186 235.564C60.8946 234.343 59.4005 233.231 58.2854 232.497C57.1702 231.762 56.4503 231.352 56.4719 231.309C56.6613 231.366 56.843 231.446 57.0132 231.546C57.3543 231.708 57.8252 231.978 58.3991 232.329C59.5521 233.026 61.057 234.117 62.6918 235.337C64.0747 236.392 65.521 237.363 67.0225 238.242C68.1647 238.901 68.928 239.22 68.9118 239.268Z" fill="#3C5E67"/>
<path d="M114.384 243C114.204 243.021 114.022 243.021 113.842 243H112.332L107.368 242.962L102.399 242.989H100.888C100.707 242.998 100.526 242.987 100.347 242.956C100.523 242.904 100.705 242.877 100.888 242.875C101.246 242.848 101.76 242.811 102.399 242.784C103.665 242.719 105.43 242.665 107.373 242.67C109.317 242.676 111.076 242.724 112.348 242.794C112.982 242.827 113.496 242.859 113.853 242.892C114.034 242.903 114.213 242.939 114.384 243Z" fill="#3C5E67"/>
<path d="M77.4106 101.569C76.2383 101.727 75.0451 101.539 73.9786 101.029C73.4506 100.771 73.0033 100.374 72.6855 99.8813C72.3677 99.3881 72.1915 98.8175 72.176 98.2315C72.176 97.5457 72.4953 96.8707 72.3817 96.1957C72.268 95.5207 71.7645 94.9807 71.4397 94.3759C71.0538 93.6037 70.9443 92.723 71.1294 91.8802C71.3146 91.0374 71.7832 90.2831 72.4574 89.7427C73.1666 89.2027 74.0814 88.9219 74.6661 88.2577C75.3698 87.4747 75.4835 86.3407 75.9111 85.3795C76.2288 84.6871 76.7116 84.0829 77.3175 83.6198C77.9233 83.1566 78.6337 82.8486 79.3865 82.7227C80.2202 82.5931 81.0863 82.6849 81.8821 82.4203C82.5393 82.1369 83.1593 81.7742 83.728 81.3403C85.6113 80.1258 87.8973 79.6973 90.0941 80.1469C91.0566 80.3164 91.9506 80.7567 92.6708 81.4159C93.4449 82.1827 94.441 83.0359 94.7225 84.0619C95.0527 85.3039 94.6467 86.8591 94.3165 88.0957C93.9863 89.3323 92.9848 90.4663 91.7073 90.6175" fill="#3C5E67"/>
<path d="M77.1454 111.12L87.3116 111.261C87.4849 110.094 87.853 105.537 87.853 105.537C87.853 105.537 92.1133 105.283 92.5571 101.098C93.001 96.9128 93.1851 87.236 93.1851 87.236C90.8959 85.9874 88.314 85.3716 85.7062 85.4523C83.0985 85.533 80.5597 86.3073 78.3526 87.695L77.6867 88.1162L77.1454 111.12Z" fill="#FFBE9D"/>
<path d="M88.167 98.3717C88.4785 98.2846 88.802 98.2481 89.1252 98.2637C89.2767 98.2637 89.3958 98.2367 89.4175 98.1557C89.433 98.0063 89.4088 97.8554 89.3471 97.7183L89.0007 96.5033C88.6643 95.4703 88.4304 94.4068 88.3023 93.3281C88.7432 94.3216 89.0841 95.3563 89.32 96.4169C89.4337 96.8381 89.5366 97.2377 89.6394 97.6373C89.7139 97.8414 89.7139 98.0651 89.6394 98.2691C89.6121 98.3252 89.5719 98.374 89.522 98.4115C89.4721 98.4491 89.414 98.4743 89.3525 98.4851C89.2664 98.4981 89.1788 98.4981 89.0927 98.4851C88.7799 98.501 88.4667 98.4627 88.167 98.3717Z" fill="#3C5E67"/>
<path d="M87.8422 105.479C85.9006 105.334 84.0462 104.616 82.5155 103.416C82.5155 103.416 83.5278 106.548 87.7502 106.564L87.8422 105.479Z" fill="#EB996E"/>
<path d="M77.7192 92.5179C77.6326 92.4801 74.8447 92.0265 75.0125 95.3367C75.1803 98.6469 78.4662 97.3941 78.4716 97.2969C78.4771 97.1997 77.7192 92.5179 77.7192 92.5179Z" fill="#FFBE9D"/>
<path d="M77.4107 96.1852C77.4107 96.1852 77.3512 96.2284 77.2591 96.277C77.124 96.3418 76.9694 96.3533 76.8261 96.3094C76.606 96.1833 76.4231 96.0016 76.2958 95.7826C76.1685 95.5637 76.1012 95.3151 76.1007 95.062C76.079 94.7772 76.1215 94.4912 76.2252 94.225C76.252 94.1212 76.3033 94.0254 76.3749 93.9455C76.4465 93.8656 76.5362 93.8041 76.6366 93.766C76.7025 93.746 76.7733 93.749 76.8373 93.7746C76.9012 93.8001 76.9545 93.8466 76.9885 93.9064C77.0372 93.9982 76.9885 94.063 77.0372 94.0684C77.0859 94.0738 77.1022 94.009 77.0697 93.874C77.0474 93.7931 76.9976 93.7225 76.9289 93.6742C76.8836 93.6407 76.8318 93.6172 76.7767 93.6051C76.7217 93.593 76.6647 93.5926 76.6095 93.604C76.4741 93.6356 76.3493 93.7021 76.2477 93.7969C76.1461 93.8916 76.0711 94.0113 76.0303 94.144C75.9018 94.4377 75.8479 94.7586 75.8733 95.0782C75.8694 95.3735 75.9538 95.6633 76.1158 95.9105C76.2778 96.1577 76.51 96.3511 76.7828 96.466C76.8756 96.4908 76.973 96.4935 77.067 96.4738C77.1611 96.4541 77.2491 96.4125 77.3241 96.3526C77.4107 96.2662 77.4107 96.1906 77.4107 96.1852Z" fill="#EB996E"/>
<path d="M84.3993 92.4378C84.3506 92.3784 84.4318 92.2218 84.6483 92.0544C84.9364 91.8506 85.2757 91.7309 85.6281 91.7088C85.9805 91.6812 86.3335 91.7543 86.6458 91.9194C86.884 92.0544 86.9814 92.2002 86.9436 92.2596C86.8624 92.4 86.3264 92.2164 85.666 92.2596C85.0056 92.3028 84.4967 92.562 84.3993 92.4378Z" fill="#3C5E67"/>
<path d="M90.2836 92.4698C90.2511 92.324 90.7059 92.108 91.3013 92.1134C91.8968 92.1188 92.3515 92.3294 92.3244 92.4806C92.2974 92.6318 91.8427 92.675 91.3013 92.675C90.76 92.675 90.3107 92.6264 90.2836 92.4698Z" fill="#3C5E67"/>
<path d="M76.6637 89.1329C76.8261 90.1481 76.9849 91.1651 77.1401 92.1839C77.1671 92.6691 77.3345 93.1361 77.6219 93.5285C78.1632 94.1279 79.1484 94.0685 79.8413 93.6743C80.8536 93.0857 81.4112 91.9571 81.8388 90.8663C82.2665 89.7755 82.6454 88.6253 83.4628 87.7937C84.0505 88.4077 84.8176 88.8207 85.6546 88.974C86.4917 89.1272 87.3558 89.0127 88.1237 88.6469C88.8004 88.3121 89.3634 87.7829 90.013 87.3941C90.3233 87.1751 90.68 87.0301 91.0554 86.9701C91.4308 86.9102 91.8149 86.937 92.1783 87.0485C92.5627 87.2105 92.9091 87.5237 93.3205 87.5021C93.4783 87.4888 93.63 87.435 93.7608 87.3461C93.8917 87.2572 93.9973 87.1361 94.0676 86.9945C94.2025 86.7066 94.2496 86.3855 94.2029 86.0711C94.0676 84.9047 93.1202 83.9759 92.0376 83.4575C90.5272 82.7177 88.7896 82.6151 87.1006 82.6097C85.4991 82.5625 83.8981 82.7204 82.3369 83.0795C80.7691 83.4476 79.3431 84.264 78.2336 85.4285C77.6869 86.0156 77.2803 86.7183 77.0441 87.4841C76.8079 88.2499 76.7482 89.0591 76.8694 89.8511" fill="#3C5E67"/>
<path d="M89.8993 85.7835C90.1208 86.8583 90.6916 87.8302 91.5233 88.5483C91.8982 88.921 92.397 89.1439 92.9253 89.1747C93.3497 89.1243 93.7405 88.9196 94.0231 88.5998C94.3057 88.2801 94.4603 87.8676 94.4573 87.4413C94.4194 86.582 94.0487 85.7709 93.4234 85.1787C92.8893 84.5479 92.1303 84.149 91.3068 84.0663C90.8984 84.0468 90.4977 84.1816 90.1846 84.4439C89.8715 84.7061 89.6691 85.0765 89.6178 85.4811" fill="#3C5E67"/>
<path d="M84.9894 94.0026C84.9894 94.1458 85.0464 94.2832 85.1479 94.3844C85.2495 94.4857 85.3871 94.5426 85.5307 94.5426C85.5989 94.547 85.6672 94.5376 85.7317 94.5151C85.7961 94.4926 85.8554 94.4573 85.9059 94.4115C85.9564 94.3656 85.9972 94.3101 86.0257 94.2482C86.0542 94.1863 86.07 94.1193 86.072 94.0512C86.072 93.908 86.015 93.7706 85.9135 93.6694C85.812 93.5681 85.6743 93.5112 85.5307 93.5112C85.4624 93.506 85.3937 93.5149 85.3289 93.5371C85.2641 93.5593 85.2046 93.5945 85.1539 93.6405C85.1032 93.6865 85.0625 93.7424 85.0342 93.8046C85.0059 93.8669 84.9907 93.9343 84.9894 94.0026Z" fill="#3C5E67"/>
<path d="M84.1341 93.4198C84.2045 93.49 84.5996 93.1821 85.1735 93.1713C85.7473 93.1605 86.1695 93.4414 86.2291 93.3658C86.2886 93.2902 86.1912 93.2146 86.0017 93.085C85.7533 92.9202 85.4603 92.8354 85.1621 92.8422C84.8639 92.8489 84.575 92.9469 84.3344 93.1228C84.1612 93.2686 84.1016 93.4198 84.1341 93.4198Z" fill="#3C5E67"/>
<path d="M90.8683 93.9875C90.8683 94.1307 90.9253 94.2681 91.0268 94.3693C91.1284 94.4706 91.266 94.5275 91.4096 94.5275C91.4779 94.5327 91.5466 94.5238 91.6114 94.5016C91.6762 94.4794 91.7358 94.4442 91.7864 94.3982C91.8371 94.3522 91.8778 94.2963 91.9061 94.2341C91.9344 94.1718 91.9497 94.1044 91.951 94.0361C91.951 93.8929 91.8939 93.7555 91.7924 93.6543C91.6909 93.553 91.5532 93.4961 91.4096 93.4961C91.2741 93.4955 91.1433 93.5457 91.0431 93.6367C90.9429 93.7277 90.8805 93.8529 90.8683 93.9875Z" fill="#3C5E67"/>
<path d="M90.1104 93.5121C90.1754 93.5823 90.576 93.2745 91.1498 93.2637C91.7236 93.2529 92.1458 93.5337 92.2325 93.4635C92.3191 93.3933 92.1946 93.3069 92.0051 93.1773C91.7559 93.0113 91.4614 92.9263 91.1619 92.9341C90.8623 92.9418 90.5726 93.0419 90.3324 93.2205C90.1375 93.3555 90.0779 93.4851 90.1104 93.5121Z" fill="#3C5E67"/>
<path d="M88.0316 100.068C88.0316 100.106 87.8909 100.171 87.631 100.154C87.2928 100.129 86.9761 99.9792 86.7432 99.7332C86.5078 99.4881 86.371 99.1652 86.3589 98.826C86.3589 98.5722 86.4293 98.4264 86.4617 98.4318C86.4942 98.4372 86.4617 99.0528 86.9435 99.5388C87.4253 100.025 88.037 99.9924 88.0316 100.068Z" fill="#3C5E67"/>
<path d="M89.9479 121.7L98.3981 118.881C98.3981 118.881 104.277 132.764 105.793 132.921C114.178 133.682 123.153 130.912 126.298 129.816C126.618 129.454 126.986 129.027 127.381 128.498C127.727 128.046 127.995 127.538 128.171 126.997C128.413 126.331 128.565 125.635 128.621 124.929C128.603 124.791 128.629 124.652 128.696 124.53C128.762 124.408 128.865 124.311 128.991 124.251C129.116 124.191 129.257 124.172 129.394 124.197C129.531 124.222 129.656 124.289 129.752 124.389C130.115 124.859 130.207 126.651 129.379 128.579C128.55 130.507 131.479 128.973 132.556 128.433C133.634 127.893 137.049 126.381 137.477 126.581C138.105 126.873 137.91 127.596 136.822 128.109C135.734 128.622 132.572 130.399 132.886 130.95C133.2 131.501 138.646 128.676 138.646 128.676C138.646 128.676 139.729 127.883 140.097 128.509C140.79 129.643 134.77 132.219 134.196 132.451C133.79 132.613 134.11 133.229 134.532 133.029C134.954 132.829 139.902 130.086 140.617 131.236C141.158 132.116 135.691 133.396 134.987 134.535C134.283 135.675 139.036 133.142 139.529 133.995C139.707 134.319 139.799 134.584 136.854 135.615C134.699 136.291 132.509 136.849 130.293 137.289C130.293 137.289 99.9788 150.822 94.5655 137.765C89.006 124.524 89.9479 121.7 89.9479 121.7Z" fill="#EB996E"/>
<path d="M101.229 123.455C97.846 115.555 93.4179 112.461 91.0793 111.316C90.26 110.919 89.3689 110.692 88.4593 110.646L88.1778 109.286L76.9722 108.281L76.6961 110.009L75.0721 109.917C75.0721 109.917 65.4147 110.884 65.3931 122.046C65.3931 127.268 68.2134 132.349 69.2095 134.838C69.832 140.044 67.5855 149.489 67.6558 151.789L95.1177 153.733L96.2437 136.62L95.9892 135L105.029 132.236L101.229 123.455Z" fill="#EBEBEB"/>
<path d="M162.032 85.677C158.068 80.7798 152.738 77.1647 146.715 75.2887C140.692 73.4126 134.246 73.3598 128.193 75.1369C122.14 76.9141 116.751 80.4413 112.707 85.273C108.663 90.1046 106.146 96.0236 105.473 102.282C104.931 107.37 105.627 112.514 107.502 117.276C109.377 122.038 112.377 126.279 116.246 129.638L88.3186 162.335L92.3245 165.743L120.474 132.77C124.516 135.26 129.067 136.812 133.791 137.312C134.938 137.435 136.091 137.496 137.244 137.495C143.26 137.475 149.147 135.761 154.229 132.55C159.311 129.339 163.38 124.761 165.969 119.344C168.557 113.928 169.56 107.892 168.86 101.932C168.161 95.9715 165.788 90.3296 162.016 85.6554L162.032 85.677ZM163.688 108.487C163.033 114.598 160.273 120.294 155.88 124.603C151.486 128.913 145.73 131.569 139.594 132.12C133.457 132.671 127.318 131.083 122.224 127.625C117.129 124.168 113.395 119.055 111.655 113.158C109.916 107.262 110.28 100.946 112.686 95.2873C115.092 89.6285 119.39 84.9768 124.848 82.1248C130.306 79.2727 136.587 78.3967 142.62 79.6461C148.653 80.8954 154.065 84.1928 157.934 88.9764C160.139 91.6875 161.782 94.8077 162.77 98.1566C163.758 101.506 164.07 105.017 163.688 108.487Z" fill="#3C5E67"/>
<path d="M159.785 83.4352C155.823 78.5354 150.493 74.918 144.469 73.0404C138.445 71.1627 131.998 71.1093 125.944 72.8867C119.89 74.6642 114.5 78.1927 110.457 83.026C106.413 87.8593 103.897 93.7803 103.227 100.04C102.683 105.128 103.379 110.272 105.254 115.035C107.13 119.797 110.13 124.038 113.999 127.397L85.731 160.337L90.0129 163.755L118.243 130.507C122.286 132.994 126.837 134.546 131.56 135.048C132.708 135.169 133.86 135.23 135.014 135.232C141.03 135.212 146.917 133.498 151.999 130.287C157.081 127.075 161.15 122.498 163.739 117.081C166.327 111.664 167.329 105.628 166.63 99.6681C165.93 93.708 163.558 88.0661 159.785 83.392V83.4352ZM161.442 106.245C160.787 112.359 158.027 118.058 153.632 122.37C149.237 126.682 143.479 129.341 137.339 129.892C131.199 130.444 125.058 128.855 119.961 125.396C114.864 121.937 111.127 116.822 109.387 110.923C107.647 105.023 108.012 98.7048 110.419 93.0434C112.826 87.3821 117.126 82.7285 122.587 79.8756C128.048 77.0226 134.332 76.1469 140.367 77.3976C146.403 78.6483 151.817 81.9481 155.687 86.7346C157.891 89.4461 159.535 92.5664 160.522 95.9152C161.51 99.2639 161.822 102.775 161.442 106.245Z" fill="#FFA800"/>
<path d="M120.474 120.663C120.394 120.595 120.323 120.517 120.263 120.431C120.133 120.269 119.932 120.037 119.721 119.718C119.063 118.828 118.468 117.894 117.94 116.921C116.177 113.707 115.105 110.162 114.795 106.511C114.484 102.86 114.942 99.1849 116.138 95.7207C116.491 94.6752 116.918 93.6557 117.415 92.6697C117.583 92.3133 117.74 92.0541 117.843 91.8759C117.885 91.7795 117.941 91.6902 118.011 91.6113C117.98 91.7118 117.94 91.8094 117.892 91.9029C117.81 92.0919 117.67 92.3565 117.513 92.7129C117.058 93.714 116.661 94.7398 116.322 95.7855C115.189 99.2365 114.765 102.88 115.073 106.498C115.382 110.116 116.418 113.635 118.119 116.846C118.626 117.819 119.19 118.762 119.808 119.67C120.019 119.999 120.203 120.21 120.317 120.41C120.377 120.489 120.43 120.574 120.474 120.663Z" fill="#3C5E67"/>
<path d="M121.8 87.9816C121.849 88.0464 121.524 88.3488 121.199 88.7754C120.874 89.202 120.658 89.5854 120.582 89.5584C120.506 89.5314 120.615 89.0616 120.972 88.6026C121.329 88.1436 121.762 87.9168 121.8 87.9816Z" fill="#3C5E67"/>
<path d="M93.7373 117.488C93.8244 117.73 93.8896 117.98 93.9322 118.233C94.0405 118.714 94.1812 119.416 94.349 120.291C94.6738 122.03 95.069 124.449 95.4317 127.133C95.7944 129.816 95.973 132.257 96.0759 134.023C96.13 134.909 96.1625 135.643 96.1733 136.118C96.199 136.375 96.199 136.634 96.1733 136.89C96.118 136.64 96.0854 136.385 96.0759 136.129C96.0271 135.589 95.9622 134.882 95.8864 134.039C95.7294 132.279 95.4912 129.843 95.161 127.165C94.8308 124.487 94.4627 122.073 94.1866 120.323C94.0567 119.492 93.9484 118.795 93.8618 118.25C93.7931 118.001 93.7514 117.746 93.7373 117.488Z" fill="#3C5E67"/>
<path d="M108.673 144.013C108.673 144.013 78.358 157.573 72.9447 144.515C67.3906 131.215 68.3325 128.391 68.3325 128.391L76.7827 125.572C76.7827 125.572 82.667 139.456 84.1773 139.612C92.568 140.379 101.543 137.603 104.688 136.507C105.008 136.151 105.371 135.719 105.771 135.195C106.172 134.671 106.486 134.115 106.854 133.645C107.655 132.646 108.288 132.479 108.64 132.085C109.474 131.14 110.264 131.831 109.874 132.338C109.485 132.846 108.613 133.364 107.785 135.298C106.957 137.231 109.907 136.275 111.076 135.973C112.365 135.632 114.784 134.693 114.784 134.693C114.844 135.26 114.2 136.399 113.112 136.912C112.522 137.199 111.917 137.451 111.298 137.668C111.298 137.668 113.534 137.393 113.593 137.906C113.653 138.419 112.933 142.177 110.551 143.306L108.673 144.013Z" fill="#FFBE9D"/>
<path d="M74.7961 113.475L80.2419 129.874L68.3326 134.572C68.3326 134.572 62.1181 118.464 69.989 114.522L74.7961 113.475Z" fill="#EBEBEB"/>
<path d="M81.0322 129.237C81.0322 129.237 80.9672 129.194 80.8698 129.086C80.7348 128.917 80.6153 128.736 80.5125 128.546C80.1811 127.844 79.8936 127.123 79.6518 126.386C78.986 124.55 78.0819 122.001 77.1021 119.188L75.7325 115.213C75.3103 113.993 74.9801 112.859 74.3576 112.13C74.1257 111.834 73.8303 111.593 73.493 111.426C73.1558 111.259 72.7853 111.169 72.4088 111.163C72.1307 111.181 71.8578 111.247 71.6022 111.358C71.6022 111.358 71.6563 111.298 71.7862 111.228C71.9775 111.128 72.1878 111.069 72.4033 111.055C72.804 111.037 73.2033 111.113 73.5691 111.278C73.9349 111.442 74.2569 111.689 74.5091 112C75.1912 112.762 75.5431 113.923 75.9761 115.127C76.4092 116.331 76.8748 117.687 77.3674 119.096C78.3526 121.909 79.2241 124.496 79.8413 126.321C80.1552 127.25 80.3826 128.011 80.61 128.481C80.8373 128.951 81.0539 129.221 81.0322 129.237Z" fill="#3C5E67"/>
<path d="M80.7778 129.545C80.6409 129.658 80.4898 129.752 80.3285 129.826C80.0307 129.993 79.5923 130.22 79.0455 130.49C77.9629 131.03 76.4201 131.732 74.7149 132.429C73.0097 133.125 71.3911 133.681 70.2272 134.049C69.648 134.232 69.1445 134.373 68.8414 134.459C68.667 134.521 68.4849 134.56 68.3 134.572C68.8967 134.295 69.5116 134.059 70.1406 133.865C71.2882 133.449 72.8472 132.866 74.5849 132.175C76.3226 131.484 77.8329 130.809 78.9589 130.312C79.5487 130.019 80.1562 129.763 80.7778 129.545Z" fill="#3C5E67"/>
<path d="M70.2813 133.968C69.7893 133.232 69.4607 132.4 69.3177 131.527C69.6023 131.87 69.8108 132.27 69.9295 132.699C70.1386 133.091 70.2587 133.525 70.2813 133.968Z" fill="#3C5E67"/>
<path d="M72.7985 133.003C72.7282 133.041 72.4034 132.565 72.1652 131.923C71.977 131.534 71.902 131.1 71.9487 130.67C72.1699 131.029 72.3326 131.421 72.4304 131.831C72.6108 132.201 72.7348 132.596 72.7985 133.003Z" fill="#3C5E67"/>
<path d="M75.4348 131.862C75.1061 131.557 74.8714 131.166 74.7581 130.733C74.5606 130.329 74.4817 129.878 74.5308 129.432C74.7499 129.807 74.9157 130.21 75.0234 130.63C75.216 131.02 75.3544 131.435 75.4348 131.862Z" fill="#3C5E67"/>
<path d="M78.2552 130.729C77.9942 130.351 77.8103 129.925 77.7138 129.476C77.534 129.054 77.4402 128.601 77.4377 128.143C77.7046 128.516 77.8891 128.941 77.9791 129.39C78.164 129.812 78.258 130.268 78.2552 130.729Z" fill="#3C5E67"/>
<path d="M105.246 132.062C103.751 132.693 102.22 133.234 100.661 133.683C99.1306 134.217 97.5708 134.664 95.9893 135.022C97.485 134.394 99.0159 133.853 100.574 133.402C102.104 132.865 103.664 132.418 105.246 132.062Z" fill="#3C5E67"/>
<path d="M97.9814 133.968C97.9056 134.001 97.6674 133.601 97.44 133.083C97.2127 132.564 97.099 132.116 97.1694 132.084C97.2398 132.051 97.4779 132.451 97.7107 132.975C97.9435 133.499 98.0626 133.92 97.9814 133.968Z" fill="#3C5E67"/>
<path d="M100.32 133.445C100.25 133.445 99.9952 133.002 99.8219 132.365C99.6732 131.991 99.6319 131.583 99.7028 131.188C99.784 131.188 99.9248 131.679 100.093 132.268C100.244 132.641 100.321 133.041 100.32 133.445Z" fill="#3C5E67"/>
<path d="M102.853 132.645C102.515 131.923 102.353 131.131 102.382 130.334C102.591 130.677 102.719 131.063 102.756 131.463C102.879 131.844 102.913 132.249 102.853 132.645Z" fill="#3C5E67"/>
<path d="M78.0711 109.857C77.9899 109.857 77.952 109.554 77.9737 109.187C77.9953 108.82 78.0873 108.534 78.1631 108.539C78.2389 108.545 78.2822 108.847 78.2552 109.209C78.2281 109.571 78.1469 109.862 78.0711 109.857Z" fill="#3C5E67"/>
<path d="M80.5396 110.003C80.4584 110.003 80.388 109.712 80.3718 109.35C80.3555 108.988 80.4097 108.686 80.4855 108.686C80.5612 108.686 80.637 108.972 80.6533 109.339C80.6695 109.706 80.6154 109.998 80.5396 110.003Z" fill="#3C5E67"/>
<path d="M82.445 110.333C82.3692 110.333 82.3097 110.025 82.3097 109.647C82.3097 109.269 82.3801 108.967 82.4559 108.967C82.5316 108.967 82.5966 109.275 82.5912 109.647C82.5858 110.02 82.5262 110.333 82.445 110.333Z" fill="#3C5E67"/>
<path d="M85.0218 110.613C84.9514 110.613 84.7944 110.283 84.7836 109.819C84.7728 109.354 84.9027 108.998 84.9731 109.014C85.0434 109.03 85.0489 109.381 85.0651 109.808C85.0813 110.235 85.103 110.591 85.0218 110.613Z" fill="#3C5E67"/>
<path d="M87.1547 110.614C87.0735 110.614 86.9707 110.274 86.9165 109.831C86.8624 109.388 86.8841 109.021 86.9599 109.016C87.0356 109.01 87.1439 109.356 87.198 109.799C87.2522 110.241 87.2251 110.603 87.1547 110.614Z" fill="#3C5E67"/>
</svg>
