<svg width="162" height="110" viewBox="0 0 162 110" fill="none" xmlns="http://www.w3.org/2000/svg">
<path d="M99.5989 31.1367H66.9676C65.8613 31.1381 64.8008 31.5781 64.0185 32.3603C63.2363 33.1426 62.7963 34.2031 62.7949 35.3094V73.6235C62.7963 74.7297 63.2363 75.7903 64.0185 76.5725C64.8008 77.3547 65.8613 77.7948 66.9676 77.7961H99.5976C100.704 77.7948 101.765 77.3548 102.547 76.5725C103.329 75.7902 103.769 74.7295 103.771 73.6232V35.3094C103.769 34.2033 103.329 33.1429 102.547 32.3607C101.765 31.5785 100.705 31.1383 99.5989 31.1367Z" fill="#1A1A1A"/>
<path d="M99.6001 32.3379H66.9695C66.1817 32.3388 65.4265 32.6522 64.8694 33.2093C64.3124 33.7663 63.999 34.5216 63.998 35.3094V73.6232C63.9989 74.411 64.3123 75.1663 64.8693 75.7234C65.4264 76.2805 66.1817 76.5938 66.9695 76.5947H99.6001C100.388 76.5934 101.143 76.2799 101.699 75.7229C102.256 75.1658 102.569 74.4108 102.57 73.6232V35.3094C102.569 34.5218 102.256 33.7668 101.699 33.2098C101.142 32.6528 100.388 32.3392 99.6001 32.3379Z" fill="white"/>
<path d="M103.025 82.4587C107.232 82.4587 110.642 79.0484 110.642 74.8416C110.642 70.6349 107.232 67.2246 103.025 67.2246C98.8185 67.2246 95.4082 70.6349 95.4082 74.8416C95.4082 79.0484 98.8185 82.4587 103.025 82.4587Z" fill="#FFA800"/>
<path d="M106.668 73.8479H104.019V71.1989C104.019 70.9353 103.915 70.6825 103.728 70.4962C103.542 70.3098 103.289 70.2051 103.026 70.2051C102.762 70.2051 102.509 70.3098 102.323 70.4962C102.137 70.6825 102.032 70.9353 102.032 71.1989V73.8482H99.3827C99.2509 73.8461 99.12 73.8702 98.9976 73.9192C98.8752 73.9682 98.7637 74.0411 98.6698 74.1336C98.5758 74.226 98.5012 74.3363 98.4502 74.4579C98.3993 74.5795 98.373 74.71 98.373 74.8419C98.373 74.9737 98.3993 75.1042 98.4502 75.2258C98.5012 75.3474 98.5758 75.4577 98.6698 75.5502C98.7637 75.6427 98.8752 75.7155 98.9976 75.7645C99.12 75.8135 99.2509 75.8376 99.3827 75.8355H102.032V78.4849C102.032 78.7484 102.137 79.0012 102.323 79.1876C102.51 79.374 102.762 79.4787 103.026 79.4787C103.289 79.4787 103.542 79.374 103.729 79.1876C103.915 79.0012 104.02 78.7484 104.02 78.4849V75.8363H106.669C106.932 75.8363 107.185 75.7316 107.371 75.5452C107.558 75.3588 107.663 75.1061 107.663 74.8425C107.663 74.5789 107.558 74.3262 107.371 74.1398C107.185 73.9534 106.932 73.8487 106.669 73.8487L106.668 73.8479Z" fill="white"/>
<path d="M94.688 53.3928H78.1882C78.0959 53.3946 78.0042 53.3779 77.9184 53.3438C77.8326 53.3097 77.7545 53.2588 77.6886 53.1942C77.6227 53.1295 77.5704 53.0524 77.5346 52.9673C77.4989 52.8821 77.4805 52.7907 77.4805 52.6984C77.4805 52.6061 77.4989 52.5147 77.5346 52.4296C77.5704 52.3445 77.6227 52.2673 77.6886 52.2027C77.7545 52.138 77.8326 52.0871 77.9184 52.053C78.0042 52.0189 78.0959 52.0023 78.1882 52.004H94.688C94.8698 52.0075 95.0431 52.0822 95.1704 52.212C95.2978 52.3419 95.3692 52.5165 95.3692 52.6984C95.3692 52.8803 95.2978 53.055 95.1704 53.1848C95.0431 53.3146 94.8698 53.3893 94.688 53.3928Z" fill="#D6D6E3"/>
<path d="M97.5544 55.7366H78.1863C78.094 55.7383 78.0023 55.7217 77.9165 55.6876C77.8307 55.6535 77.7526 55.6026 77.6867 55.5379C77.6207 55.4733 77.5684 55.3961 77.5327 55.311C77.4969 55.2259 77.4785 55.1345 77.4785 55.0422C77.4785 54.9498 77.4969 54.8585 77.5327 54.7733C77.5684 54.6882 77.6207 54.6111 77.6867 54.5464C77.7526 54.4818 77.8307 54.4309 77.9165 54.3968C78.0023 54.3627 78.094 54.346 78.1863 54.3478H97.5544C97.7363 54.3513 97.9095 54.426 98.0369 54.5558C98.1643 54.6856 98.2356 54.8603 98.2356 55.0422C98.2356 55.2241 98.1643 55.3987 98.0369 55.5285C97.9095 55.6584 97.7363 55.7331 97.5544 55.7366Z" fill="#D6D6E3"/>
<path d="M94.688 63.9006H78.1882C78.0959 63.9024 78.0042 63.8857 77.9184 63.8516C77.8326 63.8175 77.7545 63.7666 77.6886 63.702C77.6227 63.6373 77.5703 63.5602 77.5346 63.4751C77.4989 63.3899 77.4805 63.2985 77.4805 63.2062C77.4805 63.1139 77.4989 63.0225 77.5346 62.9374C77.5703 62.8523 77.6227 62.7751 77.6886 62.7105C77.7545 62.6458 77.8326 62.5949 77.9184 62.5608C78.0042 62.5267 78.0959 62.5101 78.1882 62.5118H94.688C94.8698 62.5153 95.0431 62.59 95.1704 62.7198C95.2978 62.8497 95.3692 63.0243 95.3692 63.2062C95.3692 63.3881 95.2978 63.5628 95.1704 63.6926C95.0431 63.8224 94.8698 63.8971 94.688 63.9006Z" fill="#D6D6E3"/>
<path d="M97.5544 66.2483H78.1863C78.094 66.25 78.0023 66.2334 77.9165 66.1993C77.8307 66.1652 77.7526 66.1143 77.6867 66.0496C77.6207 65.985 77.5684 65.9078 77.5327 65.8227C77.4969 65.7376 77.4785 65.6462 77.4785 65.5539C77.4785 65.4616 77.4969 65.3702 77.5327 65.285C77.5684 65.1999 77.6207 65.1228 77.6867 65.0581C77.7526 64.9935 77.8307 64.9426 77.9165 64.9085C78.0023 64.8744 78.094 64.8577 78.1863 64.8595H97.5544C97.7363 64.863 97.9095 64.9377 98.0369 65.0675C98.1643 65.1973 98.2356 65.372 98.2356 65.5539C98.2356 65.7358 98.1643 65.9104 98.0369 66.0403C97.9095 66.1701 97.7363 66.2448 97.5544 66.2483Z" fill="#D6D6E3"/>
<path d="M74.49 56.802H68.6517C68.5633 56.802 68.4785 56.7669 68.416 56.7044C68.3535 56.6419 68.3184 56.5571 68.3184 56.4687V51.2708C68.3184 51.1824 68.3535 51.0976 68.416 51.0351C68.4785 50.9726 68.5633 50.9375 68.6517 50.9375H74.49C74.5784 50.9375 74.6632 50.9726 74.7257 51.0351C74.7882 51.0976 74.8233 51.1824 74.8233 51.2708V56.469C74.8232 56.5573 74.7881 56.642 74.7256 56.7045C74.6631 56.7669 74.5784 56.802 74.49 56.802Z" fill="#D6D6E3"/>
<path d="M74.49 67.3111H68.6517C68.5633 67.3111 68.4785 67.276 68.416 67.2135C68.3535 67.151 68.3184 67.0662 68.3184 66.9778V61.7786C68.3184 61.6902 68.3535 61.6054 68.416 61.5429C68.4785 61.4804 68.5633 61.4453 68.6517 61.4453H74.49C74.5784 61.4454 74.6631 61.4805 74.7256 61.543C74.7881 61.6055 74.8232 61.6902 74.8233 61.7786V66.9763C74.8235 67.0202 74.815 67.0637 74.7984 67.1043C74.7817 67.1449 74.7572 67.1818 74.7262 67.2129C74.6953 67.244 74.6585 67.2687 74.6179 67.2856C74.5774 67.3024 74.5339 67.3111 74.49 67.3111Z" fill="#D6D6E3"/>
<path d="M94.7051 41.6916H82.5426C82.3607 41.6882 82.1874 41.6135 82.0601 41.4836C81.9327 41.3538 81.8613 41.1791 81.8613 40.9972C81.8613 40.8153 81.9327 40.6407 82.0601 40.5109C82.1874 40.381 82.3607 40.3063 82.5426 40.3029H94.7082C94.8005 40.3011 94.8922 40.3178 94.978 40.3519C95.0638 40.386 95.1419 40.4368 95.2078 40.5015C95.2737 40.5661 95.3261 40.6433 95.3618 40.7284C95.3976 40.8135 95.416 40.9049 95.416 40.9972C95.416 41.0896 95.3976 41.181 95.3618 41.2661C95.3261 41.3512 95.2737 41.4284 95.2078 41.493C95.1419 41.5577 95.0638 41.6085 94.978 41.6426C94.8922 41.6767 94.8005 41.6934 94.7082 41.6916H94.7051Z" fill="#FFA800"/>
<path d="M97.5718 44.0373H82.5426C82.3607 44.0339 82.1874 43.9592 82.0601 43.8293C81.9327 43.6995 81.8613 43.5248 81.8613 43.3429C81.8613 43.1611 81.9327 42.9864 82.0601 42.8566C82.1874 42.7267 82.3607 42.652 82.5426 42.6486H97.574C97.6663 42.6468 97.7581 42.6635 97.8439 42.6976C97.9297 42.7317 98.0078 42.7825 98.0737 42.8472C98.1396 42.9118 98.1919 42.989 98.2277 43.0741C98.2634 43.1592 98.2818 43.2506 98.2818 43.3429C98.2818 43.4353 98.2634 43.5267 98.2277 43.6118C98.1919 43.6969 98.1396 43.7741 98.0737 43.8387C98.0078 43.9034 97.9297 43.9542 97.8439 43.9883C97.7581 44.0224 97.6663 44.0391 97.574 44.0373H97.5718Z" fill="#FFA800"/>
<path d="M79.8471 46.8791H68.6321C68.5437 46.8791 68.4589 46.844 68.3964 46.7815C68.3339 46.719 68.2988 46.6342 68.2988 46.5458V37.7962C68.2988 37.7078 68.3339 37.623 68.3964 37.5605C68.4589 37.498 68.5437 37.4629 68.6321 37.4629H79.8471C79.9355 37.4629 80.0203 37.498 80.0828 37.5605C80.1453 37.623 80.1804 37.7078 80.1804 37.7962V46.5458C80.1804 46.6342 80.1453 46.719 80.0828 46.7815C80.0203 46.844 79.9355 46.8791 79.8471 46.8791Z" fill="#FFA800"/>
<path d="M91.2605 10.0637C91.2981 10.0637 91.3356 10.067 91.3727 10.0736C92.0695 10.198 92.7609 10.338 93.4468 10.4937L93.462 10.4973L93.5697 10.5227L93.5839 10.526H93.5857L93.5994 10.529H93.6014L93.6148 10.532H93.6176L93.6311 10.5351H93.6326L93.7055 10.5521H93.7095L93.7209 10.5546H93.7258L93.7362 10.5572L93.7423 10.5587L93.7522 10.561L93.7585 10.5625L93.7682 10.5648L93.775 10.5663L93.7842 10.5683L93.7923 10.5704L93.8001 10.5722L93.8095 10.5744L93.822 10.5775L93.8324 10.58L93.8392 10.5815L93.8491 10.5838L93.8552 10.5854L93.8659 10.5879L93.872 10.5894L93.8821 10.5917L93.889 10.5932L93.8991 10.5955L93.9052 10.597L93.9164 10.5996H93.9215L93.9342 10.6026H93.9382L93.9537 10.6064L93.9877 10.6145L94.003 10.6181H94.006L94.0197 10.6214H94.0235L94.0367 10.6247H94.0398L94.0545 10.6283H94.0563L94.1578 10.6536L94.1743 10.6577C94.5625 10.7526 94.9484 10.8524 95.3318 10.957C95.4941 11.0015 95.6321 11.1088 95.7154 11.2551C95.7986 11.4013 95.8204 11.5747 95.7758 11.737C95.7312 11.8993 95.624 12.0373 95.4777 12.1206C95.3314 12.2038 95.1581 12.2256 94.9957 12.181C93.7321 11.8365 92.4365 11.5464 91.1455 11.3146C90.9891 11.2871 90.8488 11.2019 90.7521 11.0759C90.6555 10.9499 90.6096 10.7923 90.6235 10.6341C90.6374 10.476 90.7101 10.3288 90.8272 10.2216C90.9443 10.1144 91.0974 10.055 91.2561 10.0551L91.2605 10.0637ZM98.9785 12.167C99.0535 12.1671 99.1278 12.1804 99.1981 12.2064C100.473 12.6802 101.721 13.2083 102.941 13.7906C103.093 13.8634 103.209 13.9935 103.265 14.1523C103.321 14.3111 103.311 14.4856 103.239 14.6373C103.166 14.789 103.036 14.9057 102.877 14.9615C102.718 15.0173 102.544 15.0077 102.392 14.9349C101.208 14.3704 99.9855 13.8528 98.7574 13.3966C98.6178 13.3449 98.5009 13.2457 98.427 13.1163C98.3532 12.987 98.3271 12.8359 98.3535 12.6893C98.3798 12.5428 98.4569 12.4102 98.5712 12.3147C98.6854 12.2192 98.8296 12.1669 98.9785 12.167ZM106.199 15.6104C106.311 15.6104 106.422 15.6403 106.519 15.6972C106.991 15.9764 107.457 16.2641 107.918 16.5603L107.946 16.5786L107.96 16.5874L107.974 16.5966L108.104 16.6803L108.118 16.6892L108.132 16.6981L108.146 16.7073L108.29 16.8012L108.318 16.8197L108.432 16.8959L108.446 16.9047L108.46 16.9139L108.488 16.9327L108.588 16.9992L108.601 17.0081H108.603L108.616 17.0167L108.629 17.0253L108.642 17.0342L108.756 17.1104L108.769 17.1192L108.771 17.1205L108.783 17.1286L108.785 17.1302L108.797 17.138L108.799 17.1398L108.811 17.1474L108.813 17.1494L108.824 17.1566L108.828 17.1591L108.839 17.167L108.841 17.1682L108.911 17.216H108.913L108.925 17.2243L108.928 17.2261L108.938 17.2335L108.943 17.2363L108.953 17.2431L108.956 17.2454L108.967 17.2528L108.97 17.2548L108.981 17.2624L108.984 17.2644L108.994 17.2715L108.998 17.2741L109.009 17.2814L109.012 17.2835L109.024 17.2916H109.026L109.054 17.3109L109.067 17.32H109.069L109.081 17.3281L109.084 17.3304L109.094 17.3373L109.099 17.3406L109.108 17.3464L109.114 17.3505L109.122 17.3561L109.127 17.3599L109.135 17.3652L109.142 17.3698L109.148 17.3743L109.155 17.3792L109.162 17.3835L109.169 17.3886L109.175 17.3929L109.182 17.398L109.188 17.402L109.196 17.4073L109.198 17.4091L109.234 17.4345L109.235 17.4358L109.247 17.4439H109.248L109.26 17.4518L109.262 17.453L109.273 17.4609L109.275 17.4624L109.286 17.4698L109.289 17.4718L109.299 17.4792L109.301 17.4807L109.313 17.4886H109.314L109.326 17.497C109.521 17.6323 109.716 17.7694 109.908 17.9082C110.045 18.0064 110.137 18.1548 110.164 18.3209C110.192 18.487 110.152 18.6571 110.054 18.7938C109.955 18.9305 109.807 19.0226 109.641 19.0499C109.475 19.0771 109.305 19.0372 109.168 18.939C108.102 18.1737 106.991 17.4475 105.863 16.7814C105.743 16.7105 105.65 16.6023 105.598 16.4732C105.545 16.3442 105.537 16.2016 105.574 16.0674C105.611 15.9331 105.691 15.8147 105.801 15.7303C105.912 15.646 106.047 15.6004 106.187 15.6005L106.199 15.6104ZM112.697 20.2778C112.848 20.2777 112.994 20.3317 113.109 20.4301C113.544 20.8049 113.972 21.1878 114.392 21.5787L114.404 21.5894H114.405L114.416 21.5995L114.418 21.6013L114.429 21.6117L114.441 21.6229L114.516 21.6927L114.527 21.7034L114.538 21.7135L114.54 21.7158L114.55 21.7249L114.553 21.7275L114.562 21.7361L114.565 21.7392L114.575 21.7478L114.578 21.7508L114.587 21.7595L114.59 21.7623L114.599 21.7711L114.602 21.7737L114.612 21.7828L114.614 21.7851L114.625 21.7955L114.662 21.8303L114.666 21.8336L114.674 21.8417L114.678 21.8458L114.686 21.8531L114.691 21.8572L114.698 21.8646L114.703 21.8689L114.71 21.8757L114.715 21.8808L114.722 21.8871L114.727 21.8922L114.734 21.8986L114.74 21.9039L114.746 21.9102L114.751 21.9153L114.758 21.9214L114.764 21.927L114.769 21.9321L114.776 21.9382L114.781 21.943L114.808 21.9684L114.811 21.9707L114.818 21.978L114.823 21.9821L114.83 21.9892L114.834 21.9932L114.842 22.0001L114.847 22.0049L114.854 22.0115L114.858 22.0161L114.865 22.0229L114.87 22.0275L114.877 22.0344L114.882 22.0387L114.889 22.0458L114.894 22.0501L114.901 22.0572L114.905 22.0608L114.913 22.0686L114.916 22.0719L114.925 22.0798L114.928 22.0831L114.936 22.0912L114.938 22.0928L114.97 22.1235L114.978 22.1313L114.982 22.1351L114.99 22.1428L114.993 22.1463L115.002 22.1542L115.005 22.1575L115.014 22.1656L115.017 22.1687L115.025 22.1765L115.029 22.1803L115.037 22.1882L115.04 22.1915L115.049 22.1996L115.052 22.2027L115.061 22.2113L115.063 22.2133L115.072 22.2225L115.074 22.2248L115.139 22.288L115.141 22.2897L115.151 22.2989L115.153 22.3009L115.161 22.3095L115.165 22.3128L115.173 22.321L115.176 22.3238L115.185 22.3321L115.188 22.3349L115.197 22.3441L115.198 22.3453L115.209 22.3555L115.219 22.3659L115.298 22.442L115.308 22.4522L115.318 22.4616L115.32 22.4636L115.329 22.4728L115.331 22.475L115.34 22.4839L115.343 22.4862L115.352 22.4956L115.353 22.4969L115.363 22.5068L115.465 22.6065L115.476 22.6174C115.671 22.8112 115.864 23.0066 116.056 23.2036C116.171 23.3246 116.234 23.4864 116.231 23.6536C116.228 23.8208 116.158 23.98 116.039 24.0965C115.919 24.213 115.757 24.2775 115.59 24.2759C115.423 24.2743 115.263 24.2068 115.145 24.088C114.232 23.1475 113.265 22.2364 112.272 21.3805C112.174 21.2959 112.104 21.1833 112.072 21.0578C112.039 20.9323 112.046 20.8 112.091 20.6785C112.137 20.5571 112.218 20.4523 112.324 20.3784C112.431 20.3045 112.557 20.265 112.687 20.2651L112.697 20.2778ZM118.27 26.0161C118.364 26.0161 118.457 26.0368 118.542 26.0769C118.627 26.117 118.702 26.1754 118.761 26.2479C119.206 26.7955 119.639 27.3532 120.059 27.921L120.067 27.9331L120.069 27.9354L120.078 27.9471V27.9486L120.087 27.9611L120.097 27.974L120.106 27.987L120.146 28.0418L120.156 28.0547L120.165 28.0669L120.167 28.0705L120.175 28.0804L120.178 28.0844L120.184 28.0933L120.188 28.0984L120.194 28.107L120.198 28.1118L120.203 28.12L120.208 28.1256L120.213 28.1334L120.217 28.139L120.223 28.1464L120.227 28.1527L120.232 28.1601L120.237 28.1659L120.242 28.1733L120.246 28.1794L120.256 28.1921L120.258 28.1961L120.265 28.2058L120.27 28.2124L120.275 28.219L120.28 28.2258L120.285 28.2324L120.29 28.2395L120.294 28.2459L120.299 28.2527L120.304 28.2591L120.31 28.2669L120.313 28.272L120.319 28.2801L120.323 28.2855L120.329 28.2936L120.333 28.2989L120.338 28.3068L120.342 28.3116L120.348 28.3205L120.35 28.3233L120.358 28.3337V28.3355L120.412 28.4116V28.4129L120.421 28.4248L120.429 28.4363L120.43 28.438L120.438 28.4495V28.451L120.447 28.4627V28.4642C120.693 28.8079 120.935 29.1548 121.172 29.5049C121.218 29.574 121.251 29.6516 121.268 29.7332C121.284 29.8149 121.285 29.899 121.269 29.9808C121.253 30.0627 121.221 30.1406 121.175 30.2101C121.129 30.2797 121.07 30.3395 121.001 30.3861C120.932 30.4328 120.855 30.4654 120.773 30.4821C120.691 30.4988 120.607 30.4992 120.525 30.4834C120.443 30.4676 120.366 30.4358 120.296 30.3899C120.226 30.3439 120.167 30.2847 120.12 30.2157C119.387 29.1298 118.595 28.0631 117.768 27.0452C117.692 26.9522 117.644 26.8396 117.63 26.7205C117.616 26.6014 117.635 26.4808 117.687 26.3725C117.738 26.2641 117.819 26.1726 117.921 26.1085C118.022 26.0444 118.14 26.0104 118.26 26.0103L118.27 26.0161ZM122.747 32.6457C122.861 32.6456 122.972 32.6759 123.07 32.7334C123.168 32.7909 123.248 32.8735 123.303 32.9727C123.414 33.1727 123.524 33.3755 123.632 33.5773L123.648 33.6075L123.704 33.7139V33.7154L123.711 33.7283L123.713 33.7314L123.719 33.7431L123.72 33.7464L123.727 33.7578L123.729 33.7619L123.734 33.773L123.736 33.7766L123.742 33.7883L123.744 33.7916L123.751 33.8042V33.8063L123.758 33.8202L123.782 33.8657V33.8675L123.788 33.8799L123.791 33.8845L123.796 33.8946L123.799 33.8999L123.804 33.9093L123.807 33.9152L123.812 33.9238L123.815 33.9302L123.819 33.938L123.823 33.9451L123.827 33.9533L123.83 33.9599L123.834 33.9682L123.838 33.9746L123.842 33.9824L123.846 33.9896L123.848 33.9934L123.86 34.017L123.865 34.0264L123.867 34.0317L123.872 34.0406L123.875 34.0464L123.88 34.0553L123.882 34.0606L123.887 34.07L123.89 34.0753L123.895 34.084L123.898 34.0901L123.902 34.0992L123.905 34.1038L123.91 34.1139L123.912 34.1175L123.918 34.1289V34.1307L123.968 34.2271L123.975 34.2403L123.982 34.2538L123.989 34.2673L123.996 34.281C124.243 34.7653 124.483 35.2547 124.713 35.7492L124.719 35.7621V35.7642L124.725 35.7761L124.726 35.7791L124.732 35.7898L124.734 35.7946L124.739 35.805L124.741 35.8093L124.745 35.8197L124.748 35.8246L124.753 35.835L124.755 35.839L124.759 35.8494L124.762 35.8548L124.776 35.8855L124.78 35.8941L124.783 35.8997L124.787 35.9096L124.79 35.9144L124.794 35.9246L124.797 35.9299L124.802 35.9403L124.804 35.9449L124.809 35.9561L124.811 35.9601L124.816 35.9721L124.818 35.9751L124.824 35.9875L124.825 35.9903L124.832 36.0048C124.923 36.2046 125.013 36.4041 125.102 36.6054C125.135 36.6817 125.154 36.7639 125.155 36.8472C125.157 36.9305 125.142 37.0134 125.112 37.091C125.082 37.1687 125.037 37.2396 124.979 37.2998C124.921 37.3599 124.852 37.4082 124.776 37.4417C124.7 37.4752 124.618 37.4933 124.534 37.4951C124.451 37.4969 124.368 37.4822 124.29 37.452C124.213 37.4217 124.142 37.3765 124.082 37.3188C124.022 37.2611 123.973 37.1922 123.94 37.1159C123.411 35.9175 122.82 34.728 122.186 33.5801C122.132 33.4835 122.105 33.3747 122.107 33.2644C122.108 33.154 122.138 33.046 122.194 32.9509C122.25 32.8558 122.33 32.777 122.426 32.7222C122.522 32.6674 122.63 32.6385 122.74 32.6384L122.747 32.6457ZM125.979 39.9627C126.112 39.9628 126.241 40.0045 126.349 40.0819C126.457 40.1593 126.538 40.2685 126.58 40.3942V40.3978L126.582 40.4016L126.586 40.414V40.4173L126.59 40.4303V40.4338L126.594 40.4468V40.4498L126.599 40.4635V40.4661L126.632 40.5648L126.637 40.5811C126.773 40.9855 126.902 41.3921 127.025 41.8008V41.8023L127.03 41.818L127.06 41.9196L127.065 41.935V41.9376L127.069 41.9515V41.9541L127.073 41.9678V41.9711L127.077 41.9848V41.9873L127.081 42.001V42.0043L127.101 42.0698V42.0736L127.105 42.0863V42.0904L127.108 42.1021L127.11 42.1077L127.113 42.1183L127.115 42.1242L127.118 42.1343L127.119 42.1404L127.122 42.1508L127.124 42.1567L127.127 42.1671L127.129 42.1732L127.133 42.1858V42.1897L127.137 42.2051L127.139 42.2102L127.142 42.2211L127.144 42.2277L127.147 42.2371L127.149 42.2447L127.152 42.2531L127.154 42.2607L127.156 42.2689L127.159 42.2772L127.161 42.2848L127.163 42.293L127.166 42.3011L127.168 42.3092L127.17 42.3178L127.172 42.3252L127.175 42.3336L127.18 42.3521L127.181 42.3569L127.184 42.3668L127.186 42.3727L127.189 42.3823L127.19 42.3889L127.193 42.3991L127.195 42.4044L127.198 42.4151L127.199 42.4204L127.202 42.4308L127.204 42.4361L127.207 42.4465L127.208 42.4519L127.212 42.4628V42.4656L127.233 42.5394L127.237 42.5539V42.5552L127.24 42.5684V42.5712L127.244 42.5844V42.5862L127.248 42.6001C127.407 43.1601 127.554 43.7243 127.692 44.2927C127.729 44.4554 127.7 44.6261 127.612 44.7679C127.524 44.9097 127.384 45.0111 127.222 45.0502C127.059 45.0894 126.888 45.0631 126.745 44.9771C126.603 44.891 126.499 44.7521 126.458 44.5905C126.15 43.3162 125.781 42.0406 125.361 40.7994C125.329 40.7039 125.32 40.6021 125.335 40.5025C125.35 40.4028 125.388 40.3082 125.447 40.2263C125.506 40.1444 125.583 40.0777 125.673 40.0317C125.762 39.9857 125.862 39.9617 125.962 39.9617L125.979 39.9627ZM127.858 47.7386C128.009 47.7388 128.156 47.7933 128.271 47.8921C128.386 47.991 128.461 48.1277 128.484 48.2775C128.682 49.6072 128.821 50.9548 128.903 52.3205C128.908 52.4037 128.896 52.487 128.869 52.5657C128.841 52.6444 128.798 52.7169 128.743 52.7791C128.688 52.8413 128.62 52.892 128.545 52.9282C128.47 52.9645 128.389 52.9856 128.306 52.9904C128.222 52.9951 128.139 52.9835 128.06 52.956C127.982 52.9286 127.909 52.8859 127.847 52.8305C127.785 52.775 127.734 52.7078 127.698 52.6328C127.662 52.5577 127.64 52.4763 127.636 52.3931C127.56 51.082 127.421 49.761 127.23 48.4669C127.216 48.3766 127.222 48.2845 127.248 48.1968C127.273 48.1091 127.317 48.0279 127.377 47.9588C127.437 47.8897 127.51 47.8343 127.593 47.7963C127.677 47.7584 127.767 47.7388 127.858 47.7389L127.858 47.7386ZM128.33 55.7263H128.348C128.516 55.731 128.675 55.8021 128.791 55.9239C128.906 56.0457 128.969 56.2083 128.965 56.3761C128.957 56.6409 128.947 56.9018 128.935 57.1653V57.1683V57.182V57.1876V57.1991V57.2051V57.2163V57.2232V57.2328V57.2404V57.2488V57.2658V57.2737V57.2836V57.2902V57.3008V57.3069V57.3184V57.3229V57.3354V57.3389C128.885 58.3781 128.799 59.408 128.679 60.4284C128.669 60.5113 128.643 60.5915 128.603 60.6645C128.562 60.7374 128.508 60.8016 128.442 60.8534C128.377 60.9052 128.302 60.9436 128.222 60.9664C128.141 60.9892 128.057 60.9959 127.974 60.9862C127.892 60.9765 127.811 60.9506 127.739 60.9098C127.666 60.8691 127.602 60.8144 127.55 60.7488C127.498 60.6833 127.46 60.6082 127.437 60.5279C127.415 60.4476 127.408 60.3636 127.418 60.2807C127.57 58.9815 127.667 57.6565 127.704 56.3426C127.709 56.1791 127.776 56.0238 127.893 55.909C128.009 55.7941 128.165 55.7287 128.329 55.7263H128.33ZM127.397 63.6715C127.491 63.6714 127.584 63.6923 127.669 63.7326C127.754 63.7729 127.829 63.8316 127.889 63.9045C127.948 63.9774 127.991 64.0627 128.014 64.1541C128.036 64.2455 128.038 64.3408 128.019 64.433C127.983 64.607 127.946 64.7808 127.907 64.9544V64.9562L127.904 64.9714V64.9735L127.901 64.9879V64.991L127.898 65.0052V65.0077L127.895 65.0217V65.025L127.891 65.041L127.883 65.0747V65.0803L127.881 65.0907L127.879 65.0994L127.877 65.107L127.875 65.1156L127.874 65.1235L127.872 65.1324L127.87 65.1395L127.868 65.1489L127.866 65.1557L127.864 65.1654L127.863 65.1715L127.861 65.1816V65.1862L127.848 65.243V65.2448L127.845 65.2583V65.2606L127.842 65.2738V65.2768L127.839 65.2897V65.292L127.835 65.306C127.598 66.34 127.327 67.3602 127.02 68.3666C126.971 68.5276 126.86 68.6626 126.711 68.7418C126.563 68.8211 126.389 68.8381 126.228 68.7891C126.067 68.7401 125.932 68.6292 125.853 68.4807C125.774 68.3322 125.757 68.1583 125.806 67.9972C126.186 66.7438 126.516 65.4588 126.784 64.1741C126.814 64.0334 126.891 63.907 127.002 63.8158C127.113 63.7245 127.252 63.6739 127.396 63.672L127.397 63.6715ZM125.069 71.3241C125.173 71.3241 125.275 71.3495 125.367 71.3982C125.459 71.4469 125.537 71.5173 125.595 71.6032C125.653 71.6892 125.689 71.7881 125.7 71.8912C125.711 71.9944 125.697 72.0987 125.658 72.195C125.345 72.9696 125.01 73.7334 124.656 74.4864L124.649 74.5014L124.642 74.5161L124.635 74.5309L124.628 74.5453L124.591 74.623L124.584 74.6372V74.6397L124.578 74.6522L124.577 74.6557L124.571 74.6672L124.569 74.6717L124.564 74.6826L124.562 74.6867L124.557 74.6979L124.555 74.7024L124.55 74.7131L124.547 74.7177L124.542 74.7281L124.54 74.7332L124.533 74.7474L124.525 74.7629L124.518 74.7781L124.516 74.7827L124.511 74.7926L124.507 74.7997L124.504 74.8078L124.5 74.8152L124.496 74.8223L124.493 74.8304L124.489 74.8372L124.485 74.8456L124.482 74.8517L124.478 74.8606L124.475 74.8672L124.471 74.8756L124.468 74.8814L124.464 74.8905L124.461 74.8959L124.457 74.9055L124.455 74.9091L124.437 74.9474V74.9487L124.431 74.9596L124.429 74.9637L124.425 74.973L124.422 74.9784L124.417 74.9885L124.415 74.9929L124.41 75.0027L124.408 75.0076L124.403 75.0177L124.401 75.0218L124.396 75.0322L124.394 75.0363L124.388 75.0474V75.0495L124.382 75.0621L124.341 75.1462V75.1474L124.335 75.1609L124.328 75.1743L124.321 75.1875L124.315 75.201C124.203 75.4281 124.089 75.6541 123.974 75.879C123.896 76.0268 123.763 76.1378 123.603 76.1881C123.444 76.2383 123.271 76.2237 123.123 76.1474C122.974 76.0711 122.862 75.9393 122.81 75.7806C122.757 75.6218 122.77 75.449 122.845 75.2995C123.444 74.1318 123.997 72.9253 124.489 71.7112C124.537 71.597 124.618 71.4994 124.721 71.4306C124.824 71.3618 124.945 71.3248 125.069 71.3241ZM121.418 78.441C121.532 78.4412 121.643 78.4717 121.741 78.5295C121.838 78.5873 121.919 78.6702 121.973 78.7696C122.028 78.869 122.055 78.9813 122.052 79.0947C122.048 79.2081 122.015 79.3186 121.954 79.4145C121.802 79.6562 121.647 79.8964 121.489 80.1352L121.481 80.1474V80.1489L121.474 80.16L121.472 80.1628L121.465 80.1738V80.1755L121.457 80.1872V80.1887L121.416 80.2509L121.414 80.254L121.409 80.2618L121.405 80.2684L121.4 80.2753L121.396 80.2822L121.391 80.289L121.386 80.2961L121.382 80.3025L121.377 80.3098L121.373 80.3164L121.368 80.324L121.364 80.3301L121.358 80.338L121.354 80.3438L121.349 80.3522L121.345 80.3578L121.339 80.3667L121.336 80.3712L121.329 80.3822L121.327 80.385L121.299 80.4273L121.29 80.441V80.4426L121.281 80.455L121.28 80.4573L121.272 80.4692L121.27 80.4713L121.263 80.4829L121.26 80.4857L121.253 80.4971L121.251 80.4992L121.243 80.5114V80.5131L121.234 80.5261C120.863 81.0776 120.48 81.6201 120.086 82.1537L120.085 82.1557L120.077 82.1667L120.074 82.1702L120.067 82.1804L120.064 82.1834L120.057 82.1938L120.054 82.1974L120.047 82.2078L120.045 82.2106L120.037 82.221L120.034 82.2243L120.026 82.236V82.2372L120.016 82.2499L119.996 82.2768L119.994 82.2801L119.986 82.2903L119.983 82.2941L119.977 82.3035L119.973 82.3086L119.967 82.3167L119.963 82.3223L119.957 82.3299L119.953 82.3357L119.947 82.3433L119.943 82.3494L119.938 82.356L119.932 82.3631L119.928 82.369L119.922 82.3766L119.919 82.3809L119.912 82.3898L119.91 82.3933L119.902 82.403L119.901 82.405L119.856 82.4647L119.854 82.4672L119.847 82.4771L119.844 82.4802L119.837 82.4901L119.835 82.4929L119.827 82.503L119.825 82.5055L119.817 82.5154L119.815 82.5185L119.807 82.5284L119.805 82.5312L119.798 82.5413L119.796 82.5439L119.788 82.5548C119.74 82.6181 119.692 82.6811 119.644 82.7439C119.594 82.8105 119.531 82.8664 119.458 82.9086C119.386 82.9507 119.307 82.9782 119.224 82.9895C119.141 83.0007 119.057 82.9955 118.976 82.9742C118.895 82.9529 118.82 82.9158 118.753 82.8652C118.687 82.8145 118.631 82.7512 118.589 82.679C118.547 82.6067 118.52 82.5269 118.509 82.4441C118.498 82.3613 118.504 82.2772 118.525 82.1965C118.547 82.1158 118.584 82.0402 118.635 81.974C119.431 80.9312 120.189 79.8417 120.889 78.7329C120.946 78.6441 121.024 78.5708 121.116 78.5199C121.209 78.4689 121.313 78.4418 121.418 78.441ZM116.564 84.801C116.687 84.801 116.808 84.8367 116.911 84.9038C117.014 84.9708 117.095 85.0663 117.145 85.1787C117.194 85.291 117.21 85.4154 117.191 85.5368C117.171 85.6581 117.117 85.7711 117.034 85.8621C116.391 86.5662 115.726 87.2502 115.039 87.9139L115.028 87.9248L115.026 87.9263L115.016 87.9362L115.013 87.939L115.004 87.9482L115.001 87.9507L114.992 87.9598L114.989 87.9626L114.98 87.9713L114.977 87.9743L114.968 87.9827L114.964 87.986L114.955 87.9949L114.953 87.9974L114.942 88.0078L114.941 88.0091L114.916 88.0322L114.912 88.0362L114.905 88.0436L114.899 88.0487L114.893 88.0545L114.886 88.0614L114.881 88.0657L114.874 88.0731L114.87 88.0769L114.862 88.0845L114.858 88.0883L114.85 88.0962L114.847 88.0992L114.838 88.1078L114.835 88.1099L114.826 88.1193C114.608 88.3271 114.388 88.5328 114.166 88.7363C114.041 88.8479 113.878 88.9058 113.711 88.8977C113.544 88.8895 113.387 88.8159 113.274 88.6927C113.161 88.5696 113.102 88.4069 113.108 88.2399C113.114 88.073 113.186 87.9152 113.308 87.8009C114.274 86.9148 115.212 85.9745 116.097 85.0066C116.156 84.9419 116.228 84.8901 116.309 84.8547C116.389 84.8192 116.476 84.8009 116.564 84.8008L116.564 84.801ZM110.667 90.2079C110.8 90.2078 110.929 90.2492 111.037 90.3262C111.144 90.4032 111.225 90.5121 111.268 90.6374C111.311 90.7628 111.313 90.8984 111.275 91.0253C111.237 91.1521 111.16 91.2639 111.055 91.3448C110.479 91.7865 109.891 92.2148 109.293 92.6298H109.292L109.279 92.6386L109.266 92.6478L109.252 92.6574L109.181 92.7062L109.168 92.7148L109.166 92.7166L109.155 92.7242L109.151 92.7267L109.141 92.7336L109.137 92.7364L109.128 92.7427L109.123 92.7463L109.114 92.7524L109.109 92.7554L109.1 92.7618L109.095 92.7651L109.086 92.7711L109.081 92.7745L109.074 92.7798L109.067 92.7841L109.06 92.7889L109.054 92.7932L109.046 92.7986L109.033 92.8074L109.027 92.8115L109.019 92.8168L109.013 92.8209L109.006 92.826L108.999 92.8306L108.992 92.8356L108.986 92.8394L108.978 92.8453L108.973 92.8488L108.964 92.8549L108.96 92.8577L108.95 92.8643L108.946 92.8669L108.936 92.8735L108.933 92.8757L108.923 92.8828L108.92 92.8846L108.909 92.8922C108.52 93.1564 108.126 93.4147 107.727 93.6672C107.585 93.7573 107.413 93.7873 107.249 93.7505C107.084 93.7137 106.942 93.6131 106.851 93.471C106.761 93.3288 106.731 93.1567 106.768 92.9925C106.805 92.8282 106.905 92.6854 107.048 92.5952C108.154 91.8936 109.243 91.1334 110.285 90.3361C110.394 90.253 110.528 90.208 110.666 90.2081L110.667 90.2079ZM103.911 94.4909C104.053 94.4907 104.191 94.5384 104.303 94.6263C104.416 94.7142 104.495 94.8373 104.528 94.9756C104.562 95.114 104.548 95.2597 104.489 95.3893C104.43 95.5188 104.329 95.6247 104.202 95.6898C103.79 95.9024 103.374 96.1087 102.955 96.3089L102.842 96.3625H102.84L102.828 96.3686H102.826L102.813 96.3744H102.811L102.799 96.38H102.796L102.784 96.3856L102.781 96.3869L102.769 96.3925H102.767L102.755 96.3986L102.684 96.4315L102.673 96.4371L102.669 96.4387L102.658 96.444L102.655 96.4455L102.644 96.4506L102.639 96.4526L102.629 96.4574L102.625 96.4595L102.615 96.4643L102.61 96.4666L102.599 96.4717L102.596 96.4732L102.585 96.4785L102.582 96.48L102.53 96.5054L102.526 96.5069L102.516 96.5118L102.511 96.5138L102.502 96.5181L102.496 96.5209L102.486 96.5255L102.482 96.5278L102.472 96.5323L102.466 96.5346L102.457 96.5389L102.451 96.5415L102.442 96.5458L102.436 96.5486L102.427 96.5526L102.421 96.5554L102.412 96.5595L102.406 96.5625L102.397 96.5663L102.387 96.5709L102.378 96.5752L102.368 96.58L102.36 96.5836L102.353 96.5869L102.344 96.591L102.338 96.594L102.33 96.5976L102.322 96.6011L102.315 96.6044L102.307 96.608L102.3 96.6115L102.292 96.6151L102.284 96.6186L102.276 96.6222L102.27 96.6252L102.261 96.6293L102.254 96.6323L102.246 96.6361L102.239 96.6392L102.231 96.643L102.224 96.646L102.209 96.6529L102.195 96.6595L102.19 96.6618L102.179 96.6666L102.174 96.6689L102.164 96.6732L102.159 96.676L102.149 96.6803L102.143 96.6829L102.134 96.6869L102.127 96.69L102.119 96.6938L102.112 96.6968L102.104 96.7004L102.097 96.7037L102.088 96.7077L102.082 96.7105L102.071 96.7153L102.067 96.7174L102.052 96.7242L102.036 96.7313L102.022 96.7377L102.018 96.7395L102.007 96.7445L102.002 96.7466L101.992 96.7511L101.987 96.7534L101.976 96.758L101.971 96.7605L101.961 96.7651L101.956 96.7671L101.945 96.7722L101.941 96.774L101.929 96.7793L101.926 96.7806L101.913 96.7864H101.91L101.848 96.8141L101.845 96.8156L101.832 96.8212L101.829 96.8225L101.817 96.828L101.814 96.8296L101.801 96.8352L101.798 96.8367L101.786 96.842L101.782 96.8438L101.77 96.8494H101.767L101.754 96.8555H101.752L101.657 96.8971L101.642 96.9037L101.628 96.91H101.626L101.612 96.9161H101.61L101.597 96.922H101.595C101.238 97.0781 100.881 97.2289 100.52 97.3758C100.364 97.4379 100.19 97.4359 100.036 97.3702C99.8815 97.3044 99.7595 97.1803 99.6965 97.025C99.6335 96.8696 99.6345 96.6957 99.6993 96.5411C99.7641 96.3865 99.8874 96.2638 100.042 96.1998C101.256 95.7058 102.462 95.1504 103.628 94.5498C103.716 94.5087 103.812 94.4886 103.91 94.4909H103.911ZM96.5031 97.5073C96.655 97.5072 96.8019 97.5617 96.9172 97.6608C97.0324 97.7598 97.1082 97.897 97.1309 98.0472C97.1536 98.1975 97.1216 98.3509 97.0407 98.4795C96.9599 98.6082 96.8356 98.7036 96.6904 98.7484C96.5462 98.7925 96.4018 98.8359 96.2571 98.8786L96.2403 98.8834L96.1561 98.9088L96.1403 98.9134H96.1378L96.1238 98.9174H96.121L96.1076 98.9212H96.104L96.0906 98.925H96.0878L96.0743 98.9288H96.0708L96.02 98.9433L96.005 98.9476L96.0007 98.9489L95.9888 98.9525L95.9839 98.9537L95.9725 98.957L95.9674 98.9585L95.9558 98.9618L95.9507 98.9634L95.94 98.9664L95.9342 98.9682L95.9225 98.9715L95.9179 98.9728L95.9035 98.9768H95.9017L95.8852 98.9816H95.8819L95.8695 98.9852L95.8626 98.9872L95.8532 98.9898L95.8464 98.9918L95.837 98.9946L95.8294 98.9966L95.8212 98.9989L95.8131 99.0012L95.8055 99.0035L95.7966 99.006L95.7898 99.008L95.7811 99.0106L95.7733 99.0129L95.7646 99.0154L95.7578 99.0174L95.7253 99.0266L95.7172 99.0289L95.7088 99.0311L95.7017 99.0332L95.6923 99.036L95.6857 99.0377L95.6758 99.0405L95.6699 99.0421L95.66 99.0448L95.6537 99.0466L95.6438 99.0494L95.6385 99.0509L95.6278 99.054L95.6232 99.0553L95.6118 99.0586L95.5679 99.0707H95.5659L95.5537 99.074H95.5499L95.5385 99.0771H95.5341L95.5222 99.0804H95.5187L95.507 99.0837H95.5027L95.4907 99.087H95.4877L95.475 99.0905H95.4725L95.4146 99.1065H95.4133L95.3996 99.1103H95.3981L95.3849 99.1139H95.3821L95.3694 99.1174H95.3664L95.3539 99.1208H95.3506L95.3377 99.1243L95.247 99.1497L95.2336 99.1532H95.2308L95.2176 99.1568H95.2161L95.2019 99.1606L95.0955 99.189L95.0813 99.1928H95.0798L95.0653 99.1966L95.0503 99.2007L94.928 99.2329C94.2123 99.4208 93.49 99.5915 92.7612 99.7452C92.5965 99.7799 92.4247 99.7478 92.2837 99.6558C92.1427 99.5639 92.044 99.4197 92.0093 99.255C91.9746 99.0903 92.0067 98.9186 92.0987 98.7776C92.1906 98.6366 92.3348 98.5378 92.4995 98.5032C93.7824 98.2328 95.0681 97.9013 96.3208 97.5177C96.3804 97.5056 96.4414 97.5021 96.502 97.5073H96.5031ZM88.6766 99.1573C88.838 99.1578 88.9931 99.2197 89.1104 99.3305C89.2277 99.4413 89.2984 99.5927 89.3082 99.7537C89.3179 99.9148 89.2658 100.074 89.1626 100.198C89.0595 100.322 88.9129 100.402 88.7528 100.422C87.4186 100.581 86.0676 100.681 84.6999 100.724C84.5316 100.728 84.3683 100.666 84.2458 100.551C84.1233 100.435 84.0517 100.276 84.0468 100.107C84.0419 99.9391 84.104 99.7758 84.2196 99.6533C84.3351 99.5308 84.4946 99.4592 84.6629 99.4543C85.9765 99.4144 87.3013 99.316 88.6002 99.1614C88.6252 99.1584 88.6504 99.1568 88.6756 99.1568L88.6766 99.1573ZM76.6912 98.9953C76.7223 98.9954 76.7534 98.9977 76.7841 99.0022C78.0787 99.1921 79.3987 99.3264 80.7113 99.4015C80.8779 99.4128 81.0333 99.4892 81.1439 99.6143C81.2545 99.7394 81.3114 99.903 81.3021 100.07C81.2929 100.236 81.2184 100.393 81.0947 100.505C80.971 100.617 80.8081 100.676 80.6413 100.669C79.2761 100.591 77.9282 100.454 76.5976 100.257C76.4393 100.234 76.296 100.151 76.1962 100.026C76.0964 99.9007 76.0476 99.7425 76.0594 99.583C76.0712 99.4234 76.1429 99.2742 76.2601 99.1653C76.3772 99.0563 76.5312 98.9956 76.6912 98.9953ZM68.9128 97.1327C68.9818 97.1326 69.0504 97.1439 69.1158 97.1659C70.3579 97.5837 71.6339 97.9505 72.9087 98.2557C73.0715 98.2956 73.2119 98.3984 73.2991 98.5415C73.3864 98.6846 73.4135 98.8564 73.3746 99.0194C73.3356 99.1825 73.2338 99.3235 73.0912 99.4116C72.9487 99.4998 72.777 99.528 72.6138 99.4901H72.6097L72.5929 99.486L72.577 99.4822L72.561 99.4784C71.5742 99.2415 70.6006 98.9724 69.6403 98.6712L69.6245 98.6664L69.6095 98.6616H69.6075L69.5936 98.6572H69.591L69.5771 98.6529H69.5745L69.5418 98.6428H69.5382L69.526 98.639L69.5194 98.6369L69.5105 98.6341L69.5024 98.6316L69.4946 98.6291L69.4859 98.6263L69.4796 98.6242L69.4697 98.6212L69.4643 98.6194L69.4534 98.6159H69.4499L69.4374 98.6121H69.4359C69.1953 98.5356 68.9555 98.4571 68.7165 98.3767C68.5737 98.3288 68.4526 98.2316 68.3749 98.1025C68.2971 97.9734 68.2679 97.8209 68.2923 97.6723C68.3167 97.5236 68.3932 97.3885 68.5082 97.291C68.6231 97.1936 68.7689 97.1403 68.9196 97.1405L68.9128 97.1327ZM61.5915 93.916C61.698 93.9161 61.8028 93.9432 61.8961 93.9947C63.0449 94.6272 64.2357 95.2154 65.4351 95.7424C65.5867 95.8117 65.7049 95.9378 65.7642 96.0935C65.8236 96.2492 65.8193 96.422 65.7524 96.5745C65.6854 96.7271 65.5611 96.8472 65.4064 96.909C65.2516 96.9707 65.0787 96.9691 64.9252 96.9044L64.917 96.9009L64.9135 96.8994L64.9018 96.8943L64.898 96.8925L64.8863 96.8875L64.8825 96.8857L64.8696 96.8798H64.8673L64.8518 96.873H64.8495L64.8366 96.8671L64.8317 96.8651L64.8213 96.8605L64.8155 96.858L64.8061 96.8539L64.799 96.8509L64.7911 96.8473L64.7835 96.844L64.7761 96.8407L64.7678 96.8372L64.7612 96.8341L64.7528 96.8303L64.7462 96.8275L64.7371 96.8235L64.7317 96.8212L64.7221 96.8169L64.7168 96.8146L64.7071 96.8103L64.7018 96.808L64.6924 96.8037H64.6898L64.666 96.793H64.6632L64.652 96.7879L64.6482 96.7862L64.6381 96.7816L64.633 96.7793L64.6226 96.7747L64.6185 96.773L64.6079 96.7681L64.6035 96.7661L64.5931 96.7613L64.5888 96.7593L64.5784 96.7547L64.5736 96.7527L64.5629 96.7478L64.5599 96.7466L64.5477 96.741H64.5462L64.4759 96.7093L64.4642 96.7039L64.4604 96.7021L64.4495 96.6973L64.4454 96.6955L64.4347 96.6907L64.4307 96.6829L64.4198 96.6778L64.4159 96.676L64.4053 96.6712L64.4007 96.6692L64.3901 96.6643L64.3865 96.6628L64.3751 96.6575H64.3725L64.3027 96.6257L64.2908 96.6201L64.2875 96.6186L64.2763 96.6135L64.2728 96.612L64.2616 96.6069L64.2578 96.6052L64.2466 96.6001L64.2431 96.5983L64.2322 96.5932L64.2279 96.5912L64.2169 96.5861L64.2139 96.5846L64.202 96.579H64.2007L64.1309 96.5468H64.1294L64.1179 96.5415L64.1144 96.5397L64.1035 96.5346L64.0997 96.5328L64.0893 96.528L64.0847 96.526L64.0743 96.5212L64.0697 96.5191L64.0598 96.5146L64.0547 96.5123L64.0443 96.5074L64.0405 96.5057L64.0299 96.5006L64.0258 96.4986L64.0149 96.4935L63.9745 96.4747L63.9717 96.4734L63.9613 96.4686L63.9567 96.4666L63.9476 96.4623L63.9413 96.4592L63.9326 96.4552L63.9265 96.4524L63.9179 96.4483L63.9113 96.4453L63.9032 96.4415L63.8961 96.4381L63.8882 96.4343L63.8811 96.431L63.8727 96.4272L63.8671 96.4244L63.8577 96.4201L63.8522 96.4176L63.8428 96.4133L63.8367 96.4105L63.828 96.4064L63.8136 96.3996L63.8067 96.3963L63.7984 96.3922L63.7912 96.3889L63.7831 96.3851L63.7765 96.382L63.7676 96.378L63.761 96.3749L63.7527 96.3709L63.7458 96.3676L63.7379 96.3638L63.7306 96.3602L63.7227 96.3564L63.7161 96.3534L63.7075 96.3493L63.7009 96.3463L63.692 96.3419L63.6859 96.3391L63.6763 96.3346L63.6707 96.3318L63.6405 96.3173H63.6392L63.6255 96.3107L63.6214 96.3089L63.6105 96.3039L63.6057 96.3016L63.5948 96.2962L63.591 96.2945L63.58 96.2891L63.5755 96.2869L63.5641 96.2815L63.5605 96.2797L63.5491 96.2742L63.5453 96.2724L63.5328 96.2665L63.5303 96.2653L63.5171 96.2589H63.5151L63.5006 96.2518L63.4384 96.2219L63.4239 96.215H63.4222L63.4082 96.2084H63.4069L63.393 96.2018H63.3909L63.3767 96.195L63.362 96.1879C62.6575 95.8409 61.9645 95.4797 61.283 95.1042C61.16 95.0359 61.0632 94.9287 61.0077 94.7994C60.9523 94.6701 60.9413 94.5261 60.9767 94.3899C61.012 94.2537 61.0916 94.1332 61.2029 94.0471C61.3143 93.9611 61.451 93.9145 61.5917 93.9147L61.5915 93.916ZM54.9532 89.4509C55.0986 89.4508 55.2395 89.5007 55.3523 89.5923C56.3717 90.4178 57.4396 91.2075 58.5271 91.9388C58.6667 92.0328 58.7634 92.1783 58.7957 92.3435C58.828 92.5087 58.7934 92.68 58.6994 92.8196C58.6055 92.9593 58.4599 93.0559 58.2947 93.0882C58.1295 93.1206 57.9583 93.0859 57.8186 92.992C56.8738 92.3564 55.9547 91.6871 55.0614 90.9841L55.0497 90.975H55.0482L55.0368 90.9658L55.0246 90.9562L54.9532 90.8998L54.9494 90.8968L54.9411 90.8902L54.9365 90.8866L54.9286 90.8803L54.9235 90.8762L54.9159 90.8701L54.9106 90.8661L54.9035 90.8602L54.8976 90.8557L54.8903 90.8498L54.885 90.8455L54.8776 90.8397L54.872 90.8354L54.8646 90.8295L54.858 90.8242L54.8527 90.8199L54.8436 90.8125L54.8398 90.8095L54.8284 90.8003H54.8268L54.7872 90.7686L54.7854 90.7671L54.774 90.7579L54.772 90.7562L54.7593 90.743L54.7565 90.7407L54.7458 90.732L54.7438 90.7303L54.7327 90.7214L54.7306 90.7196L54.7192 90.7105L54.7177 90.7092L54.7055 90.6993L54.5532 90.5759C54.4514 90.4932 54.3778 90.381 54.3424 90.2548C54.307 90.1285 54.3116 89.9944 54.3555 89.8708C54.3995 89.7473 54.4806 89.6404 54.5878 89.5648C54.6949 89.4893 54.8229 89.4488 54.954 89.4489L54.9532 89.4509ZM49.2045 83.8852C49.2956 83.8851 49.3856 83.9047 49.4685 83.9425C49.5514 83.9804 49.6251 84.0356 49.6848 84.1045C50.5425 85.096 51.4553 86.0611 52.3973 86.9729C52.5185 87.0897 52.5883 87.2499 52.5914 87.4182C52.5944 87.5865 52.5305 87.7492 52.4137 87.8704C52.2968 87.9915 52.1366 88.0613 51.9683 88.0644C51.8 88.0675 51.6374 88.0036 51.5162 87.8867C51.3121 87.6892 51.11 87.49 50.9098 87.2889L50.8981 87.2773L50.8864 87.2656L50.8144 87.193L50.8034 87.1818L50.7994 87.178L50.7897 87.1684L50.7867 87.1651L50.7781 87.1564L50.775 87.1531L50.7666 87.1448L50.7628 87.1407L50.7552 87.1328L50.7514 87.1288L50.744 87.1211L50.7395 87.1163L50.7324 87.1092L50.728 87.1046L50.7204 87.097L50.7164 87.093L50.7077 87.0843L50.7047 87.0813L50.6968 87.0732L50.69 87.0663L50.6813 87.0577L50.6763 87.0526L50.6699 87.046L50.6643 87.0402L50.6582 87.0341L50.6521 87.0277L50.6473 87.0227L50.6402 87.0155L50.6356 87.011L50.6288 87.0039L50.6242 86.9993L50.6176 86.9924L50.6125 86.9874L50.6057 86.9803L50.6021 86.9765L50.594 86.9681L50.5907 86.9645L50.5828 86.9564L50.5795 86.9529L50.5714 86.9445L50.5686 86.9414L50.5054 86.8764L50.4955 86.8663L50.494 86.8648L50.4851 86.8556L50.4826 86.8528L50.4739 86.8437L50.4717 86.8412L50.4628 86.832L50.4605 86.8297L50.4514 86.8203L50.4493 86.8183L50.4402 86.8089L50.4379 86.8066L50.4285 86.797L50.3524 86.7178L50.342 86.7069L50.3321 86.6967L50.3305 86.6952L50.3206 86.6848L50.3105 86.6741L50.3001 86.6632L50.1909 86.5487L50.181 86.5383L50.1795 86.5368L50.1698 86.5266L50.1686 86.5251L50.1592 86.5152L50.1574 86.5134L50.1478 86.5033L50.1376 86.4926L50.0731 86.4246L50.0635 86.4145L50.062 86.4129L50.0531 86.4035L50.0508 86.401L50.0419 86.3916L50.0399 86.3896L50.031 86.3802L50.0285 86.3776L50.0201 86.3688L50.017 86.3655L50.0092 86.3571L50.0056 86.3533L49.9977 86.3449L49.9952 86.3421L49.9866 86.333L49.9843 86.3307L49.9754 86.3213V86.32L49.9356 86.2776L49.9328 86.2746L49.9264 86.2677L49.9211 86.2621L49.9152 86.2561L49.9099 86.2505L49.9038 86.2441L49.8987 86.2385L49.8924 86.2319L49.8873 86.2266L49.8815 86.2205L49.8759 86.2144L49.8602 86.1992L49.8548 86.1934L49.8492 86.1873L49.8434 86.1812L49.8378 86.1751L49.8315 86.1685L49.8269 86.1637L49.8193 86.1555L49.8155 86.1512L49.7812 86.1142L49.77 86.1022L49.768 86.0999L49.7586 86.0898L49.7566 86.0875L49.7475 86.0776L49.7449 86.0751L49.7355 86.0649L49.734 86.0631L49.7241 86.0525L49.7226 86.0507L49.7122 86.0395L49.7013 86.0276C49.3692 85.6676 49.0432 85.3028 48.7232 84.933C48.6443 84.8408 48.5934 84.728 48.5767 84.6078C48.56 84.4876 48.5781 84.3651 48.6288 84.2548C48.6796 84.1446 48.7609 84.0512 48.8631 83.9858C48.9653 83.9204 49.0841 83.8856 49.2055 83.8857L49.2045 83.8852ZM44.5249 77.3962C44.6351 77.3961 44.7434 77.4247 44.8392 77.4792C44.935 77.5337 45.0149 77.6122 45.0712 77.7069C45.7403 78.8332 46.4686 79.944 47.2359 81.0069C47.3347 81.1432 47.3753 81.3131 47.3487 81.4793C47.3222 81.6455 47.2307 81.7944 47.0944 81.8932C46.9581 81.9919 46.7882 82.0325 46.622 82.006C46.4558 81.9794 46.3069 81.8879 46.2081 81.7516C45.7837 81.1632 45.3728 80.564 44.9755 79.9539L44.9671 79.941L44.9658 79.9389L44.958 79.927L44.9564 79.9247L44.9491 79.9133L44.9471 79.91L44.9399 79.8991L44.9379 79.8958L44.9308 79.8849L44.9288 79.8816L44.9204 79.8686L44.9118 79.8552L44.9026 79.841L44.8943 79.8278L44.8899 79.8212L44.8851 79.8138L44.8803 79.8062L44.8765 79.8001L44.8712 79.792L44.8673 79.7861L44.8595 79.777L44.8562 79.7717L44.8506 79.763L44.8473 79.758L44.8412 79.7486L44.8389 79.745L44.8321 79.7344L44.8303 79.7318L44.8229 79.7206V79.7194L44.8151 79.7069C44.5292 79.2619 44.251 78.8115 43.9804 78.3557C43.9232 78.2594 43.8925 78.1497 43.8914 78.0377C43.8903 77.9257 43.9189 77.8154 43.9743 77.718C44.0297 77.6206 44.1098 77.5396 44.2066 77.4832C44.3034 77.4268 44.4134 77.3971 44.5254 77.397L44.5249 77.3962ZM41.0689 70.1818C41.1982 70.1818 41.3245 70.2213 41.4307 70.2951C41.537 70.3689 41.6181 70.4733 41.6634 70.5945C42.1218 71.8219 42.6417 73.0436 43.2082 74.2262C43.281 74.378 43.2905 74.5525 43.2346 74.7112C43.1787 74.87 43.062 75.0001 42.9102 75.0728C42.7585 75.1456 42.584 75.155 42.4252 75.0991C42.2665 75.0432 42.1364 74.9266 42.0637 74.7748C41.9364 74.5091 41.8116 74.2421 41.6893 73.9737V73.9714L41.6837 73.9592V73.9567L41.6783 73.9447L41.6768 73.9417L41.6715 73.93L41.6702 73.927L41.6649 73.9153L41.6611 73.9133L41.6557 73.9016L41.6304 73.847V73.8447L41.6258 73.8343L41.6235 73.8295L41.6192 73.8201L41.6167 73.8143L41.6126 73.8054L41.6098 73.799L41.6057 73.7899L41.6029 73.7838L41.5991 73.7754L41.5958 73.7683L41.5923 73.7602L41.589 73.7528L41.5857 73.7455L41.5821 73.7373L41.5788 73.73L41.5748 73.7208L41.5722 73.7153L41.5656 73.7003L41.5639 73.6962L41.5588 73.6848L41.5567 73.6802L41.5522 73.6698L41.5496 73.6645L41.5451 73.6543L41.543 73.6495L41.5382 73.6389L41.5362 73.6343L41.5314 73.6234L41.5293 73.6185L41.5248 73.6084L41.5225 73.6031L41.5179 73.5927L41.5159 73.5881L41.5105 73.5762L41.5093 73.5731L41.5027 73.5581L41.4816 73.5107L41.475 73.4957V73.4934L41.4692 73.4805L41.4676 73.4772L41.4621 73.4645V73.4622L41.456 73.4482V73.4467L41.4494 73.4317L41.4006 73.3205L41.3938 73.3051L41.3869 73.2893C41.2482 72.9708 41.1128 72.6504 40.9808 72.328L40.9744 72.3123L40.9681 72.2968L40.9617 72.2813L40.9556 72.2663L40.9166 72.1699L40.9102 72.1544V72.1529L40.8996 72.1315V72.1285L40.8942 72.1153V72.113L40.8889 72.0996V72.097L40.8836 72.0836V72.0813L40.8782 72.0678V72.065L40.8528 72.0016V71.9988L40.8475 71.9856L40.8462 71.9823L40.8417 71.9706L40.8396 71.9655L40.8353 71.9549L40.8333 71.9495L40.8295 71.9399L40.827 71.9335L40.8231 71.9239L40.8209 71.9181L40.8171 71.9084L40.8145 71.9023L40.8105 71.8922L40.8084 71.8868L40.8044 71.8764L40.8023 71.8711L40.7965 71.8561L40.7927 71.8465L40.7904 71.8409L40.7866 71.8312L40.7843 71.8257L40.7805 71.816L40.7782 71.8104L40.7742 71.8003L40.7721 71.7949L40.7683 71.7853L40.7663 71.78L40.7622 71.7698L40.7602 71.7645L40.7472 71.7556L40.745 71.75L40.7409 71.7399L40.7394 71.7361L40.7348 71.7244L40.7064 71.6515L40.701 71.6381V71.6363L40.6957 71.6226L40.6901 71.6084C40.6172 71.4207 40.5454 71.2324 40.4749 71.0436C40.439 70.9476 40.4269 70.8443 40.4396 70.7426C40.4524 70.641 40.4895 70.5439 40.548 70.4597C40.6064 70.3755 40.6843 70.3067 40.7751 70.2592C40.8659 70.2117 40.9669 70.1869 41.0694 70.1869L41.0689 70.1818ZM38.9521 62.4693C39.1007 62.4695 39.2446 62.5219 39.3586 62.6173C39.4726 62.7128 39.5494 62.8452 39.5758 62.9915C39.8085 64.282 40.1025 65.5768 40.449 66.84C40.4935 67.0024 40.4717 67.1758 40.3884 67.3222C40.305 67.4685 40.1669 67.5757 40.0045 67.6203C39.8421 67.6648 39.6686 67.643 39.5223 67.5596C39.376 67.4763 39.2687 67.3382 39.2242 67.1758C39.0628 66.5879 38.9129 65.9956 38.7746 65.3989L38.7493 65.2928V65.2903L38.7465 65.2783V65.274L38.7439 65.2626V65.258L38.7414 65.2468V65.2418L38.7389 65.2309L38.7376 65.225L38.7353 65.2151L38.7317 65.2065L38.7297 65.1974L38.7284 65.1918L38.7239 65.1715L38.7226 65.1659L38.7206 65.157L38.7188 65.1494L38.7165 65.1405L38.7147 65.1331L38.7127 65.124L38.7109 65.1166L38.7089 65.1077L38.7071 65.1001L38.7051 65.0915L38.7031 65.0829L38.7013 65.0753L38.6993 65.0661L38.6977 65.059L38.6949 65.0468V65.0428L38.6911 65.0263V65.0222L38.6883 65.0095V65.0049L38.6858 64.993V64.9874L38.6833 64.976V64.9709L38.6807 64.9595L38.6751 64.9526L38.6729 64.9417V64.9361L38.6703 64.9242V64.9196L38.667 64.9052V64.9034L38.6594 64.8691L38.6561 64.8539V64.8498L38.6533 64.8369V64.8328L38.6505 64.8206V64.8153L38.648 64.8031V64.7988L38.6452 64.7859V64.7821L38.6419 64.7671V64.7656L38.6307 64.7148L38.6272 64.6988V64.6968L38.615 64.6803V64.6767L38.6119 64.6628V64.66L38.6089 64.6455V64.6427L38.6056 64.6267L38.5944 64.5759L38.5909 64.5592V64.5569L38.5878 64.5429V64.5386L38.585 64.5257V64.5219L38.5822 64.5089V64.5049L38.5794 64.4909V64.4884L38.565 64.4198L38.5619 64.4046V64.4005L38.5591 64.3876V64.3835L38.5563 64.3706V64.3665L38.5535 64.3528V64.3498L38.5505 64.3356V64.3328L38.5472 64.3163L38.5401 64.2817V64.28L38.537 64.2655V64.2599L38.5348 64.2487V64.2432L38.5325 64.232V64.2267L38.5302 64.2147V64.2097L38.5279 64.198V64.1926L38.5254 64.1802V64.1759L38.5221 64.1594L38.5033 64.1404V64.1371L38.5007 64.1241L38.4995 64.1175L38.4974 64.1071V64.101L38.4931 64.0896L38.4919 64.0827L38.4901 64.0733L38.4886 64.066L38.4868 64.0571L38.4853 64.049L38.4835 64.0403L38.482 64.0327L38.4802 64.0236L38.4787 64.0157V64.0106L38.4741 63.987V63.9842L38.4721 63.9736V63.9677L38.47 63.9573V63.9515L38.468 63.9408V63.935L38.466 63.9241V63.9193L38.4637 63.9076V63.9033L38.4614 63.8911V63.8885L38.4467 63.8124L38.4436 63.7972L38.4406 63.7819C38.4042 63.5943 38.3691 63.4062 38.3352 63.2176C38.3187 63.1262 38.3225 63.0322 38.3463 62.9424C38.3701 62.8525 38.4134 62.769 38.473 62.6977C38.5327 62.6264 38.6072 62.5691 38.6915 62.5298C38.7757 62.4905 38.8675 62.4702 38.9605 62.4703L38.9521 62.4693ZM38.2342 54.5007C38.4025 54.5007 38.5639 54.5676 38.6829 54.6866C38.802 54.8056 38.8688 54.967 38.8688 55.1353C38.8711 56.4505 38.9318 57.7778 39.0488 59.0805C39.0642 59.2481 39.0124 59.415 38.9048 59.5444C38.7972 59.6738 38.6426 59.7552 38.475 59.7706C38.3074 59.786 38.1405 59.7342 38.0111 59.6266C37.8817 59.519 37.8003 59.3644 37.7849 59.1968C37.6893 58.1327 37.6306 57.059 37.6087 55.9758C37.6087 55.9451 37.6087 55.9149 37.607 55.8842C37.607 55.8781 37.607 55.8737 37.607 55.8677V55.8651C37.607 55.859 37.607 55.8555 37.607 55.8494V55.8471C37.607 55.841 37.607 55.8369 37.607 55.8308V55.8291C37.607 55.8169 37.607 55.8052 37.607 55.7928C37.607 55.7867 37.607 55.7821 37.607 55.776V55.7727C37.607 55.7682 37.607 55.7636 37.607 55.759C37.607 55.7544 37.607 55.7557 37.607 55.7539V55.7184C37.607 55.7138 37.607 55.7087 37.607 55.7042V55.7009C37.607 55.6887 37.607 55.678 37.607 55.6658V55.6318C37.607 55.629 37.607 55.6265 37.607 55.6237C37.607 55.6209 37.607 55.6181 37.607 55.6148C37.607 55.6115 37.607 55.609 37.607 55.6059V55.5978C37.607 55.5948 37.607 55.592 37.607 55.5889V55.5811C37.607 55.5737 37.607 55.5663 37.607 55.5592C37.607 55.5577 37.607 55.5572 37.607 55.5557V55.5049C37.607 55.5014 37.607 55.4976 37.607 55.494C37.607 55.4904 37.607 55.4897 37.607 55.4882C37.607 55.4866 37.607 55.4808 37.607 55.477V55.4719C37.607 55.4679 37.607 55.4638 37.607 55.46C37.607 55.4451 37.607 55.4303 37.607 55.4156V55.4082C37.607 55.4041 37.607 55.3998 37.607 55.3958C37.607 55.3917 37.607 55.3927 37.607 55.3912C37.607 55.3897 37.607 55.3828 37.607 55.3785C37.607 55.3742 37.607 55.3765 37.607 55.3749V55.3615C37.607 55.36 37.607 55.3615 37.607 55.3592C37.607 55.3279 37.607 55.2967 37.607 55.2655V55.2488H37.5996C37.5996 55.2115 37.5996 55.1742 37.5996 55.1368C37.5996 54.9685 37.6665 54.8071 37.7855 54.6881C37.9045 54.5691 38.0659 54.5022 38.2342 54.5022V54.5007ZM38.9216 46.5301C39.0144 46.53 39.106 46.5502 39.1901 46.5893C39.2742 46.6284 39.3487 46.6855 39.4084 46.7566C39.468 46.8276 39.5114 46.9108 39.5354 47.0004C39.5594 47.09 39.5635 47.1838 39.5473 47.2751C39.3189 48.5639 39.1473 49.8805 39.0346 51.1888C39.0274 51.2719 39.004 51.3527 38.9656 51.4267C38.9272 51.5007 38.8746 51.5664 38.8109 51.62C38.7471 51.6737 38.6734 51.7143 38.5939 51.7394C38.5145 51.7646 38.4308 51.7739 38.3478 51.7667C38.2648 51.7596 38.184 51.7361 38.11 51.6977C38.036 51.6594 37.9703 51.6068 37.9166 51.543C37.863 51.4792 37.8224 51.4055 37.7972 51.3261C37.7721 51.2466 37.7628 51.163 37.7699 51.0799C37.7992 50.7401 37.8322 50.4017 37.8689 50.0646L37.8705 50.0499V50.0481L37.872 50.0344V50.0316L37.8735 50.0179V50.0156L37.875 50.0019V49.9993L37.8814 49.943V49.9364V49.9273V49.9196V49.9108V49.9024V49.894V49.8851V49.8775V49.8666V49.8607L37.8829 49.8465V49.8437L37.887 49.809V49.8054L37.8885 49.7914V49.7874L37.89 49.7739V49.7699L37.8918 49.7554V49.7531L37.8938 49.7366C37.9984 48.8345 38.129 47.9402 38.2857 47.0538C38.312 46.905 38.3904 46.7704 38.5069 46.6743C38.6235 46.5781 38.7705 46.5267 38.9216 46.5293V46.5301ZM41.0115 38.807C41.1138 38.807 41.2146 38.8317 41.3053 38.879C41.3959 38.9264 41.4738 38.9949 41.5323 39.0789C41.5907 39.1628 41.6281 39.2597 41.641 39.3611C41.654 39.4626 41.6422 39.5657 41.6068 39.6616C41.1526 40.8913 40.7488 42.1561 40.4066 43.4213C40.3623 43.5832 40.2556 43.721 40.11 43.8044C39.9644 43.8879 39.7916 43.9102 39.6295 43.8666C39.4674 43.8229 39.3292 43.7168 39.2452 43.5715C39.1611 43.4262 39.1381 43.2536 39.181 43.0913C39.2289 42.9139 39.2779 42.7372 39.328 42.561L39.3326 42.5453V42.544L39.3372 42.5278L39.3709 42.41V42.4085L39.3765 42.3925L39.3811 42.3762L39.41 42.2747V42.2719L39.4141 42.2579V42.2554L39.4181 42.2414V42.2386L39.4222 42.2244V42.2221L39.4263 42.2079V42.2056L39.4308 42.1902L39.4504 42.1234V42.1216L39.4598 42.1069V42.1039L39.4638 42.0904V42.0868L39.4676 42.0742V42.0701L39.4714 42.0571V42.0541L39.4752 42.0409V42.0373L39.4796 42.0231V42.0211L39.4943 41.9719V41.9678L39.4978 41.9556L39.4991 41.951L39.5024 41.9396L39.5042 41.934L39.5075 41.9229L39.509 41.9178L39.5123 41.9066L39.5138 41.9013L39.5174 41.8896L39.5187 41.885L39.5222 41.8729V41.8688L39.5369 41.8198V41.816L39.5405 41.8038L39.5423 41.7982L39.5453 41.7878L39.5471 41.7817L39.5501 41.7721L39.5522 41.7652L39.555 41.7558L39.557 41.7495L39.5598 41.7401L39.5618 41.733L39.5646 41.7239L39.5666 41.7173L39.5697 41.7074L39.5717 41.701L39.5814 41.6693L39.5834 41.6629L39.5864 41.653L39.5885 41.6464L39.5913 41.637L39.5933 41.6302L39.5961 41.6208L39.5984 41.6137L39.6009 41.6053L39.6034 41.5972L39.606 41.5891L39.6083 41.5812L39.6108 41.5731L39.6133 41.5652L39.6159 41.5571L39.6184 41.549L39.6303 41.5413L39.6405 41.5081L39.6428 41.5007L39.6456 41.4916L39.6476 41.485L39.6506 41.4756L39.6527 41.4695L39.6557 41.4594L39.6575 41.4538L39.6605 41.4441L39.6626 41.4375L39.6656 41.4281L39.6677 41.4215L39.6704 41.4124L39.6727 41.4055L39.6755 41.3964L39.6781 41.3885L39.6803 41.3809L39.6836 41.3708L39.688 41.357L39.6902 41.3497L39.6935 41.3393L39.6951 41.3342L39.6981 41.3246L39.7001 41.3177L39.7029 41.3088L39.705 41.302L39.7078 41.2928L39.71 41.2857L39.7128 41.2771L39.7151 41.27L39.7179 41.2611L39.7202 41.2537L39.7227 41.2454L39.7248 41.2385L39.7278 41.2291L39.7291 41.2248L39.741 41.187L39.7423 41.1827L39.7453 41.173L39.7474 41.1667L39.7504 41.157L39.7524 41.1507L39.7552 41.1415L39.7575 41.1347L39.7606 41.1255L39.7626 41.1192L39.7656 41.1098L39.7677 41.1035L39.7707 41.0938L39.7725 41.0882L39.7758 41.0781L39.7773 41.0738L39.7908 41.0321L39.7941 41.022L39.7961 41.0159L39.7991 41.0062L39.8009 41.0004L39.8042 40.9905L39.8063 40.9844L39.8093 40.9748L39.8111 40.9692L39.8144 40.9593L39.8164 40.9532L39.8197 40.943L39.8212 40.9382L39.8248 40.9273L39.8263 40.9227L39.8299 40.9116V40.9088L39.8426 40.8699L39.8441 40.8656L39.8474 40.8555L39.8492 40.8499L39.8522 40.8405L39.8542 40.8339L39.8573 40.8245L39.8593 40.8184L39.8624 40.809L39.8644 40.8027L39.8674 40.793L39.8695 40.7869L39.8725 40.7775L39.8748 40.7709L39.8778 40.7615L39.8794 40.7567L39.8913 40.7202L39.8928 40.7153L39.8961 40.7057L39.8981 40.6999L39.9012 40.6907L39.9035 40.6839L39.9065 40.6747L39.9086 40.6684L39.9116 40.6592L39.9141 40.6519L39.9169 40.6438L39.9195 40.6361L39.9223 40.6278L39.9248 40.6201L39.9276 40.612L39.9301 40.6047L39.9329 40.596L39.9352 40.5894L39.9405 40.5732L39.9431 40.5653L39.9456 40.5577L39.9484 40.5496L39.9512 40.5415L39.9537 40.5338L39.9565 40.5252L39.9591 40.5179L39.9619 40.5095L39.9644 40.5019L39.9672 40.4937L39.9697 40.4859L39.9723 40.478L39.9751 40.4699L39.9779 40.462L39.9806 40.4536L39.9829 40.4465L39.9865 40.4356L39.988 40.4308L39.9933 40.4148V40.4117L39.9977 40.3993L39.9999 40.3922L40.003 40.3833L40.0053 40.3765L40.0083 40.3676L40.0106 40.3605L40.0136 40.3516L40.0162 40.3445L40.0192 40.3358L40.0238 40.33L40.0268 40.3209L40.0291 40.3143L40.0324 40.3044L40.0342 40.2988L40.0383 40.2869L40.0398 40.2828L40.0507 40.2506V40.249L40.0558 40.2346V40.2315L40.0604 40.2186V40.215L40.0644 40.2028L40.0659 40.1983L40.07 40.1866L40.0713 40.1828L40.0756 40.1701V40.1665L40.0801 40.1536V40.1508L40.0852 40.1361V40.1348L40.1078 40.0693V40.0678L40.1131 40.0528L40.1182 40.0378V40.0361L40.1233 40.0216V40.0198L40.1286 40.0046C40.2198 39.7431 40.3129 39.4842 40.4079 39.2248C40.4528 39.1012 40.535 38.9946 40.6431 38.9197C40.7513 38.8449 40.88 38.8055 41.0115 38.807ZM44.4422 31.5819C44.554 31.582 44.6638 31.6116 44.7605 31.6678C44.8572 31.724 44.9373 31.8047 44.9928 31.9018C45.0482 31.9989 45.077 32.109 45.0763 32.2208C45.0755 32.3326 45.0452 32.4422 44.9884 32.5386C44.3226 33.6687 43.7002 34.8417 43.1384 36.0251C43.1027 36.1004 43.0526 36.168 42.9908 36.224C42.929 36.2799 42.8568 36.3231 42.7783 36.3512C42.6998 36.3792 42.6165 36.3915 42.5332 36.3874C42.45 36.3832 42.3684 36.3627 42.293 36.3271C42.2177 36.2914 42.1501 36.2412 42.0942 36.1794C42.0382 36.1176 41.995 36.0454 41.9669 35.9669C41.9389 35.8884 41.9266 35.8051 41.9307 35.7219C41.9349 35.6386 41.9554 35.557 41.9911 35.4816C42.3004 34.8301 42.6246 34.187 42.9635 33.5524L42.9706 33.539L42.9778 33.5255L42.9851 33.5121L42.9922 33.4989V33.4974L42.9991 33.4847L43.0432 33.4027V33.4009L43.0491 33.3902L43.0514 33.3859L43.0564 33.3765L43.0592 33.3714L43.0643 33.3621L43.0671 33.3567L43.0719 33.3478L43.075 33.3423L43.0795 33.3339L43.0831 33.3275L43.0874 33.3194L43.091 33.3131L43.0953 33.3049L43.0991 33.2978L43.1031 33.2905L43.1072 33.2831L43.111 33.276L43.1186 33.2618L43.1207 33.258L43.1268 33.2468L43.1288 33.2433L43.1351 33.2318L43.1367 33.2293L43.1433 33.2171L43.1448 33.2141L43.1514 33.2021L43.1529 33.1993L43.1595 33.1872L43.161 33.1846L43.1679 33.1719V33.1702L43.1752 33.1569V33.1552C43.4073 32.7311 43.6458 32.3112 43.8908 31.8954C43.9471 31.7993 44.0277 31.7198 44.1245 31.6648C44.2213 31.6098 44.3308 31.5812 44.4422 31.5819ZM49.0986 25.0759C49.2201 25.0757 49.3391 25.1104 49.4415 25.1759C49.5438 25.2414 49.6253 25.3348 49.676 25.4452C49.7268 25.5556 49.7449 25.6782 49.728 25.7986C49.7112 25.9189 49.6601 26.0318 49.5809 26.124C48.7262 27.1191 47.9056 28.1639 47.1441 29.2298C47.0458 29.3657 46.8978 29.4572 46.7322 29.4843C46.5667 29.5114 46.3972 29.4719 46.2608 29.3743C46.1243 29.2768 46.032 29.1293 46.004 28.9639C45.976 28.7985 46.0147 28.6288 46.1114 28.4918C46.1647 28.4175 46.2188 28.3423 46.2726 28.2682L46.282 28.2553L46.2909 28.2428L46.2922 28.2411L46.3008 28.2291V28.2273L46.3092 28.2159L46.3112 28.2131L46.3198 28.2012L46.3295 28.1877L46.3698 28.1324L46.3797 28.119L46.3886 28.1068L46.3907 28.104L46.3988 28.0931L46.4006 28.0905L46.4087 28.0794L46.4107 28.0763L46.4183 28.0659L46.4206 28.0626L46.4277 28.0527L46.4333 28.0441L46.4409 28.0339L46.4429 28.0311L46.4511 28.02L46.4528 28.0174L46.4622 28.0045L46.4927 27.9631L46.5018 27.9507L46.5044 27.9474L46.5115 27.9377L46.515 27.9329L46.5216 27.924L46.5249 27.9194L46.5313 27.9108L46.5351 27.9057L46.5414 27.8971L46.5452 27.8918L46.5518 27.8829L46.5554 27.8783L46.5622 27.8689L46.565 27.8651L46.5719 27.856L46.5752 27.8514L46.5821 27.8423L46.5853 27.838L46.5927 27.8281L46.5952 27.8248L46.6153 27.7978L46.6176 27.7948L46.6252 27.7846L46.6282 27.7806L46.6351 27.7712L46.6387 27.7666L46.645 27.7582L46.6491 27.7529L46.6549 27.745L46.6592 27.7392L46.6648 27.7316L46.6689 27.726L46.6747 27.7181L46.679 27.7123L46.6849 27.7047L46.6887 27.6994L46.695 27.6907L46.6986 27.6859L46.7062 27.6757L46.7082 27.673L46.7166 27.6618L46.7184 27.6595L46.7488 27.6191L46.7506 27.6169L46.7585 27.6062L46.7618 27.6016L46.7686 27.5925L46.7714 27.5887L46.7785 27.5793L46.7816 27.5755L46.7889 27.5656L46.7915 27.562L46.7988 27.5524L46.8019 27.5483L46.809 27.5389L46.812 27.5349L46.8194 27.5252L46.8222 27.5217L46.8301 27.5113L46.8321 27.5085L46.8405 27.4976L46.8422 27.495L46.8831 27.4409V27.4394L46.8922 27.4275L46.8938 27.4257L46.9027 27.414L46.9042 27.412L46.9126 27.4008L46.9146 27.398L46.9225 27.3879L46.9263 27.3841L46.9341 27.3737L46.9359 27.3711L46.9448 27.3595V27.3579L46.9544 27.3455L47.027 27.2508L47.0367 27.2384L47.0463 27.2259L47.0562 27.2132C47.5576 26.5617 48.0764 25.9239 48.6125 25.2998C48.6723 25.2292 48.7468 25.1726 48.8308 25.134C48.9147 25.0953 49.0062 25.0755 49.0986 25.0759ZM54.8261 19.4914C54.9571 19.4913 55.0849 19.5318 55.192 19.6072C55.2991 19.6827 55.3802 19.7895 55.4242 19.9129C55.4682 20.0363 55.4729 20.1703 55.4377 20.2965C55.4025 20.4226 55.3291 20.5349 55.2276 20.6177C54.2123 21.4465 53.221 22.3309 52.2831 23.2465C52.1627 23.3641 52.0005 23.4291 51.8322 23.4272C51.6639 23.4253 51.5033 23.3566 51.3856 23.2362C51.268 23.1158 51.203 22.9536 51.2049 22.7853C51.2068 22.617 51.2755 22.4564 51.3959 22.3387C51.4705 22.266 51.5453 22.1934 51.6203 22.1212L51.7066 22.0382L51.7183 22.027L51.7198 22.0255L51.7305 22.0153L51.7322 22.0136L51.7421 22.0042L51.7452 22.0014L51.7543 21.9925L51.7571 21.9897L51.7663 21.9811L51.7698 21.9778L51.7784 21.9696L51.7817 21.9663L51.7904 21.958L51.7939 21.9547L51.8033 21.9458L51.8059 21.9432L51.8147 21.9331L51.8175 21.9306L51.8429 21.9075L51.8541 21.8968L51.8569 21.894L51.8658 21.8856L51.8703 21.8813L51.8779 21.8739L51.8823 21.8699L51.8901 21.8625L51.8944 21.8585L51.9023 21.8511L51.9069 21.8468L51.914 21.8402L51.9193 21.8351L51.9264 21.8285L51.9315 21.8239L51.9389 21.8168L51.9434 21.8125L51.9511 21.8054L51.9544 21.7996L51.9607 21.7935L51.9665 21.7881L51.9734 21.7818L51.9785 21.777L51.9904 21.7658L51.9929 21.7635L52.0023 21.7546L52.0077 21.7496L52.0143 21.7435L52.0201 21.7381L52.0264 21.732L52.0318 21.727L52.0386 21.7206L52.0442 21.7155L52.0506 21.7097L52.0564 21.7041L52.0622 21.6985L52.0686 21.6927L52.0744 21.6874L52.0803 21.6818L52.0866 21.6757L52.0924 21.6704L52.0988 21.6645L52.1046 21.6592L52.1107 21.6536L52.1171 21.6478L52.1232 21.6419L52.1287 21.6369L52.1356 21.6305L52.1498 21.6173L52.1529 21.6145L52.1617 21.6064L52.1648 21.6036L52.1724 21.5965L52.1772 21.5922L52.1843 21.5856L52.1892 21.5813L52.1963 21.5747L52.2013 21.5698L52.2079 21.5635L52.2133 21.5587L52.2199 21.5526L52.2257 21.5472L52.2321 21.5414L52.2374 21.5363L52.2442 21.53L52.2496 21.5252L52.2564 21.5188L52.2612 21.5142L52.2684 21.5077L52.2734 21.5031L52.2805 21.4965L52.2856 21.4919L52.2927 21.4856L52.3016 21.4774L52.31 21.4698L52.3168 21.4635L52.3224 21.4579L52.3288 21.4521L52.3346 21.4467L52.3407 21.4409L52.347 21.4351L52.3529 21.4297L52.3592 21.4239L52.3651 21.4186L52.3719 21.4125L52.3773 21.4076L52.3836 21.4018L52.3897 21.3962L52.3958 21.3906L52.4021 21.3848L52.4077 21.3797L52.4143 21.3739L52.4204 21.3683L52.4262 21.3627L52.4323 21.3571L52.4387 21.3513L52.4445 21.346L52.4529 21.3383L52.4565 21.335L52.4684 21.3241L52.4742 21.3188L52.4808 21.313L52.4859 21.3081L52.493 21.3018L52.4981 21.2972L52.5057 21.2904L52.5108 21.2858L52.5176 21.2797L52.5235 21.2744L52.5298 21.2685L52.5359 21.2629L52.542 21.2574L52.5481 21.2518L52.5542 21.2462L52.5605 21.2404L52.5659 21.2355L52.5727 21.2292L52.5786 21.2241L52.5846 21.2185L52.5923 21.2117L52.5966 21.2079L52.6065 21.199L52.609 21.1967L52.6215 21.1855L52.6331 21.1749L52.6354 21.1728L52.6453 21.1637L52.6489 21.1604L52.6575 21.1525L52.6618 21.1485L52.6697 21.1414L52.6745 21.1368L52.6824 21.1297L52.6864 21.1261L52.6953 21.118L52.6989 21.115L52.7078 21.1068L52.7113 21.1035L52.7199 21.0957L52.7237 21.0921L52.7329 21.084L52.7359 21.0812L52.7461 21.0721L52.7484 21.07L52.7991 21.0246L52.8113 21.0137L52.8225 21.0038L52.8245 21.002L52.8354 20.9924L52.837 20.9911L52.8479 20.9812L52.8497 20.9794L52.8606 20.9698L52.8623 20.9682L52.8738 20.9581L52.9885 20.8565L53.0009 20.8454C53.467 20.4325 53.9413 20.0292 54.4237 19.6356C54.5364 19.5419 54.6782 19.4903 54.8248 19.4896L54.8261 19.4914ZM61.4463 15.0009C61.5867 15.0011 61.7231 15.0478 61.8342 15.1338C61.9452 15.2197 62.0246 15.3401 62.0599 15.476C62.0952 15.612 62.0844 15.7558 62.0292 15.8849C61.974 16.014 61.8776 16.1212 61.7549 16.1897C60.6096 16.8258 59.4782 17.5216 58.3925 18.2577C58.2532 18.3499 58.0832 18.3834 57.9193 18.351C57.7554 18.3185 57.611 18.2228 57.5172 18.0846C57.4235 17.9463 57.388 17.7767 57.4185 17.6125C57.4491 17.4482 57.5431 17.3027 57.6803 17.2073C57.9422 17.0296 58.2062 16.8546 58.4722 16.6824L58.4849 16.6743L58.4969 16.6666L58.4989 16.6654L58.5101 16.6583L58.5129 16.6565L58.5233 16.6496L58.5268 16.6473L58.5372 16.6405L58.5398 16.639L58.5509 16.6316L58.553 16.6303L58.5644 16.623H58.5662L58.5781 16.6154L58.6289 16.5834L58.6327 16.5808L58.6421 16.5747L58.6464 16.572L58.656 16.5659L58.6601 16.5633L58.67 16.557L58.6741 16.5544L58.6829 16.5486L58.688 16.5453L58.6966 16.5397L58.702 16.5364L58.7104 16.5311L58.7164 16.5273L58.7243 16.5222L58.7309 16.5179L58.7378 16.5136L58.7456 16.5085L58.752 16.5044L58.7601 16.4994L58.7659 16.4958L58.7738 16.491L58.786 16.4831L58.7939 16.478L58.7992 16.4747L58.8076 16.4689L58.8129 16.4653L58.8215 16.4598L58.8271 16.4562L58.8355 16.4509L58.8411 16.4473L58.85 16.4417L58.855 16.4384L58.8639 16.4328L58.8693 16.4295L58.8784 16.4237L58.8835 16.4207L58.8929 16.4148L58.8974 16.4118L58.9081 16.4049L58.9111 16.4029L58.9685 16.3666L58.9825 16.358H58.9837L58.9967 16.3498H58.9985L59.0109 16.342L59.0134 16.3404L59.0256 16.3328H59.0274L59.0403 16.3247H59.0419L59.0556 16.3161C59.7386 15.8879 60.4333 15.4776 61.1399 15.0852C61.2331 15.0315 61.3386 15.0024 61.4463 15.0009ZM68.7569 11.7561C68.9073 11.756 69.0528 11.8093 69.1676 11.9066C69.2823 12.0038 69.3588 12.1386 69.3833 12.287C69.4079 12.4354 69.379 12.5876 69.3017 12.7167C69.2245 12.8457 69.1039 12.9431 68.9615 12.9915C67.7212 13.4139 66.4848 13.8977 65.2864 14.4298C65.2102 14.4636 65.1281 14.4821 65.0448 14.4842C64.9615 14.4863 64.8786 14.4719 64.8008 14.442C64.723 14.412 64.6519 14.3671 64.5915 14.3096C64.5311 14.2522 64.4826 14.1834 64.4488 14.1073C64.415 14.0311 64.3965 13.949 64.3944 13.8657C64.3923 13.7824 64.4067 13.6995 64.4366 13.6217C64.4666 13.5439 64.5115 13.4728 64.569 13.4124C64.6264 13.352 64.6952 13.3035 64.7713 13.2697C65.32 13.0262 65.8741 12.7933 66.4337 12.5709L66.4464 12.5658H66.449L66.4609 12.561L66.4642 12.5597L66.4761 12.5549H66.4792L66.4911 12.5503L66.4947 12.5491L66.5066 12.5445H66.5094L66.5216 12.5397H66.5236L66.5779 12.5184L66.5815 12.5171L66.5919 12.513L66.5967 12.511L66.6061 12.5072L66.6127 12.5046L66.6211 12.5013L66.6282 12.4986L66.6363 12.4953L66.6439 12.4922L66.6518 12.4892L66.6591 12.4864L66.6678 12.4831L66.6749 12.4803L66.683 12.477L66.6904 12.4742L66.6985 12.4711L66.7066 12.4681L66.7173 12.464L66.729 12.4595L66.7363 12.4567L66.7444 12.4534L66.7513 12.4506L66.7599 12.4473L66.7673 12.4445L66.7757 12.4412L66.783 12.4384L66.7909 12.4354L66.7988 12.4323L66.8069 12.4293L66.8137 12.4265L66.8229 12.4229L66.8292 12.4204L66.8391 12.4166L66.8444 12.4145L66.8551 12.4105L66.8602 12.4084L66.9077 12.3902H66.9104L66.9231 12.3853L66.928 12.3836L66.9394 12.3793L66.9437 12.3775L66.9549 12.3732L66.9599 12.3711L66.9711 12.3668L66.9757 12.365L66.9871 12.3607L66.9914 12.3589L67.0036 12.3544L67.0069 12.3531L67.0199 12.348H67.0229L67.0709 12.3298H67.0724L67.0866 12.3244H67.0899L67.1026 12.3196H67.1059L67.1183 12.3148L67.1224 12.3133L67.1343 12.3087L67.1384 12.3072L67.1503 12.3026L67.1544 12.3011L67.1668 12.2962H67.1699L67.1826 12.2914L67.1864 12.2902L67.2498 12.2663L67.2539 12.2648L67.2658 12.2602L67.2701 12.2587L67.2816 12.2544L67.2866 12.2526L67.2976 12.2485L67.3029 12.2465L67.313 12.2427L67.3189 12.2407L67.33 12.2366L67.3344 12.2351L67.3473 12.2302H67.3501L67.3983 12.2122H67.3999L67.4141 12.2069L67.4186 12.2051L67.4298 12.2011L67.4354 12.199L67.4453 12.1955L67.4519 12.1929L67.461 12.1896L67.4674 12.1873L67.477 12.1838L67.4836 12.1813L67.4925 12.178L67.4994 12.1754L67.5082 12.1721L67.5151 12.1696L67.5275 12.1536L67.5331 12.1516L67.5443 12.1475L67.555 12.1437L67.5643 12.1401L67.5727 12.1371L67.5796 12.1345L67.588 12.1315L67.5958 12.1287L67.6037 12.1259L67.6113 12.1231L67.6199 12.1201L67.627 12.1175L67.6359 12.1142L67.6423 12.112L67.6514 12.1087L67.658 12.1064L67.6672 12.1031L67.6727 12.101L67.6826 12.0975L67.688 12.0957L67.6986 12.0919L67.7428 12.0759L67.756 12.0711H67.758L67.7702 12.0668H67.7735L67.7862 12.0622H67.7882L67.8012 12.0576H67.8037L67.8164 12.0531H67.8187L67.8316 12.0485H67.8332C68.0723 11.9625 68.3123 11.8785 68.5533 11.7964C68.6188 11.7719 68.688 11.7583 68.7579 11.7563L68.7569 11.7561ZM76.5298 9.86495C76.6901 9.86478 76.8445 9.92528 76.962 10.0343C77.0795 10.1433 77.1514 10.2927 77.1633 10.4526C77.1752 10.6124 77.1261 10.7709 77.0259 10.896C76.9258 11.0212 76.782 11.1038 76.6234 11.1273C75.3261 11.3225 74.0228 11.5784 72.7503 11.8888C72.5878 11.926 72.4172 11.8977 72.2754 11.8101C72.1336 11.7225 72.0319 11.5825 71.9924 11.4206C71.9529 11.2586 71.9787 11.0876 72.0642 10.9446C72.1498 10.8015 72.2882 10.6978 72.4495 10.6559C72.5655 10.6277 72.6831 10.5996 72.7996 10.5722L72.8679 10.5562H72.8709L72.8836 10.5516H72.8884L72.8996 10.5491L72.9057 10.5475L72.9161 10.545L72.9224 10.5435L72.9326 10.5412L72.9389 10.5397L72.9488 10.5374L72.9557 10.5359L72.9641 10.5338L72.9724 10.5318L72.9978 10.5262L73.0044 10.5247L73.0136 10.5227L73.0207 10.5211L73.0298 10.5191L73.0367 10.5176L73.0466 10.5153L73.0529 10.5138L73.0626 10.5115L73.0689 10.51L73.0793 10.5077H73.0836L73.0956 10.5049H73.0978L73.1555 10.4919H73.1583L73.1712 10.4891H73.1742L73.1864 10.4864H73.1905L73.2029 10.4836H73.2055L73.2192 10.4805L73.3098 10.4602H73.3113L73.3255 10.4572H73.3271L73.341 10.4541H73.3428L73.357 10.4511L73.4646 10.4275L73.6187 10.394L73.7411 10.3686H73.7429L73.7568 10.3655H73.7586L73.7728 10.3625L73.8634 10.3434H73.8657L73.8784 10.3406H73.882L73.8941 10.3381H73.8982L73.9101 10.3356H73.9144L73.9261 10.3333H73.9304L73.9429 10.3307L73.9873 10.3216H73.9896L74.0013 10.3191H74.0056L74.0165 10.3168H74.0221L74.0322 10.3148L74.0386 10.3135L74.0482 10.3115L74.0553 10.3099L74.0647 10.3079H74.0708L74.0815 10.3056H74.0858L74.1213 10.2983L74.1295 10.2965L74.1371 10.295L74.146 10.2932L74.1533 10.2917L74.1627 10.2896L74.1693 10.2884L74.1797 10.2863L74.1861 10.2851L74.1967 10.283H74.2026L74.2135 10.2807H74.2193L74.2338 10.278H74.2353L74.2861 10.2678H74.2891L74.3036 10.265H74.3059L74.3206 10.262H74.3234L74.3381 10.2589H74.3404L74.3556 10.2559H74.3574C75.0443 10.1198 75.7347 9.99949 76.4326 9.8944C76.4645 9.88196 76.4973 9.87212 76.5308 9.86495H76.5298ZM83.2911 9.36133H83.7493H83.7889H83.8818H83.9206H83.9922H84.0303H84.1031H84.1572H84.2138L84.2859 9.36285H84.3037H84.3217H84.341L84.4138 9.36463H84.4319H84.4504L84.5418 9.36691C85.4844 9.3923 86.4196 9.44594 87.3475 9.52785C87.5141 9.54407 87.6676 9.6255 87.7745 9.75439C87.8814 9.88327 87.933 10.0492 87.9181 10.2159C87.9032 10.3827 87.823 10.5368 87.6949 10.6447C87.5669 10.7526 87.4014 10.8056 87.2345 10.792C85.9338 10.6887 84.6063 10.6305 83.2911 10.6305C82.3791 10.6305 81.4568 10.6585 80.5496 10.7138C80.383 10.7219 80.2198 10.664 80.0955 10.5527C79.9712 10.4415 79.8957 10.2857 79.8854 10.1192C79.8751 9.95263 79.9308 9.78875 80.0404 9.66297C80.1501 9.53719 80.3048 9.45965 80.4712 9.44713H80.4826H80.4844H80.5011H80.5032L80.5707 9.44307H80.5763H80.5892H80.5961H80.6088H80.6159H80.6283H80.6354H80.657H80.6661H80.6763H80.6961H80.7161H80.7281H80.7364H80.755H80.7565H80.7765H80.7831H80.7974H80.8042H80.8179H80.825H80.8403H80.8451L80.8867 9.44078H80.8898H80.9075H80.9118H80.9296H80.9327H80.9527L80.9959 9.4385H80.9971H81.0169H81.0195H81.0385H81.0408L81.1271 9.43443H81.1477L81.2604 9.4055C81.5819 9.39145 81.9044 9.3807 82.228 9.37326H82.2493L82.3369 9.37148H82.3382H82.3585H82.3603L82.4466 9.36996H82.4925H82.5357H82.6032H82.6461H82.7139H82.7563H82.8248H82.8715H83.2911V9.36133Z" fill="#D7D7D7"/>
</svg>
