<svg xmlns="http://www.w3.org/2000/svg" fill="none" >
    <symbol id="alt-arrow-left" width="var(--svg-icon-size)" height="var(--svg-icon-size)" viewBox="0 0 24 24">
        <path d="M15 5L9 12L15 19" stroke="currentColor" stroke-width="1.5" stroke-linecap="round" stroke-linejoin="round"/>
    </symbol>
    <symbol id="refresh" width="var(--svg-icon-size)" height="var(--svg-icon-size)" viewBox="0 0 24 24">
        <path d="M3.67981 11.3333H2.92981H3.67981ZM3.67981 13L3.15157 13.5324C3.44398 13.8225 3.91565 13.8225 4.20805 13.5324L3.67981 13ZM5.88787 11.8657C6.18191 11.574 6.18377 11.0991 5.89203 10.8051C5.60029 10.511 5.12542 10.5092 4.83138 10.8009L5.88787 11.8657ZM2.52824 10.8009C2.2342 10.5092 1.75933 10.511 1.46759 10.8051C1.17585 11.0991 1.17772 11.574 1.47176 11.8657L2.52824 10.8009ZM18.6156 7.39279C18.8325 7.74565 19.2944 7.85585 19.6473 7.63892C20.0001 7.42199 20.1103 6.96007 19.8934 6.60721L18.6156 7.39279ZM12.0789 2.25C7.03155 2.25 2.92981 6.3112 2.92981 11.3333H4.42981C4.42981 7.15072 7.84884 3.75 12.0789 3.75V2.25ZM2.92981 11.3333L2.92981 13H4.42981L4.42981 11.3333H2.92981ZM4.20805 13.5324L5.88787 11.8657L4.83138 10.8009L3.15157 12.4676L4.20805 13.5324ZM4.20805 12.4676L2.52824 10.8009L1.47176 11.8657L3.15157 13.5324L4.20805 12.4676ZM19.8934 6.60721C18.287 3.99427 15.3873 2.25 12.0789 2.25V3.75C14.8484 3.75 17.2727 5.20845 18.6156 7.39279L19.8934 6.60721Z" fill="currentColor"/>
        <path d="M20.3139 11L20.8411 10.4666C20.549 10.1778 20.0788 10.1778 19.7867 10.4666L20.3139 11ZM18.1004 12.1333C17.8058 12.4244 17.8031 12.8993 18.0942 13.1939C18.3854 13.4885 18.8603 13.4913 19.1549 13.2001L18.1004 12.1333ZM21.4729 13.2001C21.7675 13.4913 22.2424 13.4885 22.5335 13.1939C22.8247 12.8993 22.822 12.4244 22.5274 12.1332L21.4729 13.2001ZM5.31794 16.6061C5.1004 16.2536 4.6383 16.1442 4.28581 16.3618C3.93331 16.5793 3.82391 17.0414 4.04144 17.3939L5.31794 16.6061ZM11.8827 21.75C16.9451 21.75 21.0639 17.6915 21.0639 12.6667H19.5639C19.5639 16.8466 16.1332 20.25 11.8827 20.25V21.75ZM21.0639 12.6667V11H19.5639V12.6667H21.0639ZM19.7867 10.4666L18.1004 12.1333L19.1549 13.2001L20.8411 11.5334L19.7867 10.4666ZM19.7867 11.5334L21.4729 13.2001L22.5274 12.1332L20.8411 10.4666L19.7867 11.5334ZM4.04144 17.3939C5.65405 20.007 8.56403 21.75 11.8827 21.75V20.25C9.10023 20.25 6.66584 18.7903 5.31794 16.6061L4.04144 17.3939Z" fill="currentColor"/>
    </symbol>
    <symbol id="file-download" width="var(--svg-icon-size)" height="var(--svg-icon-size)" viewBox="0 0 24 24">
        <path d="M15.3929 4.05365L14.8912 4.61112L15.3929 4.05365ZM19.3517 7.61654L18.85 8.17402L19.3517 7.61654ZM21.654 10.1541L20.9689 10.4592V10.4592L21.654 10.1541ZM3.17157 20.8284L3.7019 20.2981H3.7019L3.17157 20.8284ZM20.8284 20.8284L20.2981 20.2981L20.2981 20.2981L20.8284 20.8284ZM14 21.25H10V22.75H14V21.25ZM2.75 14V10H1.25V14H2.75ZM21.25 13.5629V14H22.75V13.5629H21.25ZM14.8912 4.61112L18.85 8.17402L19.8534 7.05907L15.8947 3.49618L14.8912 4.61112ZM22.75 13.5629C22.75 11.8745 22.7651 10.8055 22.3391 9.84897L20.9689 10.4592C21.2349 11.0565 21.25 11.742 21.25 13.5629H22.75ZM18.85 8.17402C20.2034 9.3921 20.7029 9.86199 20.9689 10.4592L22.3391 9.84897C21.9131 8.89241 21.1084 8.18853 19.8534 7.05907L18.85 8.17402ZM10.0298 2.75C11.6116 2.75 12.2085 2.76158 12.7405 2.96573L13.2779 1.5653C12.4261 1.23842 11.498 1.25 10.0298 1.25V2.75ZM15.8947 3.49618C14.8087 2.51878 14.1297 1.89214 13.2779 1.5653L12.7405 2.96573C13.2727 3.16993 13.7215 3.55836 14.8912 4.61112L15.8947 3.49618ZM10 21.25C8.09318 21.25 6.73851 21.2484 5.71085 21.1102C4.70476 20.975 4.12511 20.7213 3.7019 20.2981L2.64124 21.3588C3.38961 22.1071 4.33855 22.4392 5.51098 22.5969C6.66182 22.7516 8.13558 22.75 10 22.75V21.25ZM1.25 14C1.25 15.8644 1.24841 17.3382 1.40313 18.489C1.56076 19.6614 1.89288 20.6104 2.64124 21.3588L3.7019 20.2981C3.27869 19.8749 3.02502 19.2952 2.88976 18.2892C2.75159 17.2615 2.75 15.9068 2.75 14H1.25ZM14 22.75C15.8644 22.75 17.3382 22.7516 18.489 22.5969C19.6614 22.4392 20.6104 22.1071 21.3588 21.3588L20.2981 20.2981C19.8749 20.7213 19.2952 20.975 18.2892 21.1102C17.2615 21.2484 15.9068 21.25 14 21.25V22.75ZM21.25 14C21.25 15.9068 21.2484 17.2615 21.1102 18.2892C20.975 19.2952 20.7213 19.8749 20.2981 20.2981L21.3588 21.3588C22.1071 20.6104 22.4392 19.6614 22.5969 18.489C22.7516 17.3382 22.75 15.8644 22.75 14H21.25ZM2.75 10C2.75 8.09318 2.75159 6.73851 2.88976 5.71085C3.02502 4.70476 3.27869 4.12511 3.7019 3.7019L2.64124 2.64124C1.89288 3.38961 1.56076 4.33855 1.40313 5.51098C1.24841 6.66182 1.25 8.13558 1.25 10H2.75ZM10.0298 1.25C8.15538 1.25 6.67442 1.24842 5.51887 1.40307C4.34232 1.56054 3.39019 1.8923 2.64124 2.64124L3.7019 3.7019C4.12453 3.27928 4.70596 3.02525 5.71785 2.88982C6.75075 2.75158 8.11311 2.75 10.0298 2.75V1.25Z" fill="currentColor"/>
        <path d="M13 2.5V5C13 7.35702 13 8.53553 13.7322 9.26777C14.4645 10 15.643 10 18 10H22" stroke="currentColor" stroke-width="1.5"/>
        <path d="M8.5 13.5L8.5 18.5M8.5 18.5L10.5 16.625M8.5 18.5L6.5 16.625" stroke="currentColor" stroke-width="1.5" stroke-linecap="round" stroke-linejoin="round"/>
    </symbol>
    <symbol id="calendar-mark" width="var(--svg-icon-size)" height="var(--svg-icon-size)" viewBox="0 0 24 24">
        <path d="M2 12C2 8.22876 2 6.34315 3.17157 5.17157C4.34315 4 6.22876 4 10 4H14C17.7712 4 19.6569 4 20.8284 5.17157C22 6.34315 22 8.22876 22 12V14C22 17.7712 22 19.6569 20.8284 20.8284C19.6569 22 17.7712 22 14 22H10C6.22876 22 4.34315 22 3.17157 20.8284C2 19.6569 2 17.7712 2 14V12Z" stroke="currentColor" stroke-width="1.5"/>
        <path d="M7 4V2.5" stroke="currentColor" stroke-width="1.5" stroke-linecap="round"/>
        <path d="M17 4V2.5" stroke="currentColor" stroke-width="1.5" stroke-linecap="round"/>
        <circle cx="16.5" cy="16.5" r="1.5" stroke="currentColor" stroke-width="1.5"/>
        <path d="M2.5 9H21.5" stroke="currentColor" stroke-width="1.5" stroke-linecap="round"/>
    </symbol>
    <symbol id="alt-arrow-down" width="var(--svg-icon-size)" height="var(--svg-icon-size)" viewBox="0 0 24 24">
        <path d="M19 9L12 15L5 9" stroke="currentColor" stroke-width="1.5" stroke-linecap="round" stroke-linejoin="round"/>
    </symbol>
    <symbol id="calendar-minimalistic" width="var(--svg-icon-size)" height="var(--svg-icon-size)" viewBox="0 0 24 24">
        <path d="M2 12C2 8.22876 2 6.34315 3.17157 5.17157C4.34315 4 6.22876 4 10 4H14C17.7712 4 19.6569 4 20.8284 5.17157C22 6.34315 22 8.22876 22 12V14C22 17.7712 22 19.6569 20.8284 20.8284C19.6569 22 17.7712 22 14 22H10C6.22876 22 4.34315 22 3.17157 20.8284C2 19.6569 2 17.7712 2 14V12Z" stroke="currentColor" stroke-width="1.5"/>
        <path d="M7 4V2.5" stroke="currentColor" stroke-width="1.5" stroke-linecap="round"/>
        <path d="M17 4V2.5" stroke="currentColor" stroke-width="1.5" stroke-linecap="round"/>
        <path d="M2.5 9H21.5" stroke="currentColor" stroke-width="1.5" stroke-linecap="round"/>
    </symbol>
    <symbol id="close" width="var(--svg-icon-size)" height="var(--svg-icon-size)" viewBox="0 0 24 24">
        <path d="M17 7.00004L7 17M6.99996 7L16.9999 17" stroke="currentColor" stroke-width="1.5" stroke-linecap="round"/>
    </symbol>
    <symbol id="unread" width="var(--svg-icon-size)" height="var(--svg-icon-size)" viewBox="0 0 24 24">
        <path d="M7 12.9L10.1429 16.5L18 7.5" stroke="currentColor" stroke-width="1.5" stroke-linecap="round" stroke-linejoin="round"/>
    </symbol>
    <symbol id="calendar-search" width="var(--svg-icon-size)" height="var(--svg-icon-size)" viewBox="0 0 24 24">
        <path d="M22 14V12C22 8.22876 22 6.34315 20.8284 5.17157C19.6569 4 17.7712 4 14 4H10C6.22876 4 4.34315 4 3.17157 5.17157C2 6.34315 2 8.22876 2 12V14C2 17.7712 2 19.6569 3.17157 20.8284C4.34315 22 6.22876 22 10 22H14" stroke="currentColor" stroke-width="1.5" stroke-linecap="round"/>
        <path d="M7 4V2.5" stroke="currentColor" stroke-width="1.5" stroke-linecap="round"/>
        <path d="M17 4V2.5" stroke="currentColor" stroke-width="1.5" stroke-linecap="round"/>
        <circle cx="18" cy="18" r="3" stroke="currentColor" stroke-width="1.5"/>
        <path d="M20.5 20.5L22 22" stroke="currentColor" stroke-width="1.5" stroke-linecap="round"/>
        <path d="M2.5 9H21.5" stroke="currentColor" stroke-width="1.5" stroke-linecap="round"/>
    </symbol>
    <symbol id="check-read" width="var(--svg-icon-size)" height="var(--svg-icon-size)" viewBox="0 0 24 24">
        <path d="M4 12.9L7.14286 16.5L15 7.5" stroke="currentColor" stroke-width="1.5" stroke-linecap="round" stroke-linejoin="round"/>
        <path d="M20 7.5625L11.4283 16.5625L11 16" stroke="currentColor" stroke-width="1.5" stroke-linecap="round" stroke-linejoin="round"/>
    </symbol>
    <symbol id="minimalistic-magnifer" width="var(--svg-icon-size)" height="var(--svg-icon-size)" viewBox="0 0 24 24">
        <circle cx="11.5" cy="11.5" r="9.5" stroke="currentColor" stroke-width="1.5"/>
        <path d="M20 20L22 22" stroke="currentColor" stroke-width="1.5" stroke-linecap="round"/>
    </symbol>
    <symbol id="question-circle" width="var(--svg-icon-size)" height="var(--svg-icon-size)" viewBox="0 0 24 24">
        <g clip-path="url(#clip0_3474_1240)">
            <path d="M8.4375 7.39587C8.4375 6.53293 9.13706 5.83337 10 5.83337C10.8629 5.83337 11.5625 6.53293 11.5625 7.39587C11.5625 7.96875 11.2542 8.46961 10.7945 8.7416C10.3984 8.97595 10 9.33147 10 9.79171V10.8334" stroke="currentColor" stroke-width="1.5" stroke-linecap="round"/>
            <circle cx="10.0003" cy="13.3333" r="0.833333" fill="currentColor"/>
        <path d="M5.83366 2.78148C7.05938 2.07244 8.48246 1.66663 10.0003 1.66663C14.6027 1.66663 18.3337 5.39759 18.3337 9.99996C18.3337 14.6023 14.6027 18.3333 10.0003 18.3333C5.39795 18.3333 1.66699 14.6023 1.66699 9.99996C1.66699 8.4821 2.0728 7.05901 2.78184 5.83329" stroke="currentColor" stroke-width="1.5" stroke-linecap="round"/>
        </g>
        <defs>
            <clipPath id="clip0_3474_1240">
                <rect width="20" height="20" fill="white"/>
            </clipPath>
        </defs>
    </symbol>
    <symbol id="eye" width="var(--svg-icon-size)" height="var(--svg-icon-size)" viewBox="0 0 24 24">
        <path d="M9 4.45962C9.91153 4.16968 10.9104 4 12 4C16.1819 4 19.028 6.49956 20.7251 8.70433C21.575 9.80853 22 10.3606 22 12C22 13.6394 21.575 14.1915 20.7251 15.2957C19.028 17.5004 16.1819 20 12 20C7.81811 20 4.97196 17.5004 3.27489 15.2957C2.42496 14.1915 2 13.6394 2 12C2 10.3606 2.42496 9.80853 3.27489 8.70433C3.75612 8.07914 4.32973 7.43025 5 6.82137" stroke="currentColor" stroke-width="1.5" stroke-linecap="round"/>
        <path d="M15 12C15 13.6569 13.6569 15 12 15C10.3431 15 9 13.6569 9 12C9 10.3431 10.3431 9 12 9C13.6569 9 15 10.3431 15 12Z" fill="currentColor" stroke="currentColor" stroke-width="1.5"/>
    </symbol>
    <symbol id="eye-closed" width="var(--svg-icon-size)" height="var(--svg-icon-size)" viewBox="0 0 24 24">
        <path d="M2.68936 6.70456C2.52619 6.32384 2.08528 6.14747 1.70456 6.31064C1.32384 6.47381 1.14747 6.91472 1.31064 7.29544L2.68936 6.70456ZM15.5872 13.3287L15.3125 12.6308L15.5872 13.3287ZM9.04145 13.7377C9.26736 13.3906 9.16904 12.926 8.82185 12.7001C8.47466 12.4742 8.01008 12.5725 7.78417 12.9197L9.04145 13.7377ZM6.37136 15.091C6.14545 15.4381 6.24377 15.9027 6.59096 16.1286C6.93815 16.3545 7.40273 16.2562 7.62864 15.909L6.37136 15.091ZM22.6894 7.29544C22.8525 6.91472 22.6762 6.47381 22.2954 6.31064C21.9147 6.14747 21.4738 6.32384 21.3106 6.70456L22.6894 7.29544ZM19 11.1288L18.4867 10.582V10.582L19 11.1288ZM19.9697 13.1592C20.2626 13.4521 20.7374 13.4521 21.0303 13.1592C21.3232 12.8663 21.3232 12.3914 21.0303 12.0985L19.9697 13.1592ZM11.25 16.5C11.25 16.9142 11.5858 17.25 12 17.25C12.4142 17.25 12.75 16.9142 12.75 16.5H11.25ZM16.3714 15.909C16.5973 16.2562 17.0619 16.3545 17.409 16.1286C17.7562 15.9027 17.8545 15.4381 17.6286 15.091L16.3714 15.909ZM5.53033 11.6592C5.82322 11.3663 5.82322 10.8914 5.53033 10.5985C5.23744 10.3056 4.76256 10.3056 4.46967 10.5985L5.53033 11.6592ZM2.96967 12.0985C2.67678 12.3914 2.67678 12.8663 2.96967 13.1592C3.26256 13.4521 3.73744 13.4521 4.03033 13.1592L2.96967 12.0985ZM12 13.25C8.77611 13.25 6.46133 11.6446 4.9246 9.98966C4.15645 9.16243 3.59325 8.33284 3.22259 7.71014C3.03769 7.3995 2.90187 7.14232 2.8134 6.96537C2.76919 6.87696 2.73689 6.80875 2.71627 6.76411C2.70597 6.7418 2.69859 6.7254 2.69411 6.71533C2.69187 6.7103 2.69036 6.70684 2.68957 6.70503C2.68917 6.70413 2.68896 6.70363 2.68892 6.70355C2.68891 6.70351 2.68893 6.70357 2.68901 6.70374C2.68904 6.70382 2.68913 6.70403 2.68915 6.70407C2.68925 6.7043 2.68936 6.70456 2 7C1.31064 7.29544 1.31077 7.29575 1.31092 7.29609C1.31098 7.29624 1.31114 7.2966 1.31127 7.2969C1.31152 7.29749 1.31183 7.2982 1.31218 7.299C1.31287 7.30062 1.31376 7.30266 1.31483 7.30512C1.31698 7.31003 1.31988 7.31662 1.32353 7.32483C1.33083 7.34125 1.34115 7.36415 1.35453 7.39311C1.38127 7.45102 1.42026 7.5332 1.47176 7.63619C1.57469 7.84206 1.72794 8.13175 1.93366 8.47736C2.34425 9.16716 2.96855 10.0876 3.8254 11.0103C5.53867 12.8554 8.22389 14.75 12 14.75V13.25ZM15.3125 12.6308C14.3421 13.0128 13.2417 13.25 12 13.25V14.75C13.4382 14.75 14.7246 14.4742 15.8619 14.0266L15.3125 12.6308ZM7.78417 12.9197L6.37136 15.091L7.62864 15.909L9.04145 13.7377L7.78417 12.9197ZM22 7C21.3106 6.70456 21.3107 6.70441 21.3108 6.70427C21.3108 6.70423 21.3108 6.7041 21.3109 6.70402C21.3109 6.70388 21.311 6.70376 21.311 6.70368C21.3111 6.70352 21.3111 6.70349 21.3111 6.7036C21.311 6.7038 21.3107 6.70452 21.3101 6.70576C21.309 6.70823 21.307 6.71275 21.3041 6.71924C21.2983 6.73223 21.2889 6.75309 21.2758 6.78125C21.2495 6.83757 21.2086 6.92295 21.1526 7.03267C21.0406 7.25227 20.869 7.56831 20.6354 7.9432C20.1669 8.69516 19.4563 9.67197 18.4867 10.582L19.5133 11.6757C20.6023 10.6535 21.3917 9.56587 21.9085 8.73646C22.1676 8.32068 22.36 7.9668 22.4889 7.71415C22.5533 7.58775 22.602 7.48643 22.6353 7.41507C22.6519 7.37939 22.6647 7.35118 22.6737 7.33104C22.6782 7.32097 22.6818 7.31292 22.6844 7.30696C22.6857 7.30398 22.6867 7.30153 22.6876 7.2996C22.688 7.29864 22.6883 7.29781 22.6886 7.29712C22.6888 7.29677 22.6889 7.29646 22.689 7.29618C22.6891 7.29604 22.6892 7.29585 22.6892 7.29578C22.6893 7.29561 22.6894 7.29544 22 7ZM18.4867 10.582C17.6277 11.3882 16.5739 12.1343 15.3125 12.6308L15.8619 14.0266C17.3355 13.4466 18.5466 12.583 19.5133 11.6757L18.4867 10.582ZM18.4697 11.6592L19.9697 13.1592L21.0303 12.0985L19.5303 10.5985L18.4697 11.6592ZM11.25 14V16.5H12.75V14H11.25ZM14.9586 13.7377L16.3714 15.909L17.6286 15.091L16.2158 12.9197L14.9586 13.7377ZM4.46967 10.5985L2.96967 12.0985L4.03033 13.1592L5.53033 11.6592L4.46967 10.5985Z" fill="currentColor"/>
    </symbol>
    <symbol id="time" width="var(--svg-icon-size)" height="var(--svg-icon-size)" viewBox="0 0 24 24">
        <path d="M2 12C2 17.5228 6.47715 22 12 22C13.8214 22 15.5291 21.513 17 20.6622M12 2C17.5228 2 22 6.47715 22 12C22 13.8214 21.513 15.5291 20.6622 17" stroke="currentColor" stroke-width="1.5" stroke-linecap="round"/>
        <path d="M12 9V13H16" stroke="currentColor" stroke-width="1.5" stroke-linecap="round" stroke-linejoin="round"/>
        <path d="M17 20.6622C15.5291 21.513 13.8214 22 12 22C6.47715 22 2 17.5228 2 12C2 6.47715 6.47715 2 12 2C17.5228 2 22 6.47715 22 12C22 13.8214 21.513 15.5291 20.6622 17" stroke="currentColor" stroke-width="1.5" stroke-linecap="round" stroke-dasharray="0.5 3.5"/>
    </symbol>
    <symbol id="alt-arrow-up" width="var(--svg-icon-size)" height="var(--svg-icon-size)" viewBox="0 0 24 24">
        <path d="M19 15L12 9L5 15" stroke="currentColor" stroke-width="1.5" stroke-linecap="round" stroke-linejoin="round"/>
    </symbol>
    <symbol id="check-square" width="var(--svg-icon-size)" height="var(--svg-icon-size)" viewBox="0 0 24 24">
        <path d="M8.5 12.5L10.5 14.5L15.5 9.5" stroke="currentColor" stroke-width="1.5" stroke-linecap="round" stroke-linejoin="round"/>
        <path d="M22 12C22 16.714 22 19.0711 20.5355 20.5355C19.0711 22 16.714 22 12 22C7.28595 22 4.92893 22 3.46447 20.5355C2 19.0711 2 16.714 2 12C2 7.28595 2 4.92893 3.46447 3.46447C4.92893 2 7.28595 2 12 2C16.714 2 19.0711 2 20.5355 3.46447C21.5093 4.43821 21.8356 5.80655 21.9449 8" stroke="currentColor" stroke-width="1.5" stroke-linecap="round"/>
    </symbol>
    <symbol id="danger-triangle" width="var(--svg-icon-size)" height="var(--svg-icon-size)" viewBox="0 0 24 24">
        <path d="M6.30928 9C8.59494 5 9.96832 3 12 3C14.3107 3 15.7699 5.58716 18.6883 10.7615L19.0519 11.4063C21.4771 15.7061 22.6897 17.856 21.5937 19.428C20.4978 21 17.7864 21 12.3637 21H11.6363C6.21356 21 3.50217 21 2.40626 19.428C1.45498 18.0635 2.24306 16.2635 4.05373 13" stroke="currentColor" stroke-width="1.5" stroke-linecap="round"/>
        <path d="M12 8V13" stroke="currentColor" stroke-width="1.5" stroke-linecap="round"/>
        <circle cx="12" cy="16" r="1" fill="currentColor"/>
    </symbol>
    <symbol id="broken-arrow-left" width="var(--svg-icon-size)" height="var(--svg-icon-size)" viewBox="0 0 24 24">
        <path d="M4 12L10 6M4 12L10 18M4 12H14.5M20 12H17.5" stroke="currentColor" stroke-width="1.5" stroke-linecap="round" stroke-linejoin="round"/>
    </symbol>
    <symbol id="broken-money-card2" width="var(--svg-icon-size)" height="var(--svg-icon-size)" viewBox="0 0 24 24">
        <path d="M10 16.5H6" stroke="currentColor" stroke-width="1.5" stroke-linecap="round"/>
        <path d="M8 13.5H6" stroke="currentColor" stroke-width="1.5" stroke-linecap="round"/>
        <path d="M14 15C14 14.0572 14 13.5858 14.2929 13.2929C14.5858 13 15.0572 13 16 13C16.9428 13 17.4142 13 17.7071 13.2929C18 13.5858 18 14.0572 18 15C18 15.9428 18 16.4142 17.7071 16.7071C17.4142 17 16.9428 17 16 17C15.0572 17 14.5858 17 14.2929 16.7071C14 16.4142 14 15.9428 14 15Z" stroke="currentColor" stroke-width="1.5"/>
        <path d="M22 12C22 8.22876 22 6.34315 20.8284 5.17157C19.6569 4 17.7712 4 14 4H10C6.22876 4 4.34315 4 3.17157 5.17157C2 6.34315 2 8.22876 2 12C2 15.7712 2 17.6569 3.17157 18.8284C4.34315 20 6.22876 20 10 20H14C17.7712 20 19.6569 20 20.8284 18.8284C21.4816 18.1752 21.7706 17.3001 21.8985 16" stroke="currentColor" stroke-width="1.5" stroke-linecap="round"/>
        <path d="M2 10L7 10M22 10L11 10" stroke="currentColor" stroke-width="1.5" stroke-linecap="round"/>
    </symbol>
    <symbol id="broken-money-bill" width="var(--svg-icon-size)" height="var(--svg-icon-size)" viewBox="0 0 24 24">
        <path d="M21 6V3.50519C21 2.92196 20.3109 2.61251 19.875 2.99999C19.2334 3.57029 18.2666 3.57029 17.625 2.99999C16.9834 2.42969 16.0166 2.42969 15.375 2.99999C14.7334 3.57029 13.7666 3.57029 13.125 2.99999C12.4834 2.42969 11.5166 2.42969 10.875 2.99999C10.2334 3.57029 9.26659 3.57029 8.625 2.99999C7.98341 2.42969 7.01659 2.42969 6.375 2.99999C5.73341 3.57029 4.76659 3.57029 4.125 2.99999C3.68909 2.61251 3 2.92196 3 3.50519V14M21 10V20.495C21 21.0782 20.3109 21.3876 19.875 21.0002C19.2334 20.4299 18.2666 20.4299 17.625 21.0002C16.9834 21.5705 16.0166 21.5705 15.375 21.0002C14.7334 20.4299 13.7666 20.4299 13.125 21.0002C12.4834 21.5705 11.5166 21.5705 10.875 21.0002C10.2334 20.4299 9.26659 20.4299 8.625 21.0002C7.98341 21.5705 7.01659 21.5705 6.375 21.0002C5.73341 20.4299 4.76659 20.4299 4.125 21.0002C3.68909 21.3876 3 21.0782 3 20.495V18" stroke="currentColor" stroke-width="1.5" stroke-linecap="round"/>
        <path d="M7.5 15.5H11.5M16.5 15.5H14.5" stroke="currentColor" stroke-width="1.5" stroke-linecap="round"/>
        <path d="M16.5 12H12.5M7.5 12H9.5" stroke="currentColor" stroke-width="1.5" stroke-linecap="round"/>
        <path d="M7.5 8.5H16.5" stroke="currentColor" stroke-width="1.5" stroke-linecap="round"/>
    </symbol>
    <symbol id="broken-arrow-logout2" width="var(--svg-icon-size)" height="var(--svg-icon-size)" viewBox="0 0 24 24">
        <path d="M15 12L2 12M2 12L5.5 9M2 12L5.5 15" stroke="currentColor" stroke-width="1.5" stroke-linecap="round" stroke-linejoin="round"/>
        <path d="M9.00195 7C9.01406 4.82497 9.11051 3.64706 9.87889 2.87868C10.7576 2 12.1718 2 15.0002 2L16.0002 2C18.8286 2 20.2429 2 21.1215 2.87868C22.0002 3.75736 22.0002 5.17157 22.0002 8L22.0002 16C22.0002 18.8284 22.0002 20.2426 21.1215 21.1213C20.3531 21.8897 19.1752 21.9862 17 21.9983M9.00195 17C9.01406 19.175 9.11051 20.3529 9.87889 21.1213C10.5202 21.7626 11.4467 21.9359 13 21.9827" stroke="currentColor" stroke-width="1.5" stroke-linecap="round"/>
    </symbol>
    <symbol id="phone-calling" width="var(--svg-icon-size)" height="var(--svg-icon-size)" viewBox="0 0 24 24">
        <path d="M13.5 2C13.5 2 15.8335 2.21213 18.8033 5.18198C21.7731 8.15183 21.9853 10.4853 21.9853 10.4853" stroke="currentColor" stroke-width="1.5" stroke-linecap="round"/>
        <path d="M14.207 5.53564C14.207 5.53564 15.197 5.81849 16.6819 7.30341C18.1668 8.78834 18.4497 9.77829 18.4497 9.77829" stroke="currentColor" stroke-width="1.5" stroke-linecap="round"/>
        <path d="M15.1007 15.0272L14.5569 14.5107L15.1007 15.0272ZM15.5562 14.5477L16.1 15.0642H16.1L15.5562 14.5477ZM17.9728 14.2123L17.5987 14.8623H17.5987L17.9728 14.2123ZM19.8833 15.312L19.5092 15.962L19.8833 15.312ZM20.4217 18.7584L20.9655 19.2749L20.4217 18.7584ZM19.0011 20.254L18.4573 19.7375L19.0011 20.254ZM17.6763 20.9631L17.7499 21.7095L17.6763 20.9631ZM7.81536 16.4752L8.35915 15.9587L7.81536 16.4752ZM3.00289 6.96594L2.25397 7.00613L2.25397 7.00613L3.00289 6.96594ZM9.47752 8.50311L10.0213 9.01963H10.0213L9.47752 8.50311ZM9.63424 5.6931L10.2466 5.26012L9.63424 5.6931ZM8.37326 3.90961L7.76086 4.3426V4.3426L8.37326 3.90961ZM5.26145 3.60864L5.80524 4.12516L5.26145 3.60864ZM3.69185 5.26114L3.14806 4.74462L3.14806 4.74462L3.69185 5.26114ZM11.0631 13.0559L11.6069 12.5394L11.0631 13.0559ZM15.6445 15.5437L16.1 15.0642L15.0124 14.0312L14.5569 14.5107L15.6445 15.5437ZM17.5987 14.8623L19.5092 15.962L20.2575 14.662L18.347 13.5623L17.5987 14.8623ZM19.8779 18.2419L18.4573 19.7375L19.5449 20.7705L20.9655 19.2749L19.8779 18.2419ZM17.6026 20.2167C16.1676 20.3584 12.4233 20.2375 8.35915 15.9587L7.27157 16.9917C11.7009 21.655 15.9261 21.8895 17.7499 21.7095L17.6026 20.2167ZM8.35915 15.9587C4.48303 11.8778 3.83285 8.43556 3.75181 6.92574L2.25397 7.00613C2.35322 8.85536 3.1384 12.6403 7.27157 16.9917L8.35915 15.9587ZM9.7345 9.32159L10.0213 9.01963L8.93372 7.9866L8.64691 8.28856L9.7345 9.32159ZM10.2466 5.26012L8.98565 3.47663L7.76086 4.3426L9.02185 6.12608L10.2466 5.26012ZM4.71766 3.09213L3.14806 4.74462L4.23564 5.77765L5.80524 4.12516L4.71766 3.09213ZM9.1907 8.80507C8.64691 8.28856 8.64622 8.28929 8.64552 8.29002C8.64528 8.29028 8.64458 8.29102 8.64411 8.29152C8.64316 8.29254 8.64219 8.29357 8.64121 8.29463C8.63924 8.29675 8.6372 8.29896 8.6351 8.30127C8.63091 8.30588 8.62646 8.31087 8.62178 8.31625C8.61243 8.32701 8.60215 8.33931 8.59116 8.3532C8.56918 8.38098 8.54431 8.41512 8.51822 8.45588C8.46591 8.53764 8.40917 8.64531 8.36112 8.78033C8.26342 9.0549 8.21018 9.4185 8.27671 9.87257C8.40742 10.7647 8.99198 11.9644 10.5193 13.5724L11.6069 12.5394C10.1793 11.0363 9.82761 10.1106 9.76086 9.65511C9.72866 9.43536 9.76138 9.31957 9.77432 9.28321C9.78159 9.26277 9.78635 9.25709 9.78169 9.26437C9.77944 9.26789 9.77494 9.27451 9.76738 9.28407C9.76359 9.28885 9.75904 9.29437 9.7536 9.30063C9.75088 9.30375 9.74793 9.30706 9.74476 9.31056C9.74317 9.31231 9.74152 9.3141 9.73981 9.31594C9.73896 9.31686 9.73809 9.31779 9.7372 9.31873C9.73676 9.3192 9.73608 9.31992 9.73586 9.32015C9.73518 9.32087 9.7345 9.32159 9.1907 8.80507ZM10.5193 13.5724C12.0422 15.1757 13.1923 15.806 14.0698 15.9485C14.5201 16.0216 14.8846 15.9632 15.1606 15.8544C15.2955 15.8012 15.4022 15.7387 15.4823 15.6819C15.5223 15.6535 15.5556 15.6266 15.5824 15.6031C15.5959 15.5913 15.6077 15.5803 15.618 15.5703C15.6232 15.5654 15.628 15.5606 15.6324 15.5562C15.6346 15.554 15.6367 15.5518 15.6387 15.5497C15.6397 15.5487 15.6407 15.5477 15.6417 15.5467C15.6422 15.5462 15.6429 15.5454 15.6431 15.5452C15.6438 15.5444 15.6445 15.5437 15.1007 15.0272C14.5569 14.5107 14.5576 14.51 14.5583 14.5093C14.5585 14.509 14.5592 14.5083 14.5596 14.5078C14.5605 14.5069 14.5614 14.506 14.5623 14.5051C14.5641 14.5033 14.5658 14.5015 14.5674 14.4998C14.5708 14.4965 14.574 14.4933 14.577 14.4904C14.583 14.4846 14.5885 14.4796 14.5933 14.4754C14.6028 14.467 14.6099 14.4616 14.6145 14.4584C14.6239 14.4517 14.6229 14.454 14.6102 14.459C14.5909 14.4666 14.5 14.4987 14.3103 14.4679C13.9077 14.4025 13.0391 14.0472 11.6069 12.5394L10.5193 13.5724ZM8.98565 3.47663C7.97206 2.04305 5.94384 1.80119 4.71766 3.09213L5.80524 4.12516C6.32808 3.57471 7.24851 3.61795 7.76086 4.3426L8.98565 3.47663ZM3.75181 6.92574C3.73038 6.52644 3.90425 6.12654 4.23564 5.77765L3.14806 4.74462C2.61221 5.30877 2.20493 6.09246 2.25397 7.00613L3.75181 6.92574ZM18.4573 19.7375C18.1783 20.0313 17.8864 20.1887 17.6026 20.2167L17.7499 21.7095C18.497 21.6357 19.1016 21.2373 19.5449 20.7705L18.4573 19.7375ZM10.0213 9.01963C10.9889 8.00095 11.0574 6.40678 10.2466 5.26012L9.02185 6.12608C9.44399 6.72315 9.37926 7.51753 8.93372 7.9866L10.0213 9.01963ZM19.5092 15.962C20.33 16.4345 20.4907 17.5968 19.8779 18.2419L20.9655 19.2749C22.2704 17.901 21.8904 15.6019 20.2575 14.662L19.5092 15.962ZM16.1 15.0642C16.4854 14.6584 17.086 14.5672 17.5987 14.8623L18.347 13.5623C17.2485 12.93 15.8861 13.1113 15.0124 14.0312L16.1 15.0642Z" fill="currentColor"/>
    </symbol>
    <symbol id="check-circle" width="var(--svg-icon-size)" height="var(--svg-icon-size)" viewBox="0 0 24 24">
        <circle cx="12" cy="12" r="10" stroke="currentColor" stroke-width="1.5"/>
        <path d="M8.5 12.5L10.5 14.5L15.5 9.5" stroke="currentColor" stroke-width="1.5" stroke-linecap="round" stroke-linejoin="round"/>
    </symbol>
</svg>


   