<svg width="184" height="171" viewBox="0 0 184 171" fill="none" xmlns="http://www.w3.org/2000/svg">
<g clip-path="url(#clip0_1165_27362)">
<path d="M0.500493 169.17C0.488628 169.281 0.520236 169.392 0.588557 169.479C0.656877 169.566 0.756486 169.623 0.866081 169.638H183.135C183.239 169.612 183.332 169.552 183.398 169.468C183.464 169.383 183.5 169.278 183.5 169.17C183.5 169.063 183.464 168.958 183.398 168.873C183.332 168.788 183.239 168.729 183.135 168.703H0.866081C0.756486 168.718 0.656877 168.775 0.588557 168.862C0.520236 168.949 0.488628 169.06 0.500493 169.17Z" fill="#CCCCCC"/>
<path d="M45.6713 76.2422C45.6713 76.2422 48.0761 86.5971 46.014 86.5971C43.9519 86.5971 39.8301 81.7643 39.8301 81.7643V79.0027L45.6713 76.2422Z" fill="#ED9DA0"/>
<path d="M40.6895 67.0938L46.8729 76.7599H42.407L40.6895 67.0938Z" fill="#D6D6E3"/>
<path d="M44.4676 151.324H36.2227V158.229H44.4676V151.324Z" fill="#ED9DA0"/>
<path d="M18.0149 150.288L16.2973 158.228L7.70898 156.156L9.76999 149.252L18.0149 150.288Z" fill="#ED9DA0"/>
<path d="M43.7814 78.83C43.7814 78.83 46.5307 80.2108 46.8734 86.4245C47.2161 92.6382 45.8429 108.863 45.8429 108.863C45.8429 108.863 47.2171 116.111 45.8429 122.671C44.4687 129.231 47.2171 153.049 45.5002 153.049C43.7833 153.049 34.8503 154.084 34.5069 153.049C34.1635 152.013 33.8199 136.479 33.8199 136.479C33.8199 136.479 31.0706 128.539 33.8199 123.706C33.8199 123.706 27.6359 128.884 27.6359 130.265C27.6359 131.646 21.1088 153.05 18.0173 153.394C14.9258 153.738 6.33698 153.05 8.05502 149.942C9.77306 146.834 13.8951 132.683 13.8951 132.683C13.8951 132.683 16.987 122.328 22.4834 117.839L19.7342 95.746C19.7342 95.746 13.8941 80.9022 17.3293 78.8309C20.7645 76.7597 43.7814 78.83 43.7814 78.83Z" fill="#1A1A1A"/>
<path d="M69.2404 88.7139L58.4034 73.1763C58.0354 72.65 57.4746 72.2918 56.8441 72.1804C56.2137 72.0689 55.5649 72.2134 55.0403 72.5819L36.885 85.3679C36.3612 85.7376 36.0047 86.3011 35.8938 86.9346C35.783 87.5682 35.9267 88.22 36.2935 88.7472L47.1302 104.284C47.4982 104.811 48.0589 105.169 48.6894 105.28C49.3199 105.392 49.9686 105.247 50.4932 104.879L68.6485 92.0927C69.1722 91.7229 69.5287 91.1596 69.6396 90.5262C69.7506 89.8928 69.607 89.2411 69.2404 88.7139Z" fill="#E6E6E6"/>
<path d="M68.671 89.1157L57.8345 73.5789C57.5724 73.2041 57.1731 72.9491 56.7241 72.8697C56.2752 72.7904 55.8133 72.8932 55.4396 73.1557L37.2843 85.9416C36.9113 86.2049 36.6575 86.6061 36.5786 87.0573C36.4996 87.5084 36.602 87.9726 36.8631 88.348L47.6997 103.885C47.9617 104.26 48.361 104.515 48.81 104.594C49.2589 104.673 49.7209 104.57 50.0945 104.308L68.2498 91.5221C68.6228 91.2588 68.8766 90.8575 68.9555 90.4064C69.0345 89.9553 68.9322 89.4911 68.671 89.1157Z" fill="white"/>
<path d="M57.0581 93.7992L51.5783 85.9426C51.5172 85.8549 51.4932 85.7464 51.5116 85.6409C51.5301 85.5354 51.5895 85.4417 51.6768 85.3802C51.7641 85.3187 51.8721 85.2946 51.977 85.3132C52.082 85.3317 52.1753 85.3914 52.2365 85.4791L57.7165 93.3361C57.7777 93.4238 57.8017 93.5323 57.7832 93.6378C57.7648 93.7433 57.7054 93.837 57.6181 93.8985C57.5308 93.96 57.4228 93.9841 57.3178 93.9655C57.2129 93.947 57.1195 93.8873 57.0584 93.7996L57.0581 93.7992Z" fill="#E6E6E6"/>
<path d="M56.8991 95.9458L50.467 86.7239C50.4058 86.6362 50.3819 86.5276 50.4003 86.4222C50.4188 86.3167 50.4782 86.2229 50.5655 86.1614C50.6527 86.1 50.7607 86.0759 50.8657 86.0944C50.9707 86.113 51.064 86.1727 51.1252 86.2604L57.5573 95.4823C57.6184 95.57 57.6424 95.6786 57.624 95.784C57.6055 95.8895 57.5461 95.9833 57.4588 96.0448C57.3715 96.1062 57.2635 96.1303 57.1586 96.1118C57.0536 96.0932 56.9603 96.0335 56.8991 95.9458Z" fill="#E6E6E6"/>
<path d="M52.0779 97.3035L46.5979 89.4465C46.5367 89.3588 46.5127 89.2503 46.5312 89.1448C46.5496 89.0393 46.609 88.9456 46.6963 88.8841C46.7836 88.8226 46.8916 88.7985 46.9966 88.8171C47.1015 88.8356 47.1949 88.8953 47.256 88.983L52.7361 96.84C52.7972 96.9277 52.8212 97.0362 52.8028 97.1417C52.7843 97.2472 52.7249 97.3409 52.6376 97.4024C52.5503 97.4639 52.4423 97.488 52.3374 97.4694C52.2324 97.4509 52.1391 97.3912 52.0779 97.3035Z" fill="#E6E6E6"/>
<path d="M51.9186 99.4517L45.4865 90.2297C45.4254 90.142 45.4014 90.0335 45.4198 89.928C45.4383 89.8226 45.4977 89.7288 45.585 89.6673C45.6723 89.6058 45.7803 89.5817 45.8852 89.6003C45.9902 89.6188 46.0835 89.6785 46.1447 89.7662L52.5768 98.9882C52.638 99.0759 52.662 99.1844 52.6435 99.2899C52.625 99.3954 52.5656 99.4891 52.4783 99.5506C52.3911 99.6121 52.2831 99.6362 52.1781 99.6176C52.0731 99.5991 51.9798 99.5394 51.9186 99.4517Z" fill="#E6E6E6"/>
<path d="M48.738 85.3179L46.7987 82.5375C46.7694 82.4954 46.7578 82.4434 46.7667 82.3927C46.7756 82.3421 46.8041 82.2971 46.846 82.2676L49.3089 80.5331C49.3507 80.5036 49.4026 80.492 49.453 80.5009C49.5033 80.5098 49.5481 80.5385 49.5775 80.5806L51.5167 83.361C51.5461 83.4031 51.5576 83.4552 51.5488 83.5058C51.5399 83.5564 51.5114 83.6014 51.4695 83.6309L49.0066 85.3654C48.9647 85.3949 48.9129 85.4065 48.8625 85.3976C48.8121 85.3887 48.7673 85.36 48.738 85.3179Z" fill="#E6E6E6"/>
<path d="M43.7568 88.8224L41.8175 86.042C41.7881 85.9999 41.7766 85.9478 41.7855 85.8972C41.7943 85.8465 41.8229 85.8015 41.8647 85.772L44.3284 84.037C44.3703 84.0075 44.4221 83.9959 44.4725 84.0048C44.5229 84.0137 44.5677 84.0424 44.597 84.0845L46.5363 86.8649C46.5656 86.907 46.5772 86.9591 46.5683 87.0097C46.5594 87.0603 46.5309 87.1053 46.489 87.1348L44.0261 88.8693C44.0054 88.8841 43.982 88.8946 43.9572 88.9002C43.9324 88.9058 43.9068 88.9065 43.8817 88.9021C43.8567 88.8977 43.8328 88.8884 43.8113 88.8748C43.7899 88.8611 43.7713 88.8433 43.7568 88.8224Z" fill="#E6E6E6"/>
<path d="M62.6079 89.9058L58.5686 84.1145C58.5074 84.0268 58.4834 83.9183 58.5019 83.8128C58.5203 83.7073 58.5797 83.6135 58.667 83.5521C58.7543 83.4906 58.8623 83.4665 58.9673 83.485C59.0722 83.5036 59.1656 83.5633 59.2267 83.651L63.2663 89.4427C63.3275 89.5304 63.3515 89.6389 63.333 89.7444C63.3145 89.8499 63.2551 89.9436 63.1679 90.0051C63.0806 90.0666 62.9726 90.0907 62.8676 90.0721C62.7626 90.0536 62.6693 89.9939 62.6081 89.9062L62.6079 89.9058Z" fill="#FFA800"/>
<path d="M62.4486 92.0521L57.4572 84.8957C57.3961 84.808 57.3721 84.6995 57.3905 84.594C57.409 84.4886 57.4684 84.3948 57.5557 84.3333C57.643 84.2719 57.751 84.2477 57.8559 84.2663C57.9609 84.2848 58.0542 84.3445 58.1154 84.4322L63.1074 91.5895C63.1686 91.6772 63.1926 91.7857 63.1741 91.8912C63.1557 91.9967 63.0962 92.0905 63.009 92.1519C62.9217 92.2134 62.8137 92.2375 62.7087 92.2189C62.6038 92.2004 62.5104 92.1407 62.4493 92.053L62.4486 92.0521Z" fill="#FFA800"/>
<path d="M55.2208 84.563L51.4963 79.223C51.4669 79.1809 51.4554 79.1288 51.4643 79.0782C51.4731 79.0276 51.5017 78.9826 51.5435 78.9531L55.6897 76.0331C55.7316 76.0036 55.7834 75.992 55.8338 76.0009C55.8842 76.0098 55.929 76.0385 55.9584 76.0806L59.6831 81.421C59.7125 81.4631 59.724 81.5152 59.7152 81.5658C59.7063 81.6164 59.6778 81.6614 59.6359 81.6909L55.4897 84.6109C55.4478 84.6404 55.396 84.6519 55.3456 84.643C55.2952 84.6341 55.2504 84.6055 55.2211 84.5634L55.2208 84.563Z" fill="#FFA800"/>
<path d="M37.9411 19.1109C37.9411 19.1109 34.5057 30.5028 35.5362 31.8843C36.5667 33.2658 24.543 24.2898 24.543 24.2898C24.543 24.2898 29.0089 21.1828 27.2922 16.6953L37.9411 19.1109Z" fill="#ED9DA0"/>
<path d="M33.475 22.5619C38.408 22.5619 42.407 18.5435 42.407 13.5866C42.407 8.6297 38.408 4.61133 33.475 4.61133C28.542 4.61133 24.543 8.6297 24.543 13.5866C24.543 18.5435 28.542 22.5619 33.475 22.5619Z" fill="#ED9DA0"/>
<path d="M23.5126 23.252C23.5126 23.252 27.6351 24.6328 29.6965 27.0493C31.758 29.4658 36.5673 29.8119 36.5673 29.8119C36.5673 29.8119 40.8189 32.2181 42.4074 36.3708C44.1005 40.7971 43.1168 47.0284 42.4074 48.4531C41.0334 51.2156 41.0334 58.1192 41.0334 58.1192L42.751 73.9986C42.751 73.9986 48.9349 79.8669 44.1252 80.5575C39.3154 81.2482 30.7273 80.2131 25.5738 80.5575C20.4204 80.9019 14.5806 81.5931 16.2984 78.141C18.0162 74.689 20.0775 72.2727 18.016 65.3677C16.4031 59.9652 16.4728 39.7652 16.5795 31.2358C16.594 30.064 16.9067 28.9154 17.4879 27.8993C18.0691 26.8833 18.8993 26.0336 19.8997 25.4311L23.5126 23.252Z" fill="#D6D6E3"/>
<path d="M36.9086 76.0684C36.9086 76.0684 38.4715 79.5264 38.6262 81.5916C39.8285 97.6436 31.0684 81.5916 31.0684 81.5916V78.8288L36.9086 76.0684Z" fill="#ED9DA0"/>
<path d="M13.4482 156.041C13.4482 156.041 18.4103 152.384 18.4103 154.378C18.4103 156.373 24.034 164.351 24.034 164.351C24.034 164.351 33.2969 170.999 25.688 170.999C18.0792 170.999 14.7709 169.67 14.7709 169.67L6.83123 164.351C6.83123 164.351 4.84655 162.024 5.50803 159.365C6.16952 156.706 8.48551 153.049 8.48551 153.049C8.48551 153.049 11.1326 156.705 13.4482 156.041Z" fill="#1A1A1A"/>
<path d="M43.7128 156.913C43.7128 156.913 44.3775 153.573 46.7038 155.243C49.0301 156.913 55.3442 161.922 55.3442 161.922C55.3442 161.922 66.9757 164.594 59.6643 167.932C52.353 171.271 35.7368 166.597 35.7368 166.597C35.7368 166.597 35.0721 155.911 35.7368 156.245C36.4015 156.578 43.3806 157.581 43.7128 156.913Z" fill="#1A1A1A"/>
<path opacity="0.1" d="M28.4934 34.127L27.4629 55.1845L37.4508 75.5089L39.1446 74.8614L28.8384 55.8749L28.4934 34.127Z" fill="#1A1A1A"/>
<path d="M20.4192 27.7411L17.8427 27.2227C17.8427 27.2227 10.113 32.9183 12.5188 44.3102C14.9246 55.702 25.5733 72.9622 25.5733 72.9622C25.5733 72.9622 27.9782 76.0691 28.6653 76.7595C29.3523 77.4499 30.7267 76.7595 30.0394 77.795C29.3521 78.8305 31.0699 79.5209 31.0699 79.5209C31.0699 79.5209 38.6278 79.5209 37.9407 76.7584C37.2536 73.9958 25.5733 54.3203 25.5733 54.3203L27.2909 36.0246C27.2909 36.0246 28.6641 27.0507 20.4192 27.7411Z" fill="#D6D6E3"/>
<path opacity="0.1" d="M17.1562 59.6724V57.2559L28.8366 76.5882L17.1562 59.6724Z" fill="#1A1A1A"/>
<path d="M39.8132 5.27222L41.2899 4.67802C41.2899 4.67802 38.2025 1.2618 33.9066 1.55891L35.1149 0.222175C35.1149 0.222175 32.1616 -0.966003 29.4769 2.15311C28.0655 3.79268 26.432 5.71949 25.4147 7.89012H23.8335L24.4937 9.35037L22.1836 10.8106L24.5544 10.5484C24.3298 11.8092 24.4068 13.1056 24.7788 14.3306L24.7153 15.4851C24.7153 15.4851 27.4645 11.2122 27.4645 10.6175V12.1028C27.4645 12.1028 28.9413 10.7661 28.9413 9.8757L29.7465 10.9153L30.1491 9.2815L35.1156 10.9153L34.3104 9.5786L37.3978 10.0242L36.1895 8.39042C36.1895 8.39042 39.6797 10.3214 39.8139 11.9552C39.948 13.589 41.693 15.6674 41.693 15.6674L42.4982 14.1821C42.4982 14.1821 43.706 7.50003 39.8132 5.27222Z" fill="#1A1A1A"/>
<path d="M157.122 152.82H105.328C104.676 152.819 104.051 152.558 103.59 152.094C103.129 151.631 102.869 151.002 102.869 150.346V79.6958C102.87 79.0406 103.129 78.4125 103.59 77.9493C104.051 77.486 104.676 77.2254 105.328 77.2246H157.122C157.774 77.2255 158.399 77.4861 158.86 77.9493C159.321 78.4126 159.581 79.0407 159.582 79.6958V150.347C159.581 151.002 159.322 151.631 158.861 152.094C158.4 152.558 157.775 152.819 157.122 152.82Z" fill="#F2F2F2"/>
<path d="M120.213 105.145C120.099 105.153 119.99 105.192 119.896 105.256C120.373 105.226 120.847 105.16 121.313 105.059L120.213 105.145Z" fill="#2F2E41"/>
<path d="M119.271 85.6826C117.095 85.6829 114.98 86.4052 113.254 87.7371C111.528 89.0691 110.288 90.9363 109.726 93.0489C109.164 95.1615 109.312 97.4015 110.146 99.4211C110.981 101.441 112.456 103.127 114.341 104.218C114.842 104.51 115.368 104.755 115.912 104.953L116.003 104.985C117.053 105.355 118.158 105.544 119.271 105.542C119.486 105.542 119.701 105.535 119.913 105.52C120.403 105.489 120.89 105.421 121.369 105.317C121.638 105.258 121.901 105.188 122.15 105.112C122.211 105.094 122.268 105.076 122.33 105.056C124.567 104.324 126.471 102.815 127.7 100.798C128.928 98.7822 129.401 96.3917 129.032 94.0567C128.664 91.7217 127.478 89.5955 125.689 88.0603C123.9 86.5251 121.624 85.6817 119.271 85.6816V85.6826ZM125.004 103.051C124.151 103.712 123.192 104.221 122.167 104.554L121.998 104.608C121.762 104.681 121.513 104.746 121.257 104.801C120.803 104.901 120.342 104.965 119.879 104.994C119.677 105.008 119.475 105.016 119.27 105.016C118.217 105.016 117.171 104.837 116.177 104.487L116.09 104.457C115.549 104.262 115.027 104.015 114.532 103.721C112.808 102.701 111.455 101.152 110.671 99.3022C109.888 97.4523 109.716 95.3986 110.18 93.4431C110.645 91.4875 111.721 89.7332 113.251 88.4379C114.781 87.1426 116.685 86.3747 118.681 86.2469C120.678 86.1191 122.663 86.6382 124.344 87.728C126.025 88.8177 127.315 90.4206 128.022 92.3012C128.73 94.1817 128.818 96.2407 128.275 98.1756C127.731 100.11 126.585 101.819 125.003 103.051L125.004 103.051Z" fill="#CCCCCC"/>
<path d="M147.095 95.574H132.44C132.132 95.574 131.837 95.4512 131.619 95.2325C131.402 95.0139 131.279 94.7173 131.279 94.4081C131.279 94.0989 131.402 93.8023 131.619 93.5837C131.837 93.365 132.132 93.2422 132.44 93.2422H147.095C147.403 93.2422 147.698 93.365 147.916 93.5837C148.133 93.8023 148.255 94.0989 148.255 94.4081C148.255 94.7173 148.133 95.0139 147.916 95.2325C147.698 95.4512 147.403 95.574 147.095 95.574Z" fill="#E6E6E6"/>
<path d="M151.878 99.5056H132.44C132.132 99.5056 131.837 99.3828 131.619 99.1642C131.402 98.9455 131.279 98.6489 131.279 98.3397C131.279 98.0305 131.402 97.734 131.619 97.5153C131.837 97.2967 132.132 97.1738 132.44 97.1738H151.878C152.186 97.1738 152.481 97.2967 152.699 97.5153C152.916 97.734 153.038 98.0305 153.038 98.3397C153.038 98.6489 152.916 98.9455 152.699 99.1642C152.481 99.3828 152.186 99.5056 151.878 99.5056H151.878Z" fill="#E6E6E6"/>
<path d="M147.072 114.588H110.57C110.263 114.588 109.968 114.465 109.75 114.246C109.532 114.028 109.41 113.731 109.41 113.422C109.41 113.113 109.532 112.816 109.75 112.597C109.968 112.379 110.263 112.256 110.57 112.256H147.072C147.38 112.256 147.675 112.379 147.893 112.597C148.11 112.816 148.232 113.113 148.232 113.422C148.232 113.731 148.11 114.028 147.893 114.246C147.675 114.465 147.38 114.588 147.072 114.588H147.072Z" fill="#E6E6E6"/>
<path d="M151.855 118.519H110.57C110.263 118.519 109.968 118.396 109.75 118.178C109.532 117.959 109.41 117.663 109.41 117.353C109.41 117.044 109.532 116.748 109.75 116.529C109.968 116.31 110.263 116.188 110.57 116.188H151.855C152.163 116.188 152.458 116.31 152.675 116.529C152.893 116.748 153.015 117.044 153.015 117.353C153.015 117.663 152.893 117.959 152.675 118.178C152.458 118.396 152.163 118.519 151.855 118.519H151.855Z" fill="#E6E6E6"/>
<path d="M178.729 104.697C178.776 104.254 178.687 103.808 178.473 103.418C178.26 103.028 177.932 102.713 177.534 102.517L137.617 82.9134C137.105 82.6613 136.513 82.6243 135.974 82.8103C135.434 82.9964 134.989 83.3903 134.738 83.9055L119.764 114.686C119.515 115.201 119.478 115.795 119.664 116.338C119.849 116.88 120.241 117.326 120.753 117.579L160.669 137.183C161.182 137.434 161.774 137.47 162.313 137.284C162.853 137.097 163.297 136.704 163.548 136.189L178.521 105.41C178.631 105.186 178.701 104.945 178.729 104.697V104.697Z" fill="white"/>
<path d="M178.729 104.697C178.776 104.254 178.687 103.808 178.473 103.418C178.26 103.028 177.932 102.713 177.534 102.517L137.617 82.9134C137.105 82.6613 136.513 82.6243 135.974 82.8103C135.434 82.9964 134.989 83.3903 134.738 83.9055L119.764 114.686C119.515 115.201 119.478 115.795 119.664 116.338C119.849 116.88 120.241 117.326 120.753 117.579L160.669 137.183C161.182 137.434 161.774 137.47 162.313 137.284C162.853 137.097 163.297 136.704 163.548 136.189L178.521 105.41C178.631 105.186 178.701 104.945 178.729 104.697V104.697ZM163.324 136.078C163.102 136.532 162.71 136.88 162.234 137.044C161.758 137.208 161.236 137.176 160.783 136.954L120.867 117.351C120.415 117.128 120.069 116.734 119.906 116.256C119.742 115.777 119.774 115.253 119.995 114.798L134.965 84.018C135.187 83.5637 135.579 83.2164 136.055 83.0521C136.532 82.8878 137.053 82.92 137.506 83.1416L177.422 102.745C177.874 102.968 178.22 103.362 178.384 103.841C178.547 104.319 178.515 104.843 178.294 105.298L163.324 136.078Z" fill="#3F3D56"/>
<path d="M174.373 106.098L163.92 127.592C163.85 127.735 163.726 127.845 163.576 127.897C163.426 127.949 163.261 127.939 163.119 127.869L126.809 110.036C126.783 110.024 126.758 110.009 126.735 109.992C126.616 109.911 126.53 109.789 126.493 109.65C126.456 109.51 126.47 109.362 126.533 109.232L136.987 87.7382C137.056 87.5948 137.18 87.4851 137.33 87.4331C137.48 87.3812 137.645 87.3913 137.788 87.4613L174.097 105.294C174.24 105.364 174.349 105.488 174.401 105.639C174.452 105.79 174.442 105.955 174.373 106.099L174.373 106.098Z" fill="#E6E6E6"/>
<path d="M142.496 105.005C145.4 105.005 147.754 102.639 147.754 99.7211C147.754 96.803 145.4 94.4375 142.496 94.4375C139.592 94.4375 137.238 96.803 137.238 99.7211C137.238 102.639 139.592 105.005 142.496 105.005Z" fill="#FFA800"/>
<path d="M150.194 121.628L127.019 110.247C126.989 110.232 126.962 110.215 126.936 110.196L147.175 96.5002C147.3 96.4142 147.445 96.3631 147.596 96.3519C147.747 96.3408 147.898 96.3701 148.034 96.4368C148.17 96.5035 148.285 96.6052 148.369 96.7316C148.453 96.858 148.502 97.0045 148.511 97.1561L149.64 113.573L149.695 114.358L150.194 121.628Z" fill="#1A1A1A"/>
<path opacity="0.2" d="M150.196 121.627L142.283 117.741L148.925 113.979L149.403 113.708L149.642 113.572L149.697 114.358L150.196 121.627Z" fill="#1A1A1A"/>
<path d="M163.1 127.964L143.055 118.12L149.697 114.358L150.175 114.087L158.83 109.185C158.975 109.116 159.132 109.078 159.292 109.075C159.451 109.071 159.61 109.101 159.757 109.163C159.905 109.224 160.038 109.317 160.147 109.433C160.257 109.55 160.341 109.689 160.394 109.84C160.406 109.882 160.416 109.924 160.422 109.967L163.1 127.964Z" fill="#1A1A1A"/>
<path d="M172.499 168.704H84.7382C83.1822 168.702 81.6904 168.08 80.5901 166.974C79.4898 165.869 78.8709 164.37 78.8691 162.806V114.376C78.8709 112.812 79.4898 111.313 80.5901 110.208C81.6904 109.102 83.1822 108.48 84.7382 108.479H95.4982C96.9582 108.477 98.366 109.024 99.4456 110.012L111.114 118.385C111.875 119.083 112.868 119.47 113.899 119.47H173.045C173.823 119.47 174.593 119.625 175.31 119.926C176.028 120.228 176.679 120.67 177.225 121.226C177.771 121.783 178.202 122.443 178.492 123.168C178.782 123.894 178.926 124.67 178.914 125.451L178.369 162.89C178.341 164.438 177.711 165.913 176.614 167C175.517 168.086 174.04 168.698 172.499 168.704Z" fill="#FFA800"/>
<path d="M119.615 102.009H119.624C121.239 101.921 122.76 101.218 123.878 100.045C124.997 98.8709 125.629 97.3137 125.647 95.6889C125.665 94.064 125.068 92.4931 123.976 91.2946C122.884 90.0961 121.379 89.3597 119.767 89.2348C119.747 89.2333 119.727 89.2359 119.708 89.2424C119.689 89.2489 119.672 89.2593 119.657 89.2727C119.643 89.2862 119.631 89.3026 119.623 89.3208C119.615 89.3391 119.61 89.3588 119.61 89.3788L119.471 101.863C119.471 101.882 119.474 101.902 119.481 101.919C119.488 101.937 119.499 101.954 119.512 101.967C119.526 101.981 119.542 101.992 119.559 102C119.577 102.007 119.596 102.011 119.615 102.011V102.009Z" fill="#FFA800"/>
<path d="M114.619 91.2988C114.668 91.2994 114.716 91.3196 114.75 91.3551L119.027 95.7505C119.045 95.7681 119.058 95.7889 119.067 95.8118C119.077 95.8347 119.081 95.8593 119.081 95.8839L119.014 101.857C119.014 101.883 119.009 101.908 118.998 101.932C118.988 101.955 118.973 101.976 118.954 101.993C118.935 102.011 118.913 102.025 118.888 102.034C118.864 102.042 118.838 102.046 118.813 102.044C117.623 101.955 116.482 101.534 115.517 100.83C114.553 100.125 113.803 99.1633 113.352 98.0537C112.902 96.9441 112.768 95.7302 112.966 94.5484C113.164 93.3666 113.686 92.2637 114.474 91.3638C114.491 91.3444 114.512 91.3286 114.535 91.3177C114.559 91.3067 114.584 91.3007 114.61 91.3L114.619 91.2988Z" fill="#E6E6E6"/>
<path d="M118.967 89.1836C119.014 89.1836 119.06 89.2018 119.095 89.2343C119.114 89.252 119.128 89.2734 119.138 89.2971C119.148 89.3209 119.153 89.3464 119.153 89.3721L119.093 94.7622C119.092 94.7992 119.081 94.8354 119.06 94.8659C119.039 94.8965 119.01 94.9203 118.976 94.9341C118.941 94.9479 118.904 94.9512 118.868 94.9437C118.832 94.9361 118.799 94.9179 118.773 94.8914L115.04 91.0571C115.022 91.0389 115.008 91.0172 114.999 90.9934C114.99 90.9697 114.986 90.9443 114.986 90.9188C114.987 90.8933 114.993 90.8683 115.004 90.8453C115.015 90.8223 115.031 90.8017 115.05 90.7848C116.135 89.8248 117.511 89.2608 118.955 89.1841L118.967 89.1836Z" fill="#1A1A1A"/>
<path d="M128.894 145.011C125.478 145.011 122.697 142.044 122.697 138.397C122.697 134.75 125.477 131.783 128.894 131.783C132.311 131.783 135.09 134.75 135.09 138.397C135.09 142.044 132.31 145.011 128.894 145.011ZM128.894 133.454C126.394 133.454 124.361 135.671 124.361 138.397C124.361 141.122 126.394 143.34 128.894 143.34C131.393 143.34 133.427 141.122 133.427 138.397C133.427 135.672 131.393 133.454 128.894 133.454V133.454Z" fill="#D6D6E3"/>
<path d="M134.761 156.539H123.024C121.989 156.538 120.997 156.124 120.265 155.389C119.534 154.653 119.122 153.657 119.121 152.617V141.05C119.122 140.337 119.404 139.654 119.905 139.151C120.406 138.647 121.086 138.364 121.794 138.363H135.992C136.701 138.364 137.381 138.647 137.882 139.151C138.383 139.654 138.665 140.337 138.666 141.05V152.617C138.665 153.657 138.253 154.654 137.521 155.389C136.789 156.125 135.796 156.538 134.761 156.539Z" fill="#F2F2F2"/>
<path d="M131.179 144.944C131.18 144.536 131.072 144.135 130.866 143.782C130.661 143.429 130.366 143.138 130.011 142.938C129.657 142.738 129.256 142.637 128.849 142.645C128.443 142.653 128.046 142.769 127.699 142.982C127.352 143.196 127.068 143.498 126.876 143.858C126.684 144.218 126.591 144.623 126.607 145.031C126.623 145.44 126.747 145.836 126.966 146.18C127.185 146.525 127.491 146.804 127.853 146.99V150.585H129.933V146.99C130.309 146.797 130.623 146.504 130.843 146.143C131.063 145.782 131.179 145.368 131.179 144.944Z" fill="#FFA800"/>
</g>
<defs>
<clipPath id="clip0_1165_27362">
<rect width="183" height="171" fill="white" transform="translate(0.5)"/>
</clipPath>
</defs>
</svg>
