<svg width="19" height="19" viewBox="0 0 19 19" fill="none" xmlns="http://www.w3.org/2000/svg">
<path d="M12.5536 2.34828L12.2192 2.71993L12.5536 2.34828ZM16.1165 5.55489L15.7821 5.92654L16.1165 5.55489ZM18.1886 7.83869L17.7318 8.0421L17.7318 8.04211L18.1886 7.83869ZM1.55442 17.4456L1.90797 17.092H1.90797L1.55442 17.4456ZM17.4456 17.4456L17.092 17.092L17.4456 17.4456ZM11.3 18.5V18H7.7V18.5V19H11.3V18.5ZM0.5 11.3H1V7.7H0.5H0V11.3H0.5ZM18.5 10.9066H18V11.3H18.5H19V10.9066H18.5ZM12.5536 2.34828L12.2192 2.71993L15.7821 5.92654L16.1165 5.55489L16.451 5.18324L12.8881 1.97663L12.5536 2.34828ZM18.5 10.9066H19C19 9.37163 19.0101 8.45425 18.6453 7.63527L18.1886 7.83869L17.7318 8.04211C17.9899 8.62154 18 9.2833 18 10.9066H18.5ZM16.1165 5.55489L15.7821 5.92654C16.9887 7.01248 17.4738 7.46267 17.7318 8.0421L18.1886 7.83869L18.6453 7.63527C18.2806 6.81629 17.592 6.21009 16.451 5.18324L16.1165 5.55489ZM7.72681 0.5V1C9.13718 1 9.71304 1.00772 10.2292 1.20578L10.4083 0.738967L10.5874 0.272156C9.85809 -0.00771922 9.06145 0 7.72681 0V0.5ZM12.5536 2.34828L12.8881 1.97663C11.901 1.08819 11.3167 0.552005 10.5874 0.272156L10.4083 0.738967L10.2292 1.20578C10.7454 1.40386 11.1762 1.78124 12.2192 2.71993L12.5536 2.34828ZM7.7 18.5V18C5.98881 18 4.75571 17.9989 3.81645 17.8727C2.89156 17.7483 2.32679 17.5109 1.90797 17.092L1.55442 17.4456L1.20086 17.7991C1.83645 18.4347 2.64742 18.7245 3.6832 18.8637C4.70459 19.0011 6.01708 19 7.7 19V18.5ZM0.5 11.3H0C0 12.9829 -0.00106186 14.2954 0.136261 15.3168C0.275517 16.3526 0.56527 17.1635 1.20086 17.7991L1.55442 17.4456L1.90797 17.092C1.48915 16.6732 1.25169 16.1084 1.12734 15.1836C1.00106 14.2443 1 13.0112 1 11.3H0.5ZM11.3 18.5V19C12.9829 19 14.2954 19.0011 15.3168 18.8637C16.3526 18.7245 17.1635 18.4347 17.7991 17.7991L17.4456 17.4456L17.092 17.092C16.6732 17.5109 16.1084 17.7483 15.1836 17.8727C14.2443 17.9989 13.0112 18 11.3 18V18.5ZM18.5 11.3H18C18 13.0112 17.9989 14.2443 17.8727 15.1836C17.7483 16.1084 17.5109 16.6732 17.092 17.092L17.4456 17.4456L17.7991 17.7991C18.4347 17.1635 18.7245 16.3526 18.8637 15.3168C19.0011 14.2954 19 12.9829 19 11.3H18.5ZM0.5 7.7H1C1 5.98881 1.00106 4.75571 1.12734 3.81645C1.25169 2.89156 1.48915 2.32679 1.90797 1.90797L1.55442 1.55442L1.20086 1.20086C0.56527 1.83645 0.275517 2.64742 0.136261 3.6832C-0.00106186 4.70459 0 6.01708 0 7.7H0.5ZM7.72681 0.5V0C6.03491 0 4.71588 -0.00105292 3.6902 0.136221C2.65051 0.275369 1.83684 0.56488 1.20086 1.20086L1.55442 1.55442L1.90797 1.90797C2.3264 1.48954 2.89294 1.25184 3.82285 1.12738C4.76677 1.00105 6.00673 1 7.72681 1V0.5Z" fill="#737373"/>
<path d="M4.1001 11.75H11.3001" stroke="#737373" stroke-linecap="round"/>
<path d="M4.1001 14.9004H9.0501" stroke="#737373" stroke-linecap="round"/>
<path d="M10.3999 0.949219V3.19922C10.3999 5.32054 10.3999 6.3812 11.0589 7.04021C11.7179 7.69922 12.7786 7.69922 14.8999 7.69922H18.4999" stroke="#737373"/>
</svg>
